<?xml version="1.0" encoding="utf-8" standalone="no"?>
<!DOCTYPE svg PUBLIC "-//W3C//DTD SVG 1.1//EN"
  "http://www.w3.org/Graphics/SVG/1.1/DTD/svg11.dtd">
<svg xmlns:xlink="http://www.w3.org/1999/xlink" width="576pt" height="576pt" viewBox="0 0 576 576" xmlns="http://www.w3.org/2000/svg" version="1.1">
 <metadata>
  <rdf:RDF xmlns:dc="http://purl.org/dc/elements/1.1/" xmlns:cc="http://creativecommons.org/ns#" xmlns:rdf="http://www.w3.org/1999/02/22-rdf-syntax-ns#">
   <cc:Work>
    <dc:type rdf:resource="http://purl.org/dc/dcmitype/StillImage"/>
    <dc:date>2026-10-10T17:43:22.830453</dc:date>
    <dc:format>image/svg+xml</dc:format>
    <dc:creator>
     <cc:Agent>
      <dc:title>Matplotlib v3.11.2, https://matplotlib.org/</dc:title>
     </cc:Agent>
    </dc:creator>
   </cc:Work>
  </rdf:RDF>
 </metadata>
 <defs>
  <style type="text/css">*{stroke-linejoin: round; stroke-linecap: butt}</style>
 </defs>
 <g id="figure_1">
  <g id="patch_1">
   <path d="M 0 576 
L 576 576 
L 576 0 
L 0 0 
z
" style="fill: #ffffff"/>
  </g>
  <g id="axes_1">
   <g id="patch_2">
    <path d="M 0 576 
L 576 576 
L 576 0 
L 0 0 
z
" clip-path="url(#p2c03fdfdee)" style="fill: #ffffff"/>
   </g>
   <g id="patch_3">
    <path d="M 167.271391 180.391757 
L 167.500029 184.578272 
L 167.552748 185.14527 
L 167.626997 185.713886 
L 167.722458 186.283912 
L 167.838803 186.85509 
L 167.975696 187.427111 
L 168.132781 187.999624 
L 168.309681 188.572241 
L 168.505995 189.144544 
L 168.721302 189.716091 
L 168.955151 190.286419 
L 169.207072 190.855053 
L 169.476568 191.421504 
L 169.763123 191.985278 
L 170.066197 192.545876 
L 170.385234 193.102797 
L 170.719657 193.655541 
L 171.068874 194.203609 
L 171.432279 194.746503 
L 171.809252 195.283732 
L 172.199158 195.814806 
L 172.601353 196.339242 
L 173.015183 196.856562 
L 173.457514 197.387326 
L 173.422043 197.345605 
L 173.892717 197.888296 
L 173.857054 197.847971 
L 174.337546 198.380796 
L 174.301666 198.341763 
L 174.791314 198.864366 
L 174.755185 198.826525 
L 175.253329 199.33855 
L 175.21691 199.301806 
L 175.722888 199.802897 
L 175.686132 199.76716 
L 176.199284 200.256961 
L 176.162134 200.222145 
L 176.681798 200.700299 
L 176.644192 200.666324 
L 177.169708 201.132475 
L 177.131575 201.099264 
L 177.662281 201.553056 
L 177.623541 201.520536 
L 178.158776 201.961612 
L 178.119341 201.929714 
L 178.658445 202.35772 
L 178.618217 202.326379 
L 179.160528 202.740957 
L 179.119399 202.710113 
L 179.664256 203.110907 
L 179.622106 203.080505 
L 180.168848 203.467159 
L 180.125546 203.437147 
L 180.673511 203.809305 
L 180.628909 203.779637 
L 181.177438 204.136942 
L 181.131375 204.107578 
L 181.656099 204.434888 
L 182.155149 204.732432 
L 182.650829 205.014287 
L 183.142243 205.280088 
L 183.628471 205.529478 
L 184.108562 205.762118 
L 184.581533 205.977687 
L 185.046361 206.17589 
L 185.501985 206.35646 
L 185.947299 206.519168 
L 186.381145 206.663834 
L 186.802317 206.790336 
L 187.209554 206.898628 
L 187.601542 206.988758 
L 187.976922 207.060887 
L 188.334297 207.115322 
L 188.672254 207.152539 
L 188.989397 207.173219 
L 189.284397 207.178279 
L 189.681503 207.164566 
L 195.691819 207.164566 
L 195.691819 453.208243 
L 85.183099 453.208243 
L 97.502481 362.866106 
L 93.54215 290.590061 
L 93.54215 290.590061 
L 92.634712 274.029321 
L 99.670473 273.6438 
L 99.993293 273.693347 
L 99.917363 273.691512 
L 99.937429 273.689984 
L 100.035873 273.674564 
L 100.198331 273.638342 
L 100.413872 273.578241 
L 100.674286 273.493132 
L 100.97334 273.382868 
L 101.3062 273.247794 
L 101.669016 273.088491 
L 102.058633 272.905655 
L 102.472395 272.700025 
L 102.93102 272.460327 
L 102.885224 272.484809 
L 103.384512 272.211876 
L 103.342576 272.235273 
L 103.856335 271.942802 
L 103.817585 271.965276 
L 104.344742 271.653836 
L 104.308634 271.675539 
L 104.848116 271.345698 
L 104.814204 271.366767 
L 105.364939 271.019092 
L 105.332854 271.039656 
L 105.893769 270.674716 
L 105.863203 270.69489 
L 106.433224 270.313254 
L 106.403917 270.333147 
L 106.981972 269.935382 
L 106.9537 269.955095 
L 107.538716 269.54177 
L 107.511288 269.561399 
L 108.102192 269.133082 
L 108.075439 269.152718 
L 108.671158 268.709978 
L 108.644933 268.72971 
L 109.244395 268.273115 
L 109.218566 268.293028 
L 109.820696 267.823146 
L 109.795145 267.843328 
L 110.398872 267.360727 
L 110.37349 267.381262 
L 110.977741 266.88651 
L 110.952428 266.907487 
L 111.556131 266.401153 
L 111.530796 266.422661 
L 112.132877 265.905313 
L 112.107435 265.927444 
L 112.70682 265.399651 
L 112.681188 265.422504 
L 113.276806 264.884833 
L 113.250908 264.90851 
L 113.841685 264.361531 
L 113.815445 264.386143 
L 114.400309 263.830422 
L 114.373656 263.856087 
L 114.951534 263.292194 
L 114.924399 263.319038 
L 115.494218 262.747541 
L 115.466533 262.775704 
L 116.02722 262.197171 
L 115.998921 262.226804 
L 116.549403 261.641803 
L 116.520428 261.673073 
L 117.059632 261.082173 
L 117.02992 261.115261 
L 117.556774 260.51903 
L 117.526268 260.554139 
L 118.039699 259.953145 
L 118.008349 259.990499 
L 118.507284 259.38531 
L 118.475044 259.425158 
L 118.95841 258.816342 
L 118.925243 258.858959 
L 119.374674 258.269757 
L 119.78905 257.70278 
L 120.183674 257.137488 
L 120.557492 256.57485 
L 120.909482 256.015879 
L 121.238658 255.461635 
L 121.544082 254.913225 
L 121.824882 254.371807 
L 122.08026 253.838585 
L 122.309517 253.314802 
L 122.512074 252.801731 
L 122.687494 252.300651 
L 122.83551 251.812819 
L 122.956045 251.339425 
L 123.049227 250.881529 
L 123.115397 250.439992 
L 123.158662 249.977142 
L 123.190726 249.457759 
L 123.189888 249.471927 
L 123.223045 248.886297 
L 123.222252 248.900991 
L 123.253418 248.293618 
L 123.252679 248.308833 
L 123.281476 247.68041 
L 123.2808 247.696146 
L 123.306851 247.047369 
L 123.306245 247.063627 
L 123.329172 246.395189 
L 123.328647 246.411975 
L 123.34807 245.72457 
L 123.347635 245.74189 
L 123.363178 245.036213 
L 123.362842 245.054076 
L 123.374126 244.330821 
L 123.3739 244.349238 
L 123.380547 243.6091 
L 123.380441 243.628082 
L 123.382074 242.871755 
L 123.382101 242.891316 
L 123.378341 242.119494 
L 123.378512 242.139649 
L 123.368981 241.353027 
L 123.36931 241.373791 
L 123.353631 240.573062 
L 123.354132 240.594453 
L 123.331926 239.780313 
L 123.332614 239.802348 
L 123.303503 238.97549 
L 123.304395 238.998189 
L 123.268001 238.159308 
L 123.269114 238.182691 
L 123.225059 237.332482 
L 123.226412 237.35657 
L 123.174318 236.495725 
L 123.175931 236.52054 
L 123.11542 235.649756 
L 123.117315 235.67532 
L 123.048009 234.79529 
L 123.05021 234.821628 
L 122.971731 233.933047 
L 122.974262 233.960183 
L 122.886232 233.063744 
L 122.88912 233.091703 
L 122.791161 232.188101 
L 122.794436 232.216909 
L 122.68617 231.306839 
L 122.689864 231.336522 
L 122.570913 230.420678 
L 122.575058 230.451262 
L 122.445044 229.530338 
L 122.449677 229.561852 
L 122.308222 228.636543 
L 122.313382 228.669013 
L 122.160108 227.740012 
L 122.165837 227.773467 
L 122.000366 226.841469 
L 122.006709 226.875935 
L 121.828663 225.941635 
L 121.835668 225.977138 
L 121.644669 225.04123 
L 121.652388 225.077798 
L 121.448057 224.140976 
L 121.456544 224.178635 
L 121.238504 223.241593 
L 121.24782 223.280366 
L 121.015692 222.343799 
L 121.025898 222.38371 
L 120.779305 221.448312 
L 120.790469 221.489381 
L 120.529032 220.555846 
L 120.541224 220.598091 
L 120.264566 219.667115 
L 120.277861 219.710552 
L 119.985605 218.782827 
L 120.000082 218.827468 
L 119.691848 217.90369 
L 119.707593 217.949542 
L 119.383003 217.030404 
L 119.400102 217.07747 
L 119.058779 216.163668 
L 119.077324 216.211944 
L 118.71889 215.304171 
L 118.738977 215.353649 
L 118.363053 214.4526 
L 118.384781 214.503261 
L 118.00246 213.63566 
L 117.614802 212.802536 
L 117.21042 211.979321 
L 116.789042 211.166657 
L 116.350394 210.365177 
L 115.894204 209.575499 
L 115.420194 208.798227 
L 114.928085 208.033954 
L 114.417588 207.283253 
L 113.888407 206.546687 
L 113.340236 205.8248 
L 112.772756 205.118122 
L 112.185632 204.427171 
L 111.578512 203.752448 
L 110.951023 203.094444 
L 106.977511 199.166592 
z
" clip-path="url(#p2c03fdfdee)" style="fill: #ffffff; stroke: #14110e; stroke-width: 2.5"/>
   </g>
   <g id="patch_4">
    <path d="M 223.017719 274.029321 
L 229.442861 273.677259 
L 229.355253 273.702974 
L 229.520662 273.641412 
L 229.734608 273.547104 
L 229.989301 273.419436 
L 230.278613 273.258871 
L 230.597709 273.066419 
L 230.942733 272.843352 
L 231.310554 272.59105 
L 231.698578 272.310923 
L 232.125875 271.988322 
L 232.083662 272.020831 
L 232.545648 271.657945 
L 232.508134 271.687938 
L 232.980255 271.30373 
L 232.946674 271.331499 
L 233.428124 270.927002 
L 233.397856 270.952803 
L 233.88783 270.529052 
L 233.860373 270.553115 
L 234.358066 270.11114 
L 234.333006 270.133667 
L 234.837613 269.674504 
L 234.81461 269.695673 
L 235.325325 269.220353 
L 235.304092 269.240322 
L 235.82011 268.749879 
L 235.800408 268.768789 
L 236.320924 268.264255 
L 236.30255 268.282231 
L 236.826758 267.764639 
L 236.809536 267.781793 
L 237.336632 267.252177 
L 237.320412 267.26861 
L 237.84959 266.728002 
L 237.834241 266.743808 
L 238.364696 266.193241 
L 238.350103 266.208502 
L 238.88103 265.64901 
L 238.867093 265.663805 
L 239.397686 265.096421 
L 239.384312 265.110823 
L 239.913766 264.536579 
L 239.900875 264.550657 
L 240.428385 263.970586 
L 240.415902 263.984405 
L 240.940663 263.399541 
L 240.928519 263.413166 
L 241.449724 262.82454 
L 241.437855 262.838033 
L 241.954701 262.24668 
L 241.943045 262.260102 
L 242.454726 261.667055 
L 242.443226 261.68047 
L 242.948936 261.08676 
L 242.937535 261.100232 
L 243.436469 260.506894 
L 243.42511 260.52049 
L 243.916464 259.928557 
L 243.905091 259.942348 
L 244.388059 259.352852 
L 244.376614 259.366914 
L 244.85039 258.780888 
L 244.838814 258.795305 
L 245.302593 258.213782 
L 245.290822 258.228645 
L 245.7438 257.652659 
L 245.731767 257.66807 
L 246.173138 257.098653 
L 246.160769 257.11473 
L 246.589728 256.552915 
L 246.576944 256.569791 
L 246.992684 256.016611 
L 246.979396 256.034441 
L 247.381113 255.490929 
L 247.367218 255.509895 
L 247.754108 254.977085 
L 247.739492 254.997404 
L 248.110748 254.476328 
L 248.095279 254.498263 
L 248.450096 253.989954 
L 248.43362 254.013821 
L 248.771193 253.519312 
L 248.75353 253.545506 
L 249.073054 253.06583 
L 249.05399 253.094839 
L 249.35466 252.631029 
L 249.333943 252.663477 
L 249.614953 252.216567 
L 249.592279 252.253254 
L 249.852824 251.824276 
L 249.827832 251.866251 
L 250.052989 251.480428 
L 250.240722 251.143325 
L 250.401966 250.837145 
L 250.53527 250.566119 
L 250.639162 250.335913 
L 250.71233 250.154457 
L 250.754127 250.033347 
L 250.76592 249.990174 
L 250.754688 250.052067 
L 250.750186 250.12687 
L 250.748459 249.994462 
L 250.748321 249.981564 
L 250.746106 249.718046 
L 250.746057 249.711149 
L 250.744324 249.418805 
L 250.74431 249.416261 
L 250.742703 249.095563 
L 250.742707 249.0963 
L 250.740868 248.74772 
L 250.740887 248.75101 
L 250.738458 248.375022 
L 250.738498 248.380356 
L 250.735123 247.97743 
L 250.73519 247.984441 
L 250.730512 247.555051 
L 250.730616 247.563467 
L 250.724276 247.108086 
L 250.724427 247.117703 
L 250.716069 246.636802 
L 250.716275 246.647466 
L 250.705541 246.141517 
L 250.705811 246.153105 
L 250.692345 245.622582 
L 250.692688 245.635 
L 250.676133 245.080374 
L 250.676557 245.093546 
L 250.656554 244.51529 
L 250.657068 244.529156 
L 250.633261 243.927742 
L 250.633873 243.942253 
L 250.605904 243.318154 
L 250.606623 243.333271 
L 250.574135 242.686959 
L 250.574968 242.70265 
L 250.537605 242.034598 
L 250.53856 242.050835 
L 250.495963 241.361515 
L 250.49705 241.378279 
L 250.448862 240.668162 
L 250.450089 240.685434 
L 250.395953 239.954995 
L 250.397327 239.972761 
L 250.336887 239.22247 
L 250.338417 239.240718 
L 250.271315 238.471048 
L 250.273011 238.489769 
L 250.198889 237.701193 
L 250.200759 237.720378 
L 250.11926 236.913368 
L 250.121314 236.933011 
L 250.032082 236.10804 
L 250.034329 236.128137 
L 249.937006 235.285676 
L 249.939457 235.306222 
L 249.833685 234.446745 
L 249.836349 234.467737 
L 249.721771 233.591715 
L 249.72466 233.613151 
L 249.600919 232.721057 
L 249.604042 232.742934 
L 249.470782 231.835241 
L 249.474151 231.857559 
L 249.331013 230.934738 
L 249.334639 230.957495 
L 249.181267 230.02002 
L 249.185162 230.043215 
L 249.021198 229.091557 
L 249.025375 229.11519 
L 248.850461 228.149822 
L 248.854932 228.173892 
L 248.668712 227.195287 
L 248.67349 227.219793 
L 248.475607 226.228422 
L 248.480704 226.253365 
L 248.270801 225.249701 
L 248.276232 225.275079 
L 248.05395 224.259594 
L 248.059729 224.285407 
L 247.824712 223.258574 
L 247.830853 223.284819 
L 247.582744 222.24711 
L 247.589261 222.273787 
L 247.327702 221.225675 
L 247.334612 221.252782 
L 247.059246 220.194738 
L 247.066563 220.222272 
L 246.777033 219.15477 
L 246.784772 219.182729 
L 246.480721 218.10624 
L 246.4889 218.13462 
L 246.16997 217.049618 
L 246.178604 217.078415 
L 245.844438 215.985371 
L 245.853544 216.01458 
L 245.503786 214.913967 
L 245.51338 214.943584 
L 245.147671 213.835874 
L 245.157771 213.865891 
L 244.775755 212.751557 
L 244.786378 212.781969 
L 244.387697 211.661482 
L 244.398859 211.69228 
L 243.983156 210.566114 
L 243.994877 210.597289 
L 243.561794 209.465915 
L 243.574089 209.497458 
L 243.12327 208.36135 
L 243.136157 208.393249 
L 242.667245 207.252878 
L 242.680741 207.285122 
L 242.193377 206.140961 
L 242.207499 206.173537 
L 241.701328 205.026058 
L 241.716093 205.058951 
L 241.190756 203.908627 
L 241.20618 203.941822 
L 240.661321 202.789125 
L 240.677421 202.822605 
L 238.687132 198.7535 
L 297.108099 180.561869 
L 297.793825 183.535659 
L 297.763891 183.450468 
L 297.736836 183.393289 
L 297.72053 183.365926 
L 297.721429 183.367175 
L 297.744108 183.394026 
L 297.79134 183.442689 
L 297.864437 183.509281 
L 297.963653 183.590209 
L 298.088529 183.682338 
L 298.238171 183.783026 
L 298.411431 183.890095 
L 298.607038 184.001769 
L 298.823674 184.116613 
L 299.060022 184.233469 
L 299.314793 184.351401 
L 299.586738 184.469658 
L 299.899799 184.597931 
L 299.849313 184.577819 
L 300.200685 184.713837 
L 300.153932 184.69622 
L 300.515461 184.828756 
L 300.472069 184.813255 
L 300.84304 184.942325 
L 300.802677 184.928627 
L 301.182376 185.054248 
L 301.144746 185.042094 
L 301.53246 185.16428 
L 301.497299 185.153455 
L 301.892314 185.272224 
L 301.859387 185.262545 
L 302.260988 185.377912 
L 302.230086 185.369228 
L 302.637559 185.48121 
L 302.608494 185.473391 
L 303.021125 185.582004 
L 302.993729 185.574942 
L 303.410805 185.680202 
L 303.384927 185.673803 
L 303.805733 185.775726 
L 303.781238 185.769911 
L 304.20506 185.868513 
L 304.181824 185.863212 
L 304.607949 185.958511 
L 304.585861 185.953665 
L 305.013574 186.045675 
L 304.992532 186.041234 
L 305.421119 186.129972 
L 305.401031 186.12589 
L 305.829778 186.211372 
L 305.810559 186.20761 
L 306.238752 186.289853 
L 306.220322 186.286377 
L 306.647247 186.365396 
L 306.629532 186.362176 
L 307.054476 186.437987 
L 307.037408 186.434997 
L 307.459656 186.507617 
L 307.443169 186.504832 
L 307.862007 186.574277 
L 307.846039 186.571677 
L 308.260753 186.637962 
L 308.245244 186.635528 
L 308.65512 186.698671 
L 308.640011 186.696386 
L 309.044335 186.756401 
L 309.029566 186.75425 
L 309.427624 186.811155 
L 309.413137 186.809123 
L 309.804215 186.862934 
L 309.78995 186.861008 
L 310.173334 186.911741 
L 310.159226 186.909911 
L 310.534202 186.957581 
L 310.520184 186.955835 
L 310.886037 187.00046 
L 310.872035 186.998788 
L 311.228053 187.040383 
L 311.213985 187.038775 
L 311.559452 187.077356 
L 311.545225 187.075805 
L 311.879428 187.111388 
L 311.864932 187.109883 
L 312.187156 187.142485 
L 312.172263 187.141019 
L 312.481796 187.170656 
L 312.466348 187.169221 
L 312.762474 187.195909 
L 312.746278 187.194497 
L 313.028284 187.218252 
L 313.011093 187.216857 
L 313.278264 187.237696 
L 313.259755 187.236314 
L 313.511378 187.254252 
L 313.491124 187.252883 
L 313.726485 187.267936 
L 313.703897 187.266584 
L 313.922281 187.278769 
L 313.896527 187.277452 
L 314.09722 187.286785 
L 314.067075 187.285547 
L 314.199825 187.290278 
L 326.074826 187.290278 
L 326.074826 453.208243 
L 215.566106 453.208243 
L 227.885488 362.866106 
L 223.925157 290.590061 
L 223.925157 290.590061 
z
" clip-path="url(#p2c03fdfdee)" style="fill: #ffffff; stroke: #14110e; stroke-width: 2.5"/>
   </g>
   <g id="patch_5">
    <path d="M 377.159285 453.208243 
L 345.949114 259.753313 
L 352.620114 258.677078 
L 352.587478 258.682542 
L 353.355759 258.549202 
L 354.009287 258.379834 
L 354.668655 258.153132 
L 355.336754 257.867728 
L 356.015148 257.522471 
L 356.704365 257.11673 
L 357.404238 256.650516 
L 358.114207 256.124493 
L 358.833553 255.539901 
L 359.561561 254.898453 
L 360.297613 254.202228 
L 361.041247 253.45357 
L 361.792174 252.65501 
L 362.550274 251.809201 
L 363.331768 250.900057 
L 363.299758 250.937975 
L 364.101802 249.970544 
L 364.075098 250.003257 
L 364.879887 249.001967 
L 364.857874 249.029715 
L 365.666404 247.997124 
L 365.648573 248.020143 
L 366.46184 246.958807 
L 366.447772 246.977325 
L 367.266771 245.889799 
L 367.256126 245.904029 
L 368.081853 244.792871 
L 368.074355 244.803009 
L 368.907807 243.670774 
L 368.903239 243.676997 
L 369.745411 242.526242 
L 369.743607 242.52871 
L 370.595496 241.361991 
L 370.596332 241.360846 
L 371.458933 240.18072 
L 371.462326 240.176088 
L 372.336634 238.985111 
L 372.342534 238.977104 
L 373.229546 237.777832 
L 373.237935 237.766549 
L 374.138647 236.561539 
L 374.149537 236.547069 
L 375.064944 235.338877 
L 375.078371 235.3213 
L 376.009471 234.112483 
L 376.025498 234.091875 
L 376.973285 232.884988 
L 376.992 232.86142 
L 377.95747 231.659019 
L 377.978982 231.632563 
L 378.963131 230.437206 
L 378.987569 230.407934 
L 379.991394 229.222177 
L 380.018909 229.190171 
L 381.043404 228.01657 
L 381.074165 227.98192 
L 382.120327 226.823031 
L 382.154519 226.78584 
L 383.223344 225.64422 
L 383.261167 225.60461 
L 384.374261 224.461653 
L 385.535067 223.319266 
L 386.725694 222.199812 
L 387.94736 221.106071 
L 389.201274 220.040858 
L 390.48863 219.007035 
L 391.8106 218.007504 
L 393.16832 217.045218 
L 394.562882 216.123174 
L 395.995317 215.24441 
L 397.466588 214.412004 
L 398.977579 213.629059 
L 400.529081 212.898696 
L 402.121791 212.224036 
L 403.756305 211.608182 
L 405.433125 211.054203 
L 407.152663 210.565114 
L 408.915256 210.143856 
L 410.721179 209.793283 
L 412.570674 209.516151 
L 414.463966 209.315111 
L 416.401292 209.192709 
L 418.385775 209.151332 
L 420.154511 209.19173 
L 421.878723 209.311819 
L 423.556483 209.509443 
L 425.188223 209.782342 
L 426.774302 210.128075 
L 428.315059 210.544005 
L 429.810865 211.027303 
L 431.262172 211.574965 
L 432.66956 212.183839 
L 434.033767 212.850661 
L 435.355713 213.572102 
L 436.636501 214.344805 
L 437.877418 215.165427 
L 439.079915 216.030671 
L 440.245582 216.93731 
L 441.376128 217.882203 
L 442.47335 218.862301 
L 443.539105 219.87465 
L 444.575292 220.916387 
L 445.58383 221.984731 
L 446.566641 223.076978 
L 447.507848 224.169829 
L 447.543016 224.211482 
L 448.447182 225.303896 
L 448.477911 225.341692 
L 449.366308 226.454142 
L 449.392906 226.487982 
L 450.267082 227.618042 
L 450.289824 227.647853 
L 451.15133 228.793095 
L 451.170456 228.818828 
L 452.020841 229.976826 
L 452.03656 229.998447 
L 452.877372 231.166773 
L 452.889853 231.184258 
L 453.722642 232.360485 
L 453.732022 232.373815 
L 454.558337 233.555515 
L 454.564713 233.564673 
L 455.386103 234.74942 
L 455.38954 234.754389 
L 456.207554 235.939755 
L 456.208078 235.940515 
L 457.024265 237.124073 
L 457.021866 237.1206 
L 457.837776 238.299923 
L 457.832406 238.29219 
L 458.649587 239.464851 
L 458.641162 239.452828 
L 459.461163 240.6164 
L 459.449557 240.600056 
L 460.273928 241.752111 
L 460.258975 241.731415 
L 461.089265 242.869526 
L 461.070756 242.844452 
L 461.908514 243.966192 
L 461.886199 243.936723 
L 462.732973 245.039665 
L 462.706555 245.005799 
L 463.563896 246.087515 
L 463.533033 246.049274 
L 464.402489 247.107338 
L 464.366796 247.064776 
L 465.229703 248.07314 
L 466.084282 249.027741 
L 466.949662 249.947447 
L 467.826892 250.830104 
L 468.717014 251.673655 
L 469.621085 252.476158 
L 470.540203 253.235797 
L 471.475541 253.950895 
L 472.428388 254.619911 
L 473.400191 255.241437 
L 474.392601 255.814172 
L 475.407506 256.336887 
L 476.447063 256.808374 
L 477.513703 257.227382 
L 478.610122 257.592549 
L 479.739242 257.902332 
L 480.904147 258.154952 
L 482.182024 258.360246 
L 482.183842 258.360538 
L 490.816901 259.753313 
L 459.60673 453.208243 
z
" clip-path="url(#p2c03fdfdee)" style="fill: #ffffff; stroke: #14110e; stroke-width: 2.5"/>
   </g>
   <g id="line2d_1">
    <path d="M 164.687931 184.110392 
L 164.874519 186.12393 
L 165.280356 188.119199 
L 165.887593 190.086584 
L 166.67838 192.016466 
L 167.987437 194.514685 
L 169.548769 196.906341 
L 171.320069 199.16864 
L 173.259027 201.278785 
L 175.323338 203.213982 
L 177.470693 204.951434 
L 179.658785 206.468346 
L 181.845306 207.741923 
L 183.987949 208.749369 
L 186.044406 209.467889 
L 187.97237 209.874686 
L 189.308568 209.961504 
L 189.729533 209.946966 
L 195.691819 209.946966 
L 195.691819 450.425842 
L 88.370667 450.425842 
L 100.29524 362.978978 
L 95.565176 276.655322 
L 101.220109 276.241974 
L 102.819508 275.622131 
L 104.719106 274.653312 
L 107.411154 273.006945 
L 110.330867 270.943164 
L 113.344141 268.533 
L 116.316866 265.84749 
L 118.575732 263.548566 
L 120.654156 261.155251 
L 122.483475 258.703915 
L 123.995026 256.230925 
L 124.878849 254.383853 
L 125.516338 252.560402 
L 125.878526 250.775916 
L 126.06096 247.80778 
L 126.164468 242.877762 
L 126.047786 238.03871 
L 125.743342 233.688261 
L 125.200124 229.141383 
L 124.561876 225.420775 
L 123.716378 221.674436 
L 122.639435 217.946803 
L 121.306853 214.282313 
L 120.125101 211.602114 
L 118.775736 209.001176 
L 117.248553 206.498245 
L 115.533345 204.112068 
L 113.619905 201.861393 
L 112.229109 200.445478 
L 164.687931 184.110392 
L 164.687931 184.110392 
" clip-path="url(#p2c03fdfdee)" style="fill: none; stroke-dasharray: 7.5,6; stroke-dashoffset: 0; stroke: #a8321f; stroke-width: 1.5"/>
   </g>
   <g id="patch_6">
    <path d="M 142.031243 388.440885 
Q 142.031243 317.268204 142.031243 246.095524 
" style="fill: none; stroke: #14110e; stroke-width: 1.25; stroke-linecap: round"/>
    <path d="M 144.531243 383.440885 
L 142.031243 388.440885 
L 139.531243 383.440885 
z
" style="fill: #14110e; stroke: #14110e; stroke-width: 1.25; stroke-linecap: round"/>
    <path d="M 139.531243 251.095524 
L 142.031243 246.095524 
L 144.531243 251.095524 
z
" style="fill: #14110e; stroke: #14110e; stroke-width: 1.25; stroke-linecap: round"/>
   </g>
   <g id="line2d_2">
    <path d="M 225.948184 276.655322 
L 230.233439 276.34499 
L 231.288393 275.880641 
L 232.912041 274.866596 
L 234.736495 273.461825 
L 237.220934 271.257119 
L 240.368406 268.123758 
L 243.532856 264.669077 
L 247.014126 260.530173 
L 250.005559 256.61193 
L 251.970409 253.697639 
L 253.05238 251.752727 
L 253.481947 250.606346 
L 253.530623 249.958178 
L 253.385515 243.193586 
L 253.0432 238.229385 
L 252.480673 233.230869 
L 251.763197 228.619129 
L 250.771996 223.664635 
L 249.462415 218.426436 
L 248.15551 214.071288 
L 246.593401 209.602591 
L 244.753224 205.050577 
L 242.612116 200.445478 
L 295.070938 184.110392 
L 295.278615 184.703469 
L 295.680521 185.26288 
L 296.485209 185.957146 
L 297.555221 186.59337 
L 299.196233 187.308606 
L 301.49276 188.052155 
L 304.428407 188.765846 
L 308.231481 189.448631 
L 312.216599 189.940389 
L 314.150254 190.072679 
L 326.074826 190.072679 
L 326.074826 450.425842 
L 218.753675 450.425842 
L 230.678247 362.978978 
L 225.948184 276.655322 
L 225.948184 276.655322 
" clip-path="url(#p2c03fdfdee)" style="fill: none; stroke-dasharray: 7.5,6; stroke-dashoffset: 0; stroke: #a8321f; stroke-width: 1.5"/>
   </g>
   <g id="patch_7">
    <path d="M 272.414251 388.440885 
Q 272.414251 317.268204 272.414251 246.095524 
" style="fill: none; stroke: #14110e; stroke-width: 1.25; stroke-linecap: round"/>
    <path d="M 274.914251 383.440885 
L 272.414251 388.440885 
L 269.914251 383.440885 
z
" style="fill: #14110e; stroke: #14110e; stroke-width: 1.25; stroke-linecap: round"/>
    <path d="M 269.914251 251.095524 
L 272.414251 246.095524 
L 274.914251 251.095524 
z
" style="fill: #14110e; stroke: #14110e; stroke-width: 1.25; stroke-linecap: round"/>
   </g>
   <g id="line2d_3">
    <path d="M 379.528776 450.425842 
L 349.139152 262.05704 
L 353.06327 261.423961 
L 353.94365 261.271165 
L 354.811836 261.046165 
L 355.668825 260.751519 
L 356.515611 260.389781 
L 357.353192 259.96351 
L 358.182563 259.47526 
L 359.004719 258.927588 
L 359.820657 258.323052 
L 360.631373 257.664206 
L 361.437862 256.953607 
L 362.24112 256.193813 
L 363.042144 255.387378 
L 363.84193 254.53686 
L 364.641472 253.644814 
L 365.441767 252.713798 
L 366.243812 251.746367 
L 367.048601 250.745077 
L 367.85713 249.712486 
L 368.670397 248.65115 
L 369.489396 247.563624 
L 370.315124 246.452466 
L 371.148575 245.320231 
L 371.990747 244.169476 
L 372.842636 243.002757 
L 373.705236 241.822631 
L 374.579544 240.631654 
L 375.466556 239.432382 
L 376.367268 238.227371 
L 377.282676 237.019179 
L 378.213775 235.810361 
L 379.161562 234.603474 
L 380.127032 233.401074 
L 381.111181 232.205717 
L 382.115006 231.01996 
L 383.139501 229.846359 
L 384.185664 228.687471 
L 385.254489 227.545851 
L 386.346973 226.424057 
L 387.464112 225.324644 
L 388.606902 224.250169 
L 389.776338 223.203188 
L 390.973416 222.186257 
L 392.199133 221.201934 
L 393.454484 220.252774 
L 394.740465 219.341333 
L 396.058072 218.470169 
L 397.408301 217.641836 
L 398.792148 216.858893 
L 400.210608 216.123894 
L 401.664678 215.439396 
L 403.155354 214.807957 
L 404.683631 214.232131 
L 406.250506 213.714476 
L 407.856973 213.257548 
L 409.50403 212.863902 
L 411.192672 212.536097 
L 412.923895 212.276686 
L 414.698694 212.088229 
L 416.518067 211.973279 
L 418.383008 211.934395 
L 420.026013 211.971921 
L 421.619169 212.082882 
L 423.164025 212.264852 
L 424.66213 212.515401 
L 426.115032 212.832104 
L 427.524282 213.212533 
L 428.891428 213.654261 
L 430.21802 214.15486 
L 431.505606 214.711905 
L 432.755735 215.322966 
L 433.969957 215.985618 
L 435.149821 216.697433 
L 436.296876 217.455983 
L 437.412671 218.258843 
L 438.498756 219.103583 
L 439.556678 219.987778 
L 440.587988 220.909 
L 441.594234 221.864822 
L 442.576966 222.852817 
L 443.537732 223.870557 
L 444.478083 224.915616 
L 445.399566 225.985566 
L 446.303731 227.077979 
L 447.192128 228.19043 
L 448.066305 229.32049 
L 448.927811 230.465733 
L 449.778196 231.62373 
L 450.619008 232.792056 
L 451.451797 233.968283 
L 452.278112 235.149983 
L 453.099502 236.33473 
L 453.917516 237.520096 
L 454.733704 238.703655 
L 455.549613 239.882978 
L 456.366794 241.055639 
L 457.186795 242.219211 
L 458.011167 243.371266 
L 458.841456 244.509377 
L 459.679214 245.631117 
L 460.525989 246.734059 
L 461.38333 247.815776 
L 462.252786 248.87384 
L 463.135906 249.905824 
L 464.03424 250.909302 
L 464.949336 251.881845 
L 465.882745 252.821028 
L 466.836013 253.724421 
L 467.810692 254.589599 
L 468.80833 255.414135 
L 469.830476 256.1956 
L 470.878679 256.931568 
L 471.954488 257.619612 
L 473.059453 258.257304 
L 474.195123 258.842217 
L 475.363046 259.371924 
L 476.564772 259.843999 
L 477.80185 260.256013 
L 479.075829 260.605539 
L 480.388258 260.890151 
L 481.740686 261.107421 
L 487.626863 262.05704 
L 457.237239 450.425842 
L 379.528776 450.425842 
" clip-path="url(#p2c03fdfdee)" style="fill: none; stroke-dasharray: 7.5,6; stroke-dashoffset: 0; stroke: #a8321f; stroke-width: 1.5"/>
   </g>
   <g id="patch_8">
    <path d="M 418.383008 394.558973 
Q 418.383008 331.181184 418.383008 267.803396 
" style="fill: none; stroke: #14110e; stroke-width: 1.25; stroke-linecap: round"/>
    <path d="M 420.883008 389.558973 
L 418.383008 394.558973 
L 415.883008 389.558973 
z
" style="fill: #14110e; stroke: #14110e; stroke-width: 1.25; stroke-linecap: round"/>
    <path d="M 415.883008 272.803396 
L 418.383008 267.803396 
L 420.883008 272.803396 
z
" style="fill: #14110e; stroke: #14110e; stroke-width: 1.25; stroke-linecap: round"/>
   </g>
   <g id="text_1">
    <!-- Devant -->
    <g style="fill: #14110e" transform="translate(118.958426 487.417727) scale(0.148387 -0.148387)">
     <defs>
      <path id="SortsMillGoudy-Italic-27" d="M 1907 0 
L 915 19 
Q 691 19 496 -6 
Q 301 -32 256 -32 
Q 211 -32 169 3 
Q 128 38 128 86 
Q 128 134 179 156 
Q 230 179 297 188 
Q 365 198 441 265 
Q 518 333 556 461 
Q 595 589 621 742 
L 1056 3942 
Q 1069 4045 1069 4058 
Q 1069 4154 979 4234 
Q 890 4314 781 4320 
Q 486 4339 486 4457 
Q 486 4576 685 4576 
Q 794 4576 982 4541 
Q 1171 4506 1331 4506 
Q 1491 4506 1776 4538 
Q 2061 4570 2330 4570 
Q 3546 4570 4118 4061 
Q 4691 3552 4691 2755 
Q 4691 1958 4192 1190 
Q 4051 966 3785 713 
Q 3520 461 3354 365 
Q 2752 0 1907 0 
z
M 1309 2105 
Q 1101 467 1101 403 
Q 1101 339 1165 278 
Q 1229 218 1408 218 
L 1971 218 
Q 2253 218 2637 352 
Q 3315 595 3712 1267 
Q 3981 1722 4070 2387 
Q 4102 2592 4102 2777 
Q 4102 2963 4057 3158 
Q 4013 3354 3885 3568 
Q 3757 3782 3558 3939 
Q 3360 4096 3024 4198 
Q 2688 4301 2275 4301 
Q 1862 4301 1747 4249 
Q 1632 4198 1562 3949 
Q 1517 3744 1309 2105 
z
" transform="scale(0.015625)"/>
      <path id="SortsMillGoudy-Italic-48" d="M 1216 -77 
Q 646 -77 425 192 
Q 205 461 205 902 
Q 205 1344 397 1741 
Q 589 2138 937 2464 
Q 1286 2790 1818 2790 
Q 2048 2790 2211 2656 
Q 2374 2522 2374 2339 
Q 2374 2157 2297 2013 
Q 2221 1869 2106 1773 
Q 1901 1600 1754 1542 
Q 1382 1376 749 1370 
Q 640 1370 640 1053 
Q 640 736 870 521 
Q 1101 307 1562 307 
Q 1830 307 2138 512 
Q 2234 582 2253 582 
Q 2330 582 2330 518 
Q 2330 384 1962 153 
Q 1594 -77 1216 -77 
z
M 1069 2298 
Q 941 2163 835 1926 
Q 730 1690 730 1584 
Q 730 1478 787 1478 
Q 1242 1478 1587 1734 
Q 1933 1990 1933 2298 
Q 1933 2458 1821 2528 
Q 1709 2598 1594 2598 
Q 1357 2598 1069 2298 
z
" transform="scale(0.015625)"/>
      <path id="SortsMillGoudy-Italic-59" d="M 64 1619 
Q 64 2074 342 2413 
Q 621 2752 851 2752 
Q 992 2752 1065 2598 
Q 1139 2445 1139 2262 
Q 1139 2080 1075 1597 
Q 1011 1114 1011 736 
Q 1011 582 1104 464 
Q 1197 346 1331 346 
Q 1670 346 1987 922 
Q 2304 1498 2304 2061 
Q 2304 2176 2237 2326 
Q 2170 2477 2170 2557 
Q 2170 2637 2256 2697 
Q 2342 2758 2400 2758 
Q 2605 2758 2605 2413 
Q 2605 2189 2499 1747 
Q 2394 1306 2259 1050 
Q 1933 416 1552 166 
Q 1171 -83 1043 -83 
Q 627 -83 627 909 
Q 627 947 537 963 
Q 448 979 345 1001 
Q 243 1024 153 1181 
Q 64 1338 64 1619 
z
M 640 2246 
Q 550 2246 390 2000 
Q 230 1754 230 1568 
Q 230 1382 301 1280 
Q 403 1126 492 1126 
Q 582 1126 602 1158 
Q 640 1222 640 1331 
Q 730 1997 730 2121 
Q 730 2246 640 2246 
z
" transform="scale(0.015625)"/>
      <path id="SortsMillGoudy-Italic-44" d="M 851 -96 
Q 480 -96 342 125 
Q 205 346 205 771 
Q 205 1197 576 1785 
Q 947 2374 1427 2605 
Q 1664 2720 1827 2720 
Q 1990 2720 2160 2685 
Q 2330 2650 2416 2650 
Q 2502 2650 2604 2806 
Q 2707 2963 2774 2963 
Q 2842 2963 2842 2886 
Q 2842 2810 2787 2656 
Q 2733 2502 2720 2451 
Q 2707 2400 2579 1686 
Q 2451 973 2451 813 
Q 2451 653 2515 531 
Q 2579 410 2681 410 
Q 2784 410 2934 618 
Q 3085 826 3139 826 
Q 3194 826 3194 733 
Q 3194 640 3069 461 
Q 2944 282 2761 118 
Q 2579 -45 2428 -45 
Q 2278 -45 2188 134 
Q 2099 314 2083 493 
Q 2067 672 2060 672 
Q 2054 672 1987 592 
Q 1920 512 1808 400 
Q 1696 288 1562 179 
Q 1222 -96 851 -96 
z
M 685 1114 
Q 653 922 653 730 
Q 653 538 797 397 
Q 941 256 1193 256 
Q 1446 256 1667 457 
Q 1888 659 1965 812 
Q 2042 966 2125 1344 
Q 2298 2176 2298 2313 
Q 2298 2451 2157 2505 
Q 2016 2560 1843 2560 
Q 1670 2560 1446 2419 
Q 1222 2278 1082 2042 
Q 749 1491 685 1114 
z
" transform="scale(0.015625)"/>
      <path id="SortsMillGoudy-Italic-51" d="M 621 2291 
Q 512 2291 393 2112 
Q 275 1933 214 1933 
Q 154 1933 154 2089 
Q 154 2246 378 2515 
Q 602 2784 774 2784 
Q 947 2784 1004 2614 
Q 1062 2445 1062 2278 
Q 1062 2112 1075 2112 
Q 1088 2112 1114 2150 
Q 1242 2317 1395 2432 
Q 1862 2797 2176 2797 
Q 2714 2797 2714 1997 
Q 2714 1741 2659 1235 
Q 2605 730 2605 653 
Q 2605 422 2726 422 
Q 2842 422 2982 563 
Q 3002 582 3030 627 
Q 3059 672 3072 691 
Q 3123 736 3180 736 
Q 3238 736 3238 659 
Q 3238 474 2921 218 
Q 2605 -38 2394 -38 
Q 2298 -38 2227 80 
Q 2157 198 2157 419 
Q 2157 640 2224 1248 
Q 2291 1856 2291 1945 
Q 2291 2035 2272 2134 
Q 2253 2234 2141 2352 
Q 2029 2470 1827 2470 
Q 1626 2470 1427 2189 
Q 1338 2061 1299 2003 
Q 1261 1946 1229 1846 
Q 1197 1747 1190 1690 
Q 1139 1402 1078 1066 
Q 1018 730 989 541 
Q 960 352 957 297 
Q 954 243 950 208 
Q 947 173 941 115 
Q 928 -13 749 -13 
Q 570 -13 528 19 
Q 486 51 486 172 
Q 486 294 627 979 
Q 768 1664 768 1878 
Q 768 2093 720 2192 
Q 672 2291 621 2291 
z
" transform="scale(0.015625)"/>
      <path id="SortsMillGoudy-Italic-57" d="M 1638 2362 
L 1120 2394 
Q 1037 2394 1011 2368 
Q 986 2342 973 2326 
Q 960 2310 953 2272 
Q 947 2234 940 2208 
Q 934 2182 928 2118 
Q 922 2054 909 1958 
Q 896 1862 845 1536 
Q 710 749 710 640 
Q 710 531 777 444 
Q 845 358 889 345 
Q 934 333 1030 333 
Q 1126 333 1254 403 
Q 1382 474 1459 544 
Q 1536 614 1574 614 
Q 1645 614 1645 525 
Q 1645 384 1312 153 
Q 979 -77 704 -77 
Q 538 -77 416 57 
Q 294 192 294 531 
Q 294 870 428 1580 
Q 563 2291 563 2323 
Q 563 2387 374 2393 
Q 186 2400 186 2496 
Q 186 2547 253 2588 
Q 320 2630 457 2710 
Q 595 2790 691 2892 
Q 787 2995 857 3078 
Q 928 3162 960 3194 
Q 1018 3264 1082 3264 
Q 1146 3264 1146 3187 
Q 1146 3149 1088 2953 
Q 1030 2758 1030 2716 
Q 1030 2675 1065 2668 
Q 1101 2662 1254 2662 
L 1626 2669 
Q 1792 2669 1792 2553 
Q 1792 2438 1760 2400 
Q 1728 2362 1638 2362 
z
" transform="scale(0.015625)"/>
     </defs>
     <use xlink:href="#SortsMillGoudy-Italic-27"/>
     <use xlink:href="#SortsMillGoudy-Italic-48" transform="translate(73.296875 0)"/>
     <use xlink:href="#SortsMillGoudy-Italic-59" transform="translate(113.5 0)"/>
     <use xlink:href="#SortsMillGoudy-Italic-44" transform="translate(156.203125 0)"/>
     <use xlink:href="#SortsMillGoudy-Italic-51" transform="translate(207 0)"/>
     <use xlink:href="#SortsMillGoudy-Italic-57" transform="translate(259.59375 0)"/>
    </g>
    <!-- au pli -->
    <g style="fill: #14110e" transform="translate(123.782166 509.784809) scale(0.148387 -0.148387)">
     <defs>
      <path id="SortsMillGoudy-Italic-58" d="M 128 1882 
Q 128 2125 342 2432 
Q 557 2739 851 2739 
Q 954 2739 1011 2630 
Q 1094 2490 1094 2237 
Q 1094 1984 976 1360 
Q 858 736 858 582 
Q 858 429 896 381 
Q 934 333 969 333 
Q 1005 333 1040 342 
Q 1075 352 1113 374 
Q 1152 397 1184 422 
Q 1216 448 1264 493 
Q 1312 538 1341 570 
Q 1370 602 1424 662 
Q 1478 723 1510 762 
Q 1606 877 1702 992 
Q 2157 1542 2445 2650 
Q 2470 2752 2656 2752 
Q 2842 2752 2842 2611 
Q 2842 2547 2646 1644 
Q 2451 742 2451 576 
Q 2451 410 2592 410 
Q 2861 410 3034 768 
Q 3091 883 3142 883 
Q 3232 883 3232 729 
Q 3232 576 2931 259 
Q 2630 -58 2234 -58 
Q 2042 -58 2042 288 
Q 2042 608 2099 928 
Q 2157 1248 2157 1289 
Q 2157 1331 2134 1331 
Q 2112 1331 2086 1289 
Q 2061 1248 2003 1142 
Q 1946 1037 1862 922 
Q 1165 -70 634 -70 
Q 416 -70 416 326 
Q 416 723 560 1344 
Q 704 1965 704 2112 
Q 704 2259 576 2259 
Q 531 2259 441 2147 
Q 352 2035 301 1916 
Q 250 1798 189 1798 
Q 128 1798 128 1882 
z
" transform="scale(0.015625)"/>
      <path id="SortsMillGoudy-Italic-3" transform="scale(0.015625)"/>
      <path id="SortsMillGoudy-Italic-53" d="M 531 -1248 
L 186 -1254 
L 128 -1254 
Q 19 -1254 19 -1168 
Q 19 -1082 150 -1024 
Q 282 -966 298 -921 
Q 314 -877 499 576 
Q 685 2029 755 2368 
L 755 2381 
Q 755 2413 723 2413 
Q 691 2413 563 2355 
Q 435 2298 397 2298 
Q 314 2298 314 2374 
L 314 2400 
Q 314 2458 358 2483 
Q 435 2515 508 2540 
Q 582 2566 624 2582 
Q 666 2598 701 2604 
Q 736 2611 755 2630 
Q 774 2650 790 2650 
Q 806 2650 812 2682 
Q 819 2714 822 2723 
Q 826 2733 835 2790 
Q 845 2848 857 2915 
Q 870 2982 892 3123 
Q 915 3264 924 3312 
Q 934 3360 960 3430 
Q 992 3526 1094 3580 
Q 1197 3635 1289 3635 
Q 1382 3635 1382 3532 
Q 1382 3430 1296 3142 
Q 1210 2854 1210 2765 
L 1210 2739 
Q 1210 2707 1232 2707 
Q 1254 2707 1318 2714 
Q 1478 2739 1786 2739 
Q 2918 2739 2918 1882 
Q 2918 1350 2669 928 
Q 2618 826 2586 781 
Q 2554 736 2522 681 
Q 2490 627 2467 598 
Q 2445 570 2403 522 
Q 2362 474 2323 435 
Q 1843 0 1267 0 
L 922 26 
Q 864 26 845 -6 
Q 826 -51 806 -240 
Q 787 -429 768 -538 
Q 730 -768 730 -826 
Q 730 -966 864 -1020 
Q 998 -1075 1129 -1094 
Q 1261 -1114 1261 -1171 
Q 1261 -1254 1171 -1254 
L 531 -1248 
z
M 1376 2579 
L 1222 2560 
Q 1171 2560 1114 2067 
L 1030 1357 
Q 902 397 902 349 
Q 902 301 928 269 
Q 954 237 1043 205 
Q 1133 173 1267 173 
Q 1722 173 2086 675 
Q 2451 1178 2451 1645 
Q 2451 1894 2358 2076 
Q 2266 2259 2141 2352 
Q 2016 2445 1850 2496 
Q 1606 2579 1376 2579 
z
" transform="scale(0.015625)"/>
      <path id="SortsMillGoudy-Italic-4f" d="M 672 4512 
L 486 4506 
Q 301 4506 301 4592 
Q 301 4678 397 4685 
Q 653 4704 877 4742 
Q 1101 4781 1171 4781 
Q 1306 4781 1306 4678 
Q 1306 4627 1277 4531 
Q 1248 4435 1193 4137 
Q 1139 3840 1100 3561 
Q 1062 3283 1027 2915 
Q 992 2547 857 1632 
Q 723 717 723 592 
Q 723 467 742 422 
Q 762 378 854 378 
Q 947 378 1043 448 
Q 1139 518 1190 602 
Q 1312 832 1408 832 
Q 1485 832 1485 736 
Q 1485 640 1165 269 
Q 1050 134 880 41 
Q 710 -51 624 -51 
Q 538 -51 499 -38 
Q 461 -26 410 26 
Q 294 122 294 550 
Q 294 826 384 1293 
Q 474 1760 486 1856 
Q 499 1952 547 2387 
Q 595 2822 713 3580 
Q 832 4339 832 4384 
Q 832 4512 672 4512 
z
" transform="scale(0.015625)"/>
      <path id="SortsMillGoudy-Italic-4c" d="M 1082 3456 
Q 1018 3456 912 3597 
Q 806 3738 806 3792 
Q 806 3846 928 3990 
Q 1050 4134 1133 4134 
Q 1216 4134 1296 4012 
Q 1376 3891 1376 3798 
Q 1376 3706 1261 3581 
Q 1146 3456 1082 3456 
z
M 506 2451 
L 218 2458 
Q 128 2458 128 2534 
Q 128 2624 275 2624 
L 339 2624 
Q 454 2624 662 2653 
Q 870 2682 1069 2682 
Q 1158 2682 1158 2611 
Q 1158 2528 1084 2278 
Q 1011 2029 986 1869 
Q 794 659 794 595 
Q 794 531 832 476 
Q 870 422 922 422 
Q 1050 422 1168 588 
Q 1286 755 1318 755 
Q 1382 755 1382 691 
Q 1382 627 1318 499 
Q 1254 371 1197 314 
Q 845 -64 608 -64 
Q 371 -64 371 467 
Q 371 723 515 1436 
Q 659 2150 659 2272 
Q 659 2394 627 2422 
Q 595 2451 506 2451 
z
" transform="scale(0.015625)"/>
     </defs>
     <use xlink:href="#SortsMillGoudy-Italic-44"/>
     <use xlink:href="#SortsMillGoudy-Italic-58" transform="translate(51.296875 0)"/>
     <use xlink:href="#SortsMillGoudy-Italic-3" transform="translate(103.796875 0)"/>
     <use xlink:href="#SortsMillGoudy-Italic-53" transform="translate(125.09375 0)"/>
     <use xlink:href="#SortsMillGoudy-Italic-4f" transform="translate(173.390625 0)"/>
     <use xlink:href="#SortsMillGoudy-Italic-4c" transform="translate(199.484375 0)"/>
    </g>
   </g>
   <g id="text_2">
    <!-- Dos -->
    <g style="fill: #14110e" transform="translate(259.714619 487.439753) scale(0.148387 -0.148387)">
     <defs>
      <path id="SortsMillGoudy-Italic-52" d="M 1197 -64 
Q 762 -64 483 230 
Q 205 525 205 1129 
Q 205 1734 617 2259 
Q 1030 2784 1715 2784 
Q 2170 2784 2410 2461 
Q 2650 2138 2650 1686 
Q 2650 1235 2486 851 
Q 2323 467 1977 201 
Q 1632 -64 1197 -64 
z
M 1622 2592 
Q 1382 2592 1158 2377 
Q 934 2163 816 1753 
Q 698 1344 698 979 
Q 698 614 854 371 
Q 1011 128 1254 128 
Q 1498 128 1686 301 
Q 1875 474 1971 730 
Q 2176 1261 2176 1709 
Q 2176 2157 2019 2374 
Q 1862 2592 1622 2592 
z
" transform="scale(0.015625)"/>
      <path id="SortsMillGoudy-Italic-56" d="M 822 -77 
Q 550 -77 323 22 
Q 96 122 96 349 
Q 96 576 301 576 
Q 410 576 480 505 
Q 550 435 582 355 
Q 614 275 697 204 
Q 781 134 925 134 
Q 1069 134 1184 185 
Q 1299 237 1344 314 
Q 1421 448 1421 550 
Q 1421 653 1395 739 
Q 1370 826 1277 941 
Q 1184 1056 1152 1088 
Q 947 1293 822 1417 
Q 698 1542 637 1619 
Q 576 1696 550 1754 
Q 480 1914 480 2074 
Q 480 2394 726 2595 
Q 973 2797 1350 2797 
Q 1946 2797 1946 2464 
Q 1946 2374 1888 2317 
Q 1811 2246 1699 2246 
Q 1587 2246 1456 2425 
Q 1325 2605 1197 2605 
Q 858 2605 858 2266 
Q 858 2067 1184 1766 
Q 1357 1606 1373 1587 
Q 1389 1568 1481 1469 
Q 1574 1370 1609 1322 
Q 1645 1274 1702 1178 
Q 1805 1018 1805 838 
Q 1805 659 1760 531 
Q 1715 403 1616 259 
Q 1517 115 1305 19 
Q 1094 -77 822 -77 
z
" transform="scale(0.015625)"/>
     </defs>
     <use xlink:href="#SortsMillGoudy-Italic-27"/>
     <use xlink:href="#SortsMillGoudy-Italic-52" transform="translate(73.296875 0)"/>
     <use xlink:href="#SortsMillGoudy-Italic-56" transform="translate(116.390625 0)"/>
    </g>
    <!-- au pli -->
    <g style="fill: #14110e" transform="translate(254.165174 509.784809) scale(0.148387 -0.148387)">
     <use xlink:href="#SortsMillGoudy-Italic-44"/>
     <use xlink:href="#SortsMillGoudy-Italic-58" transform="translate(51.296875 0)"/>
     <use xlink:href="#SortsMillGoudy-Italic-3" transform="translate(103.796875 0)"/>
     <use xlink:href="#SortsMillGoudy-Italic-53" transform="translate(125.09375 0)"/>
     <use xlink:href="#SortsMillGoudy-Italic-4f" transform="translate(173.390625 0)"/>
     <use xlink:href="#SortsMillGoudy-Italic-4c" transform="translate(199.484375 0)"/>
    </g>
   </g>
   <g id="text_3">
    <!-- Manche ×2 -->
    <g style="fill: #14110e" transform="translate(385.710024 487.655378) scale(0.148387 -0.148387)">
     <defs>
      <path id="SortsMillGoudy-Italic-30" d="M 742 6 
L 275 -13 
Q 128 -13 128 64 
L 128 90 
Q 128 115 137 118 
Q 147 122 156 128 
Q 166 134 176 140 
Q 186 147 208 156 
Q 230 166 250 173 
Q 307 192 371 218 
Q 525 275 595 486 
Q 685 749 745 1110 
Q 806 1472 909 1990 
Q 1120 3014 1120 3322 
Q 1120 3322 1114 3597 
Q 1114 3923 922 4192 
Q 845 4294 761 4323 
Q 678 4352 531 4352 
L 435 4352 
Q 339 4352 339 4454 
Q 339 4557 794 4557 
L 832 4557 
L 1242 4563 
Q 1344 4563 1414 4428 
Q 1485 4294 1734 3673 
Q 1984 3053 2291 2368 
Q 2989 806 3043 806 
Q 3098 806 4070 2765 
Q 4077 2778 4262 3139 
Q 4448 3501 4531 3673 
Q 4614 3846 4684 4012 
Q 4755 4179 4787 4259 
Q 4819 4339 4858 4416 
Q 4922 4531 5005 4531 
L 5197 4531 
L 5549 4557 
Q 5702 4557 5702 4467 
Q 5702 4442 5670 4410 
Q 5638 4378 5612 4371 
Q 5587 4365 5513 4355 
Q 5440 4346 5417 4336 
Q 5395 4326 5347 4284 
Q 5299 4243 5274 4166 
Q 5139 3693 5139 2906 
L 5139 2406 
L 5126 1498 
L 5120 1338 
L 5114 678 
Q 5114 410 5184 301 
Q 5254 192 5395 169 
Q 5536 147 5587 141 
Q 5683 128 5683 64 
Q 5683 -26 5504 -26 
L 4838 6 
L 4307 -26 
Q 4173 -26 4173 51 
Q 4173 134 4339 166 
Q 4410 179 4486 243 
Q 4563 307 4595 422 
Q 4691 742 4691 2496 
Q 4691 3232 4653 3232 
Q 4589 3232 4403 2874 
L 3469 1062 
Q 3290 710 3142 406 
Q 2995 102 2963 60 
Q 2931 19 2874 19 
Q 2829 19 2633 448 
Q 2438 877 1955 1974 
Q 1472 3072 1449 3113 
Q 1427 3155 1404 3155 
Q 1382 3155 1350 3046 
Q 1318 2938 1289 2685 
Q 1261 2432 1088 1542 
Q 915 653 915 454 
Q 915 211 1267 173 
Q 1427 154 1449 122 
Q 1472 90 1472 64 
Q 1472 -13 1338 -13 
L 742 6 
z
" transform="scale(0.015625)"/>
      <path id="SortsMillGoudy-Italic-46" d="M 205 954 
Q 205 1638 688 2214 
Q 1171 2790 1830 2790 
Q 2067 2790 2317 2611 
Q 2470 2496 2470 2365 
Q 2470 2234 2406 2157 
Q 2342 2080 2256 2080 
Q 2170 2080 2083 2153 
Q 1997 2227 1933 2310 
Q 1869 2394 1750 2467 
Q 1632 2541 1530 2541 
Q 1312 2541 1062 2317 
Q 877 2150 758 1843 
Q 640 1536 640 1274 
Q 640 294 1395 294 
Q 1626 294 1814 380 
Q 2003 467 2108 553 
Q 2214 640 2253 640 
Q 2336 640 2336 557 
Q 2336 499 2201 355 
Q 2067 211 1779 67 
Q 1491 -77 1171 -77 
Q 205 -77 205 954 
z
" transform="scale(0.015625)"/>
      <path id="SortsMillGoudy-Italic-4b" d="M 646 4512 
L 384 4506 
Q 301 4506 301 4579 
Q 301 4653 573 4675 
Q 845 4698 1017 4739 
Q 1190 4781 1235 4781 
Q 1312 4781 1312 4698 
Q 1312 4685 1120 3638 
Q 928 2592 928 2246 
Q 928 2176 950 2176 
Q 973 2176 1056 2262 
Q 1139 2349 1244 2448 
Q 1350 2547 1526 2633 
Q 1702 2720 1882 2720 
Q 2451 2720 2451 1997 
Q 2451 1805 2374 1325 
Q 2298 845 2298 704 
Q 2298 410 2451 410 
Q 2534 410 2656 483 
Q 2778 557 2832 624 
Q 2886 691 2924 739 
Q 2963 787 2982 787 
Q 3046 787 3046 736 
Q 3046 518 2739 249 
Q 2432 -19 2214 -19 
Q 1901 -19 1901 576 
Q 1901 774 1958 1232 
Q 2016 1690 2016 1882 
Q 2016 2381 1651 2381 
Q 1434 2381 1216 2253 
Q 896 2061 794 1446 
Q 755 1210 707 787 
Q 659 365 636 217 
Q 614 70 560 32 
Q 506 -6 397 -6 
Q 186 -6 186 147 
Q 186 237 269 713 
Q 352 1190 371 1315 
Q 390 1440 512 2259 
Q 634 3078 730 3712 
Q 826 4346 826 4365 
Q 826 4512 646 4512 
z
" transform="scale(0.015625)"/>
      <path id="SortsMillGoudy-Italic-99" d="M 675 224 
Q 640 224 573 288 
Q 506 352 506 387 
Q 506 422 557 474 
L 1325 1248 
Q 1382 1306 1382 1344 
Q 1382 1382 1338 1427 
L 544 2221 
Q 506 2259 506 2294 
Q 506 2330 573 2394 
Q 640 2458 678 2458 
Q 717 2458 768 2406 
L 1510 1670 
Q 1587 1594 1632 1594 
Q 1677 1594 1709 1626 
L 2509 2426 
Q 2547 2464 2579 2464 
Q 2611 2464 2678 2400 
Q 2746 2336 2746 2301 
Q 2746 2266 2682 2202 
L 1907 1427 
Q 1862 1382 1862 1347 
Q 1862 1312 1907 1267 
L 2701 474 
Q 2746 429 2746 393 
Q 2746 358 2675 291 
Q 2605 224 2573 224 
Q 2541 224 2496 269 
L 1709 1062 
Q 1664 1107 1625 1107 
Q 1587 1107 1517 1037 
L 755 269 
Q 710 224 675 224 
z
" transform="scale(0.015625)"/>
      <path id="SortsMillGoudy-Italic-15" d="M 1293 0 
L 275 -13 
Q 128 -13 128 70 
Q 128 109 269 186 
Q 915 550 1242 819 
Q 2176 1581 2176 2022 
Q 2176 2285 1939 2422 
Q 1702 2560 1504 2560 
Q 915 2560 915 2266 
Q 915 2195 963 2067 
Q 1011 1939 1011 1901 
Q 1011 1818 922 1818 
Q 486 1818 486 2042 
Q 486 2214 742 2470 
Q 870 2598 1113 2684 
Q 1357 2771 1715 2771 
Q 2074 2771 2381 2598 
Q 2688 2426 2688 2080 
Q 2688 1850 2438 1562 
Q 2189 1274 1894 1062 
Q 1600 851 1350 665 
Q 1101 480 1101 432 
Q 1101 384 1389 384 
L 1811 384 
Q 2202 384 2387 570 
Q 2490 672 2515 723 
Q 2579 800 2618 800 
Q 2694 800 2694 730 
Q 2694 710 2669 672 
Q 2541 480 2441 240 
Q 2342 0 2240 0 
L 1293 0 
z
" transform="scale(0.015625)"/>
     </defs>
     <use xlink:href="#SortsMillGoudy-Italic-30"/>
     <use xlink:href="#SortsMillGoudy-Italic-44" transform="translate(91.09375 0)"/>
     <use xlink:href="#SortsMillGoudy-Italic-51" transform="translate(141.890625 0)"/>
     <use xlink:href="#SortsMillGoudy-Italic-46" transform="translate(193.984375 0)"/>
     <use xlink:href="#SortsMillGoudy-Italic-4b" transform="translate(234.578125 0)"/>
     <use xlink:href="#SortsMillGoudy-Italic-48" transform="translate(283.078125 0)"/>
     <use xlink:href="#SortsMillGoudy-Italic-3" transform="translate(323.28125 0)"/>
     <use xlink:href="#SortsMillGoudy-Italic-99" transform="translate(344.578125 0)"/>
     <use xlink:href="#SortsMillGoudy-Italic-15" transform="translate(395.375 0)"/>
    </g>
   </g>
   <g id="text_4">
    <!-- Le patron -->
    <g style="fill: #14110e" transform="translate(209.889205 53.910256) scale(0.363636 -0.363636)">
     <defs>
      <path id="IM_FELL_English_SC-2f" d="M 122 156 
Q 122 206 145 262 
Q 169 319 219 319 
L 478 341 
Q 556 356 631 368 
Q 706 381 776 401 
Q 847 422 909 456 
Q 972 491 1025 556 
Q 1038 578 1045 598 
Q 1053 619 1053 644 
Q 1053 694 1078 734 
Q 1078 813 1076 877 
Q 1075 941 1063 1022 
Q 1056 1059 1056 1084 
Q 1056 1109 1056 1125 
Q 1056 1175 1059 1195 
Q 1063 1216 1078 1266 
Q 1078 1356 1075 1417 
Q 1072 1478 1072 1534 
Q 1072 1641 1106 1753 
L 1078 2216 
Q 1072 2228 1067 2265 
Q 1063 2303 1063 2319 
Q 1078 2356 1092 2400 
Q 1106 2444 1106 2497 
Q 1097 2588 1095 2672 
Q 1094 2756 1078 2850 
Q 1072 2875 1056 2890 
Q 1041 2906 1041 2934 
Q 1041 2969 1056 2983 
Q 1072 2997 1078 3013 
L 1078 3163 
Q 1078 3228 1076 3311 
Q 1075 3394 1067 3481 
Q 1059 3569 1040 3658 
Q 1022 3747 988 3828 
Q 972 3841 944 3861 
Q 916 3881 889 3903 
Q 863 3925 842 3940 
Q 822 3956 819 3956 
Q 791 3978 739 3995 
Q 688 4013 625 4030 
Q 563 4047 498 4065 
Q 434 4084 381 4111 
Q 328 4138 295 4173 
Q 263 4209 263 4259 
Q 263 4278 284 4290 
Q 306 4303 337 4311 
Q 369 4319 397 4322 
Q 425 4325 441 4325 
Q 478 4319 497 4319 
Q 516 4319 528 4319 
Q 553 4319 559 4325 
Q 666 4331 778 4336 
Q 891 4341 1003 4341 
Q 1109 4341 1207 4336 
Q 1306 4331 1425 4325 
Q 1438 4309 1455 4303 
Q 1472 4297 1484 4297 
Q 1625 4309 1726 4325 
Q 1828 4341 1912 4358 
Q 1997 4375 2075 4394 
Q 2153 4413 2247 4428 
L 2322 4428 
Q 2381 4428 2467 4425 
Q 2553 4422 2629 4406 
Q 2706 4391 2761 4361 
Q 2816 4331 2816 4275 
Q 2816 4247 2812 4208 
Q 2809 4169 2794 4141 
Q 2778 4116 2701 4100 
Q 2625 4084 2534 4075 
Q 2444 4066 2356 4062 
Q 2269 4059 2231 4059 
Q 2216 4053 2200 4050 
Q 2184 4047 2170 4045 
Q 2156 4044 2144 4044 
L 2091 4028 
Q 1978 4016 1918 4006 
Q 1859 3997 1828 3978 
Q 1797 3959 1789 3929 
Q 1781 3900 1772 3844 
Q 1766 3791 1764 3736 
Q 1763 3681 1750 3613 
L 1706 3513 
Q 1706 3472 1722 3425 
Q 1738 3378 1758 3329 
Q 1778 3281 1793 3231 
Q 1809 3181 1809 3134 
L 1788 2894 
L 1831 2694 
Q 1831 2622 1817 2567 
Q 1803 2513 1788 2450 
Q 1772 2359 1769 2250 
Q 1766 2141 1766 2053 
L 1759 1956 
Q 1759 1878 1788 1853 
L 1788 1222 
Q 1772 1194 1769 1180 
Q 1766 1166 1766 1150 
Q 1766 1103 1787 1064 
Q 1809 1025 1809 991 
Q 1809 925 1795 848 
Q 1781 772 1766 719 
Q 1766 713 1762 700 
Q 1759 688 1756 672 
Q 1753 656 1750 638 
Q 1759 588 1809 538 
Q 1859 488 1925 447 
Q 1991 406 2059 381 
Q 2128 356 2175 356 
L 2313 384 
Q 2325 384 2345 370 
Q 2366 356 2416 356 
Q 2456 356 2489 378 
Q 2522 400 2572 400 
L 2669 356 
L 2869 341 
L 2956 319 
L 3009 319 
Q 3097 331 3183 342 
Q 3269 353 3351 370 
Q 3434 388 3512 417 
Q 3591 447 3656 503 
L 3666 513 
Q 3678 525 3678 541 
Q 3694 591 3719 623 
Q 3744 656 3773 682 
Q 3803 709 3836 732 
Q 3869 756 3900 791 
Q 3944 825 3978 889 
Q 4013 953 4056 1006 
Q 4088 1038 4131 1073 
Q 4175 1109 4222 1139 
Q 4269 1169 4314 1187 
Q 4359 1206 4397 1206 
Q 4413 1206 4438 1203 
Q 4463 1200 4486 1194 
Q 4509 1188 4526 1177 
Q 4544 1166 4544 1150 
Q 4544 1081 4531 1036 
Q 4519 991 4495 953 
Q 4472 916 4442 881 
Q 4413 847 4381 806 
Q 4369 791 4362 762 
Q 4356 734 4356 713 
Q 4356 694 4361 664 
Q 4366 634 4366 622 
Q 4356 581 4336 547 
Q 4316 513 4289 484 
Q 4263 456 4238 431 
Q 4213 406 4197 384 
L 4181 288 
Q 4147 128 4042 50 
Q 3938 -28 3781 -28 
L 3534 22 
L 3434 -28 
L 3094 -28 
Q 3031 9 2982 15 
Q 2934 22 2869 22 
Q 2797 22 2734 -3 
Q 2672 -28 2616 -28 
L 2572 -28 
L 2091 38 
L 2031 59 
L 1750 59 
Q 1716 94 1692 98 
Q 1669 103 1625 103 
Q 1591 103 1573 100 
Q 1556 97 1528 75 
L 1025 75 
Q 978 38 878 14 
Q 778 -9 667 -21 
Q 556 -34 453 -39 
Q 350 -44 294 -44 
Q 253 -44 222 -25 
Q 191 -6 169 23 
Q 147 53 134 87 
Q 122 122 122 156 
z
" transform="scale(0.015625)"/>
      <path id="IM_FELL_English_SC-48" d="M 278 134 
Q 278 200 309 239 
Q 341 278 386 303 
Q 431 328 484 351 
Q 538 375 583 409 
Q 628 444 659 500 
Q 691 556 691 650 
Q 691 675 691 698 
Q 691 722 684 747 
Q 675 803 675 866 
Q 675 916 684 969 
Q 691 994 691 1014 
Q 691 1034 691 1059 
Q 691 1094 687 1122 
Q 684 1150 678 1184 
Q 675 1219 672 1256 
Q 669 1294 669 1331 
Q 669 1366 672 1398 
Q 675 1431 678 1466 
Q 684 1500 690 1533 
Q 697 1566 697 1600 
Q 697 1656 686 1714 
Q 675 1772 663 1828 
Q 650 1875 642 1926 
Q 634 1978 634 2028 
Q 634 2047 637 2064 
Q 641 2081 647 2097 
Q 656 2128 656 2163 
Q 656 2166 654 2167 
Q 653 2169 653 2175 
L 653 2184 
Q 650 2194 642 2211 
Q 634 2228 625 2245 
Q 616 2263 608 2278 
Q 600 2294 597 2297 
Q 584 2309 553 2342 
Q 522 2375 487 2411 
Q 453 2447 420 2478 
Q 388 2509 375 2519 
Q 372 2525 364 2537 
Q 356 2550 356 2556 
Q 356 2619 403 2672 
Q 450 2725 500 2741 
Q 522 2750 558 2762 
Q 594 2775 630 2786 
Q 666 2797 694 2806 
Q 722 2816 728 2816 
Q 734 2816 759 2819 
Q 784 2822 797 2822 
Q 841 2822 880 2812 
Q 919 2803 959 2794 
Q 984 2791 1012 2784 
Q 1041 2778 1069 2778 
Q 1097 2778 1119 2781 
Q 1141 2784 1166 2791 
Q 1188 2794 1209 2797 
Q 1231 2800 1256 2800 
Q 1316 2800 1366 2781 
Q 1416 2763 1469 2763 
Q 1472 2763 1490 2761 
Q 1509 2759 1532 2759 
Q 1556 2759 1579 2757 
Q 1603 2756 1619 2756 
Q 1769 2756 1917 2775 
Q 2066 2794 2216 2800 
Q 2231 2813 2242 2814 
Q 2253 2816 2275 2816 
Q 2356 2781 2397 2725 
Q 2438 2669 2456 2594 
Q 2456 2588 2457 2569 
Q 2459 2550 2462 2528 
Q 2466 2506 2469 2487 
Q 2472 2469 2475 2466 
Q 2475 2463 2478 2455 
Q 2481 2447 2484 2420 
Q 2488 2394 2491 2347 
Q 2494 2300 2497 2222 
Q 2497 2181 2455 2156 
Q 2413 2131 2378 2131 
Q 2344 2131 2322 2137 
Q 2300 2144 2281 2156 
Q 2263 2169 2244 2186 
Q 2225 2203 2197 2222 
Q 2194 2222 2180 2230 
Q 2166 2238 2159 2244 
Q 2156 2244 2131 2248 
Q 2106 2253 2100 2259 
Q 2038 2284 2002 2329 
Q 1966 2375 1916 2428 
Q 1900 2428 1867 2429 
Q 1834 2431 1795 2434 
Q 1756 2438 1722 2441 
Q 1688 2444 1675 2450 
Q 1669 2450 1637 2465 
Q 1606 2481 1597 2481 
Q 1594 2488 1561 2488 
Q 1528 2488 1513 2488 
Q 1450 2488 1406 2466 
Q 1363 2444 1331 2406 
Q 1300 2369 1279 2320 
Q 1259 2272 1247 2222 
Q 1247 2216 1239 2184 
Q 1231 2153 1225 2141 
Q 1225 2134 1229 2123 
Q 1234 2113 1247 2053 
Q 1247 1956 1220 1861 
Q 1194 1766 1194 1666 
Q 1194 1638 1212 1622 
Q 1231 1606 1257 1600 
Q 1284 1594 1314 1592 
Q 1344 1591 1366 1591 
L 1438 1591 
Q 1453 1591 1479 1594 
Q 1506 1597 1531 1600 
Q 1556 1603 1576 1606 
Q 1597 1609 1597 1613 
Q 1600 1613 1615 1623 
Q 1631 1634 1648 1648 
Q 1666 1663 1684 1678 
Q 1703 1694 1713 1703 
Q 1722 1713 1736 1725 
Q 1750 1738 1764 1752 
Q 1778 1766 1789 1778 
Q 1800 1791 1803 1794 
Q 1831 1831 1832 1875 
Q 1834 1919 1839 1955 
Q 1844 1991 1866 2014 
Q 1888 2038 1956 2038 
Q 2047 2038 2084 1981 
Q 2122 1925 2122 1838 
Q 2122 1784 2109 1753 
Q 2097 1722 2083 1697 
Q 2069 1672 2058 1644 
Q 2047 1616 2047 1572 
Q 2047 1531 2062 1504 
Q 2078 1478 2084 1444 
L 2100 1238 
Q 2103 1234 2108 1218 
Q 2113 1203 2119 1183 
Q 2125 1163 2131 1142 
Q 2138 1122 2138 1109 
Q 2134 1094 2132 1072 
Q 2131 1050 2128 1028 
Q 2125 1003 2122 978 
Q 2119 969 2106 955 
Q 2094 941 2076 927 
Q 2059 913 2040 900 
Q 2022 888 2009 888 
Q 1997 888 1978 889 
Q 1959 891 1956 903 
Q 1950 909 1944 940 
Q 1938 972 1938 978 
Q 1922 1006 1897 1047 
Q 1872 1088 1840 1133 
Q 1809 1178 1771 1222 
Q 1734 1266 1697 1297 
Q 1663 1322 1623 1326 
Q 1584 1331 1559 1331 
L 1438 1291 
Q 1431 1291 1407 1300 
Q 1384 1309 1375 1309 
L 1363 1309 
Q 1356 1309 1353 1311 
Q 1350 1313 1344 1313 
Q 1328 1313 1303 1294 
Q 1278 1275 1254 1248 
Q 1231 1222 1212 1194 
Q 1194 1166 1194 1147 
Q 1194 1141 1191 1108 
Q 1188 1075 1188 1053 
Q 1188 1047 1188 1034 
Q 1188 1022 1191 1009 
Q 1191 997 1194 978 
Q 1194 953 1203 889 
Q 1213 825 1225 754 
Q 1238 684 1248 620 
Q 1259 556 1263 531 
Q 1306 484 1325 445 
Q 1344 406 1361 375 
Q 1378 344 1411 326 
Q 1444 309 1516 309 
Q 1594 309 1670 325 
Q 1747 341 1825 347 
L 1900 347 
Q 1906 347 1936 362 
Q 1966 378 1972 384 
L 2047 400 
Q 2059 406 2079 411 
Q 2100 416 2100 422 
Q 2109 428 2146 458 
Q 2184 488 2197 491 
Q 2228 516 2262 520 
Q 2297 525 2322 550 
Q 2359 581 2395 620 
Q 2431 659 2468 693 
Q 2506 728 2551 750 
Q 2597 772 2653 772 
L 2719 772 
Q 2744 756 2750 728 
Q 2756 700 2756 672 
Q 2756 528 2678 400 
Q 2678 397 2667 381 
Q 2656 366 2642 347 
Q 2628 328 2617 311 
Q 2606 294 2603 288 
Q 2600 284 2597 268 
Q 2594 253 2592 234 
Q 2591 216 2587 198 
Q 2584 181 2581 178 
Q 2581 172 2576 159 
Q 2572 147 2566 141 
Q 2559 131 2542 112 
Q 2525 94 2503 73 
Q 2481 53 2462 34 
Q 2444 16 2438 9 
L 2409 9 
Q 2353 9 2297 0 
Q 2231 -9 2166 -9 
Q 2100 -9 2047 11 
Q 1994 31 1916 31 
Q 1900 31 1865 29 
Q 1831 28 1825 28 
L 1678 6 
Q 1609 -6 1537 -7 
Q 1466 -9 1394 -9 
L 1166 -9 
Q 1116 -9 1078 0 
Q 1041 9 997 9 
Q 966 9 936 -9 
Q 906 -28 878 -28 
L 706 9 
Q 703 9 681 4 
Q 659 0 631 -6 
Q 603 -13 572 -19 
Q 541 -25 522 -28 
Q 484 -28 442 -18 
Q 400 -9 364 11 
Q 328 31 303 61 
Q 278 91 278 134 
z
" transform="scale(0.015625)"/>
      <path id="IM_FELL_English_SC-3" transform="scale(0.015625)"/>
      <path id="IM_FELL_English_SC-53" d="M 263 103 
Q 263 159 292 187 
Q 322 216 364 230 
Q 406 244 451 250 
Q 497 256 531 269 
Q 631 400 662 569 
Q 694 738 694 913 
Q 694 1028 689 1137 
Q 684 1247 684 1347 
L 684 1413 
Q 684 1425 687 1473 
Q 691 1522 695 1576 
Q 700 1631 704 1679 
Q 709 1728 709 1741 
Q 709 1750 704 1781 
Q 700 1813 695 1847 
Q 691 1881 687 1912 
Q 684 1944 684 1953 
Q 681 1975 678 2039 
Q 675 2103 670 2176 
Q 666 2250 659 2314 
Q 653 2378 650 2406 
Q 616 2466 561 2508 
Q 506 2550 453 2587 
Q 400 2625 361 2664 
Q 322 2703 322 2756 
L 322 2794 
Q 322 2816 326 2833 
Q 331 2850 353 2853 
Q 438 2881 538 2900 
Q 638 2919 741 2930 
Q 844 2941 942 2944 
Q 1041 2947 1125 2947 
L 1191 2947 
Q 1203 2941 1240 2927 
Q 1278 2913 1284 2913 
L 1463 2913 
Q 1469 2913 1489 2909 
Q 1509 2906 1532 2901 
Q 1556 2897 1578 2890 
Q 1600 2884 1613 2881 
Q 1784 2841 1967 2803 
Q 2150 2766 2309 2675 
Q 2322 2659 2351 2617 
Q 2381 2575 2415 2526 
Q 2450 2478 2479 2434 
Q 2509 2391 2522 2372 
Q 2525 2366 2536 2342 
Q 2547 2319 2547 2313 
Q 2550 2303 2558 2261 
Q 2566 2219 2575 2167 
Q 2584 2116 2592 2064 
Q 2600 2013 2603 1984 
Q 2603 1981 2606 1978 
Q 2613 1972 2613 1963 
Q 2613 1925 2592 1861 
Q 2572 1797 2542 1731 
Q 2513 1666 2475 1609 
Q 2438 1553 2403 1531 
Q 2394 1525 2361 1506 
Q 2328 1488 2292 1469 
Q 2256 1450 2226 1433 
Q 2197 1416 2191 1413 
Q 2184 1409 2165 1396 
Q 2147 1384 2126 1368 
Q 2106 1353 2087 1340 
Q 2069 1328 2063 1325 
Q 2059 1322 2046 1317 
Q 2034 1313 2020 1306 
Q 2006 1300 1993 1295 
Q 1981 1291 1981 1291 
Q 1969 1288 1947 1277 
Q 1925 1266 1922 1259 
L 1753 1259 
Q 1688 1259 1638 1259 
Q 1588 1259 1538 1262 
Q 1488 1266 1434 1272 
Q 1381 1278 1309 1291 
Q 1284 1281 1269 1269 
Q 1228 1247 1228 1231 
L 1228 719 
Q 1253 678 1258 647 
Q 1263 616 1263 572 
Q 1263 519 1245 472 
Q 1228 425 1228 372 
L 1228 363 
Q 1238 347 1270 312 
Q 1303 278 1309 269 
Q 1347 269 1398 275 
Q 1450 281 1503 281 
Q 1584 281 1646 256 
Q 1709 231 1709 147 
Q 1709 103 1676 51 
Q 1644 0 1591 0 
L 441 0 
Q 428 0 398 8 
Q 369 16 339 30 
Q 309 44 286 62 
Q 263 81 263 103 
z
M 1228 1503 
Q 1234 1494 1254 1472 
Q 1275 1450 1284 1444 
L 1300 1444 
L 1309 1444 
Q 1316 1444 1334 1448 
Q 1353 1453 1375 1458 
Q 1397 1463 1415 1467 
Q 1434 1472 1441 1472 
L 1494 1472 
L 1672 1472 
L 1709 1472 
Q 1719 1472 1744 1487 
Q 1769 1503 1797 1522 
Q 1825 1541 1851 1561 
Q 1878 1581 1888 1594 
Q 1891 1597 1894 1614 
Q 1897 1631 1901 1651 
Q 1906 1672 1911 1690 
Q 1916 1709 1922 1713 
Q 1928 1741 1942 1762 
Q 1956 1784 1972 1804 
Q 1988 1825 2000 1848 
Q 2013 1872 2013 1903 
Q 2013 1916 2006 1934 
Q 2003 1944 2003 1953 
Q 2000 1991 1992 2052 
Q 1984 2113 1975 2175 
Q 1966 2238 1956 2284 
Q 1947 2331 1944 2341 
Q 1928 2406 1892 2454 
Q 1856 2503 1807 2539 
Q 1759 2575 1703 2600 
Q 1647 2625 1591 2644 
L 1569 2644 
Q 1500 2644 1414 2633 
Q 1328 2622 1250 2584 
Q 1256 2544 1256 2506 
Q 1256 2469 1256 2428 
Q 1256 2244 1242 2064 
Q 1228 1884 1228 1691 
L 1228 1503 
z
" transform="scale(0.015625)"/>
      <path id="IM_FELL_English_SC-44" d="M 1853 409 
Q 1850 413 1844 430 
Q 1838 447 1831 465 
Q 1825 484 1820 500 
Q 1816 516 1816 519 
Q 1809 528 1809 545 
Q 1809 563 1809 584 
Q 1809 603 1809 622 
Q 1809 641 1816 650 
Q 1772 691 1764 723 
Q 1756 756 1756 800 
L 1756 866 
Q 1756 872 1750 884 
Q 1744 897 1741 903 
Q 1731 909 1704 937 
Q 1678 966 1663 972 
Q 1638 994 1600 1000 
Q 1563 1006 1534 1028 
Q 1528 1028 1504 1028 
Q 1481 1028 1475 1031 
Q 1453 1025 1423 1011 
Q 1394 997 1388 991 
L 1356 972 
L 1203 991 
L 1128 991 
Q 1088 991 1044 975 
Q 1000 959 958 934 
Q 916 909 880 876 
Q 844 844 822 809 
Q 816 803 809 772 
Q 803 741 803 734 
Q 797 716 784 695 
Q 772 675 772 650 
L 766 572 
L 744 491 
L 772 347 
Q 772 341 781 331 
Q 791 322 803 309 
Q 838 275 838 269 
Q 838 266 848 262 
Q 859 259 871 256 
Q 884 253 896 251 
Q 909 250 913 250 
Q 931 250 962 247 
Q 994 244 1023 231 
Q 1053 219 1075 198 
Q 1097 178 1097 141 
Q 1097 103 1069 68 
Q 1041 34 1000 22 
Q 984 19 950 12 
Q 916 6 875 -3 
Q 834 -13 796 -20 
Q 759 -28 744 -31 
L 669 0 
L 216 -31 
Q 175 -25 145 -19 
Q 116 -13 92 0 
Q 69 13 51 34 
Q 34 56 16 97 
Q 16 153 48 189 
Q 81 225 128 250 
Q 175 275 225 295 
Q 275 316 306 334 
Q 306 341 314 345 
Q 322 350 328 356 
Q 356 384 389 421 
Q 422 459 438 503 
Q 441 506 447 522 
Q 453 538 459 556 
Q 466 575 470 590 
Q 475 606 475 609 
Q 509 700 556 773 
Q 603 847 638 919 
Q 641 922 647 937 
Q 653 953 659 972 
Q 666 991 670 1006 
Q 675 1022 675 1028 
L 728 1250 
Q 731 1253 737 1267 
Q 744 1281 750 1297 
Q 756 1313 761 1325 
Q 766 1338 766 1341 
L 822 1525 
Q 841 1594 870 1639 
Q 900 1684 928 1747 
L 944 1838 
Q 950 1850 956 1879 
Q 963 1909 966 1913 
L 1000 2022 
Q 1000 2034 1004 2056 
Q 1009 2078 1012 2103 
Q 1016 2128 1019 2151 
Q 1022 2175 1022 2184 
L 1022 2422 
Q 1022 2431 1030 2450 
Q 1038 2469 1047 2489 
Q 1056 2509 1068 2526 
Q 1081 2544 1097 2553 
L 1203 2591 
Q 1213 2591 1233 2614 
Q 1253 2638 1259 2644 
L 1366 2694 
L 1447 2772 
Q 1500 2772 1536 2730 
Q 1572 2688 1594 2644 
Q 1597 2628 1608 2593 
Q 1619 2559 1630 2520 
Q 1641 2481 1652 2447 
Q 1663 2413 1663 2400 
L 1663 2309 
Q 1669 2303 1675 2290 
Q 1681 2278 1684 2272 
Q 1728 2200 1759 2111 
Q 1791 2022 1816 1931 
Q 1822 1869 1823 1859 
Q 1825 1850 1831 1850 
Q 1859 1850 1873 1823 
Q 1888 1797 1903 1763 
L 1941 1659 
Q 1941 1650 1950 1629 
Q 1959 1609 1971 1584 
Q 1984 1559 1995 1536 
Q 2006 1513 2009 1503 
Q 2013 1500 2031 1475 
Q 2041 1463 2047 1453 
Q 2050 1447 2059 1420 
Q 2069 1394 2078 1362 
Q 2088 1331 2095 1304 
Q 2103 1278 2103 1272 
Q 2119 1209 2139 1145 
Q 2159 1081 2194 1028 
Q 2194 1019 2219 989 
Q 2244 959 2247 950 
L 2266 866 
Q 2278 813 2290 778 
Q 2303 744 2306 709 
Q 2306 700 2314 672 
Q 2322 644 2331 611 
Q 2341 578 2348 551 
Q 2356 525 2356 519 
Q 2363 484 2388 443 
Q 2413 403 2438 394 
Q 2441 391 2461 381 
Q 2481 372 2504 361 
Q 2528 350 2548 340 
Q 2569 331 2572 331 
Q 2609 306 2642 295 
Q 2675 284 2697 270 
Q 2719 256 2731 231 
Q 2744 206 2744 156 
Q 2744 109 2694 76 
Q 2644 44 2576 23 
Q 2509 3 2442 -6 
Q 2375 -16 2344 -16 
Q 2263 -16 2195 6 
Q 2128 28 2038 28 
L 1794 0 
Q 1763 0 1716 4 
Q 1669 9 1623 23 
Q 1578 38 1545 63 
Q 1513 88 1513 131 
Q 1513 191 1566 214 
Q 1619 238 1683 256 
Q 1747 275 1800 301 
Q 1853 328 1853 394 
L 1853 409 
z
M 1259 1216 
Q 1263 1216 1283 1211 
Q 1303 1206 1329 1200 
Q 1356 1194 1382 1187 
Q 1409 1181 1425 1178 
L 1497 1163 
Q 1500 1166 1522 1169 
Q 1544 1172 1569 1178 
L 1631 1191 
L 1572 1428 
Q 1566 1456 1561 1504 
Q 1556 1553 1556 1569 
Q 1556 1609 1548 1639 
Q 1541 1669 1528 1697 
Q 1516 1725 1500 1754 
Q 1484 1784 1469 1822 
Q 1463 1844 1427 1872 
Q 1391 1900 1366 1925 
Q 1356 1934 1334 1934 
Q 1306 1934 1278 1912 
Q 1250 1891 1216 1891 
Q 1188 1891 1158 1844 
Q 1128 1797 1101 1736 
Q 1075 1675 1058 1614 
Q 1041 1553 1038 1525 
L 1038 1288 
Q 1044 1278 1056 1250 
Q 1069 1222 1075 1216 
Q 1081 1209 1087 1201 
Q 1094 1194 1106 1194 
Q 1113 1194 1136 1197 
Q 1159 1200 1184 1204 
Q 1209 1209 1231 1212 
Q 1253 1216 1259 1216 
z
" transform="scale(0.015625)"/>
      <path id="IM_FELL_English_SC-57" d="M 1644 38 
Q 1609 38 1587 28 
Q 1566 19 1545 8 
Q 1525 -3 1503 -12 
Q 1481 -22 1450 -22 
Q 1416 -22 1383 -11 
Q 1350 0 1313 0 
Q 1241 -13 1181 -25 
Q 1122 -38 1059 -38 
L 994 -38 
Q 981 -22 979 -11 
Q 978 0 978 16 
Q 978 44 987 76 
Q 997 109 1013 131 
Q 1016 134 1027 145 
Q 1038 156 1050 167 
Q 1063 178 1075 189 
Q 1088 200 1094 206 
Q 1131 238 1165 247 
Q 1200 256 1236 262 
Q 1272 269 1309 287 
Q 1347 306 1391 356 
Q 1394 363 1403 377 
Q 1413 391 1413 394 
L 1413 675 
Q 1388 738 1372 809 
Q 1356 881 1356 947 
L 1356 978 
L 1391 1097 
Q 1391 1100 1386 1112 
Q 1381 1125 1373 1140 
Q 1366 1156 1361 1170 
Q 1356 1184 1356 1191 
L 1356 1250 
L 1378 1416 
Q 1378 1444 1367 1464 
Q 1356 1484 1356 1509 
L 1413 1622 
Q 1413 1628 1394 1659 
Q 1375 1691 1363 1697 
L 1363 2038 
L 1334 2097 
L 1334 2438 
Q 1334 2469 1301 2480 
Q 1269 2491 1223 2495 
Q 1178 2500 1129 2500 
Q 1081 2500 1053 2509 
Q 1047 2513 1003 2533 
Q 959 2553 925 2553 
Q 888 2553 864 2537 
Q 841 2522 819 2501 
Q 797 2481 772 2462 
Q 747 2444 713 2438 
Q 706 2434 681 2431 
Q 656 2428 628 2426 
Q 600 2425 575 2422 
Q 550 2419 547 2416 
Q 541 2416 531 2412 
Q 522 2409 513 2406 
L 488 2400 
Q 475 2388 445 2359 
Q 416 2331 413 2325 
Q 406 2316 400 2284 
Q 394 2253 394 2250 
L 353 2206 
L 328 2200 
Q 319 2197 309 2194 
Q 300 2191 297 2191 
Q 288 2184 269 2165 
Q 250 2147 226 2126 
Q 203 2106 184 2087 
Q 166 2069 156 2059 
Q 128 2059 108 2078 
Q 88 2097 72 2113 
L 72 2250 
Q 72 2303 76 2389 
Q 81 2475 101 2558 
Q 122 2641 167 2702 
Q 213 2763 297 2763 
L 503 2734 
Q 525 2734 559 2737 
Q 594 2741 600 2741 
Q 606 2741 637 2748 
Q 669 2756 769 2756 
Q 847 2766 925 2780 
Q 1003 2794 1081 2794 
Q 1125 2794 1165 2783 
Q 1206 2772 1253 2772 
L 1444 2794 
L 1488 2794 
Q 1509 2794 1528 2787 
Q 1547 2781 1563 2756 
L 1791 2756 
Q 1794 2756 1826 2764 
Q 1859 2772 1866 2778 
L 1903 2778 
Q 1922 2775 1959 2770 
Q 1997 2766 2033 2762 
Q 2069 2759 2097 2757 
Q 2125 2756 2131 2756 
L 2169 2741 
Q 2175 2738 2181 2738 
Q 2188 2734 2194 2734 
Q 2244 2734 2280 2767 
Q 2316 2800 2353 2816 
Q 2378 2822 2422 2837 
Q 2466 2853 2472 2853 
L 2753 2853 
Q 2759 2847 2781 2840 
Q 2803 2834 2813 2834 
L 2947 2834 
Q 2950 2834 2961 2823 
Q 2972 2813 2986 2797 
Q 3000 2781 3014 2765 
Q 3028 2750 3034 2741 
Q 3088 2675 3109 2622 
Q 3131 2569 3131 2475 
Q 3131 2469 3123 2447 
Q 3116 2425 3109 2416 
L 3109 2113 
Q 3109 2100 3096 2098 
Q 3084 2097 3075 2097 
Q 3056 2097 3047 2098 
Q 3038 2100 3016 2113 
L 2866 2206 
Q 2856 2216 2826 2241 
Q 2797 2266 2762 2294 
Q 2728 2322 2697 2347 
Q 2666 2372 2656 2378 
Q 2656 2384 2631 2400 
Q 2606 2416 2600 2416 
L 2525 2475 
Q 2516 2481 2494 2490 
Q 2472 2500 2451 2509 
Q 2431 2519 2414 2525 
Q 2397 2531 2394 2531 
L 2094 2531 
Q 2088 2528 2078 2522 
Q 2059 2509 2056 2509 
Q 2041 2500 2011 2484 
Q 1981 2469 1951 2451 
Q 1922 2434 1897 2418 
Q 1872 2403 1866 2400 
Q 1850 2394 1847 2384 
Q 1844 2375 1844 2369 
L 1844 2325 
Q 1844 2316 1853 2303 
Q 1859 2294 1866 2288 
Q 1891 2172 1908 2067 
Q 1925 1963 1941 1850 
Q 1956 1734 1975 1625 
Q 1994 1516 1994 1400 
L 1994 1097 
Q 1997 1088 2000 1055 
Q 2003 1022 2006 983 
Q 2009 944 2012 909 
Q 2016 875 2016 866 
L 1994 600 
Q 1994 575 1995 533 
Q 1997 491 2005 448 
Q 2013 406 2028 368 
Q 2044 331 2072 319 
Q 2084 316 2117 306 
Q 2150 297 2186 284 
Q 2222 272 2253 261 
Q 2284 250 2297 244 
Q 2359 222 2387 195 
Q 2416 169 2416 103 
Q 2416 56 2394 25 
Q 2372 -6 2337 -25 
Q 2303 -44 2261 -51 
Q 2219 -59 2178 -59 
L 2131 -59 
L 2072 -22 
L 1925 -22 
Q 1916 -19 1884 -11 
Q 1853 -3 1817 8 
Q 1781 19 1751 26 
Q 1722 34 1716 38 
L 1644 38 
z
" transform="scale(0.015625)"/>
      <path id="IM_FELL_English_SC-55" d="M 209 134 
Q 209 141 225 169 
Q 241 197 247 206 
Q 291 263 366 286 
Q 441 309 513 309 
Q 534 309 551 309 
Q 569 309 588 303 
Q 622 328 645 362 
Q 669 397 684 438 
Q 681 450 678 479 
Q 675 509 675 547 
Q 675 581 678 614 
Q 681 647 684 659 
Q 691 709 716 750 
Q 741 791 741 844 
L 741 872 
L 703 947 
L 703 1038 
Q 694 1122 678 1208 
Q 663 1294 663 1384 
L 703 1613 
L 697 1731 
Q 697 1744 697 1758 
Q 697 1772 703 1784 
Q 709 1834 714 1884 
Q 719 1934 719 1984 
Q 719 2034 714 2082 
Q 709 2131 703 2184 
Q 697 2219 698 2258 
Q 700 2297 684 2331 
Q 659 2378 625 2420 
Q 591 2463 550 2494 
Q 513 2525 469 2533 
Q 425 2541 379 2545 
Q 334 2550 295 2565 
Q 256 2581 231 2628 
Q 228 2631 228 2638 
Q 225 2641 225 2650 
Q 225 2678 242 2695 
Q 259 2713 282 2722 
Q 306 2731 334 2734 
Q 363 2738 381 2741 
L 513 2741 
Q 556 2747 604 2765 
Q 653 2784 703 2784 
Q 709 2784 725 2784 
Q 741 2784 741 2778 
Q 744 2778 775 2759 
Q 806 2741 816 2741 
L 944 2741 
L 1150 2725 
Q 1156 2719 1176 2719 
Q 1197 2719 1203 2719 
Q 1253 2719 1286 2730 
Q 1319 2741 1372 2741 
Q 1484 2741 1603 2731 
Q 1722 2722 1838 2688 
Q 1913 2666 1981 2652 
Q 2050 2638 2111 2617 
Q 2172 2597 2226 2561 
Q 2281 2525 2328 2459 
Q 2366 2403 2389 2367 
Q 2413 2331 2425 2295 
Q 2438 2259 2441 2214 
Q 2444 2169 2444 2097 
Q 2444 2034 2426 1976 
Q 2409 1919 2363 1872 
Q 2353 1863 2328 1834 
Q 2303 1806 2272 1776 
Q 2241 1747 2214 1719 
Q 2188 1691 2178 1681 
Q 2166 1681 2136 1675 
Q 2106 1669 2103 1659 
Q 2097 1656 2073 1645 
Q 2050 1634 2023 1623 
Q 1997 1613 1975 1602 
Q 1953 1591 1950 1591 
Q 1934 1584 1914 1581 
Q 1894 1578 1875 1573 
Q 1856 1569 1843 1558 
Q 1831 1547 1831 1525 
Q 1831 1484 1843 1439 
Q 1856 1394 1876 1351 
Q 1897 1309 1925 1271 
Q 1953 1234 1984 1213 
Q 1991 1206 2014 1189 
Q 2038 1172 2044 1172 
L 2063 1150 
Q 2069 1147 2092 1114 
Q 2116 1081 2125 1075 
Q 2125 1075 2137 1061 
Q 2150 1047 2165 1031 
Q 2181 1016 2195 1000 
Q 2209 984 2216 978 
Q 2219 972 2234 939 
Q 2250 906 2269 868 
Q 2288 831 2305 798 
Q 2322 766 2328 756 
Q 2331 750 2347 728 
Q 2363 706 2383 678 
Q 2403 650 2425 623 
Q 2447 597 2459 584 
Q 2494 544 2531 516 
Q 2569 488 2609 453 
L 2763 341 
L 2956 319 
Q 2969 316 2997 303 
Q 3025 291 3051 270 
Q 3078 250 3098 226 
Q 3119 203 3119 178 
Q 3119 166 3103 136 
Q 3088 106 3064 76 
Q 3041 47 3014 23 
Q 2988 0 2966 0 
L 2706 0 
Q 2672 28 2606 40 
Q 2541 53 2497 59 
L 2269 59 
Q 2144 103 2084 189 
Q 2025 275 1984 394 
Q 1984 400 1973 423 
Q 1963 447 1928 491 
L 1906 584 
Q 1906 591 1901 603 
Q 1897 616 1891 622 
Q 1872 650 1839 698 
Q 1806 747 1773 797 
Q 1741 847 1714 883 
Q 1688 919 1684 925 
L 1459 1172 
Q 1416 1216 1359 1244 
Q 1303 1272 1247 1272 
Q 1234 1272 1225 1269 
Q 1216 1266 1209 1250 
Q 1209 1241 1212 1223 
Q 1216 1206 1216 1184 
Q 1216 1163 1212 1144 
Q 1209 1125 1209 1119 
L 1194 1038 
L 1194 816 
Q 1194 809 1186 775 
Q 1178 741 1172 725 
Q 1172 659 1189 617 
Q 1206 575 1231 513 
L 1209 416 
Q 1209 359 1251 346 
Q 1294 334 1342 328 
Q 1391 322 1433 297 
Q 1475 272 1475 194 
Q 1475 147 1448 123 
Q 1422 100 1384 90 
Q 1347 81 1305 79 
Q 1263 78 1231 75 
L 869 75 
Q 853 72 811 67 
Q 769 63 720 58 
Q 672 53 628 47 
Q 584 41 566 38 
Q 531 13 514 6 
Q 497 0 469 0 
Q 419 0 389 19 
Q 359 38 322 59 
Q 319 59 294 64 
Q 269 69 263 75 
Q 250 84 229 107 
Q 209 131 209 134 
z
M 1134 1872 
Q 1141 1863 1145 1831 
Q 1150 1800 1150 1794 
Q 1159 1766 1162 1731 
Q 1166 1697 1172 1662 
Q 1178 1628 1190 1600 
Q 1203 1572 1231 1553 
Q 1288 1509 1333 1492 
Q 1378 1475 1459 1475 
Q 1466 1475 1486 1483 
Q 1506 1491 1513 1491 
L 1684 1606 
Q 1703 1619 1731 1630 
Q 1759 1641 1784 1656 
Q 1809 1672 1829 1690 
Q 1850 1709 1853 1734 
Q 1853 1741 1856 1766 
Q 1859 1791 1862 1820 
Q 1866 1850 1869 1881 
Q 1872 1913 1875 1931 
L 1875 1953 
Q 1875 2094 1823 2228 
Q 1772 2363 1663 2459 
Q 1628 2494 1592 2523 
Q 1556 2553 1503 2553 
L 1459 2553 
L 1269 2534 
Q 1188 2478 1169 2404 
Q 1150 2331 1150 2238 
L 1150 2006 
Q 1150 1997 1145 1955 
Q 1141 1913 1134 1891 
L 1134 1872 
z
" transform="scale(0.015625)"/>
      <path id="IM_FELL_English_SC-52" d="M 444 675 
Q 444 697 437 731 
Q 431 766 428 778 
Q 422 788 397 808 
Q 372 828 369 831 
Q 353 856 345 890 
Q 338 925 331 950 
Q 325 972 311 1014 
Q 297 1056 291 1066 
Q 291 1072 275 1095 
Q 259 1119 253 1125 
L 238 1156 
Q 238 1166 245 1197 
Q 253 1228 253 1231 
Q 253 1247 256 1294 
Q 259 1341 259 1394 
Q 259 1447 256 1492 
Q 253 1538 253 1556 
L 275 1616 
Q 275 1619 276 1639 
Q 278 1659 281 1682 
Q 284 1706 287 1726 
Q 291 1747 291 1753 
Q 297 1766 325 1800 
Q 353 1834 369 1850 
Q 369 1853 359 1873 
Q 350 1894 350 1903 
Q 347 1903 347 1906 
L 347 1913 
L 350 1925 
Q 375 1969 409 2023 
Q 444 2078 488 2113 
Q 522 2144 555 2167 
Q 588 2191 616 2228 
Q 644 2263 664 2308 
Q 684 2353 713 2394 
Q 713 2400 719 2406 
Q 725 2413 731 2416 
Q 800 2466 872 2523 
Q 944 2581 1016 2622 
Q 1019 2625 1036 2634 
Q 1053 2644 1073 2653 
Q 1094 2663 1109 2670 
Q 1125 2678 1131 2681 
L 1206 2741 
Q 1216 2744 1244 2745 
Q 1272 2747 1303 2750 
Q 1334 2753 1362 2754 
Q 1391 2756 1400 2756 
Q 1403 2759 1415 2765 
Q 1428 2772 1443 2778 
Q 1459 2784 1473 2789 
Q 1488 2794 1491 2794 
Q 1544 2809 1611 2823 
Q 1678 2838 1734 2838 
Q 1813 2838 1889 2808 
Q 1966 2778 2044 2763 
Q 2128 2744 2212 2726 
Q 2297 2709 2380 2687 
Q 2463 2666 2541 2633 
Q 2619 2600 2694 2547 
Q 2697 2544 2709 2530 
Q 2722 2516 2737 2500 
Q 2753 2484 2768 2470 
Q 2784 2456 2791 2453 
Q 2794 2450 2826 2444 
Q 2859 2438 2866 2438 
Q 2878 2428 2884 2411 
Q 2891 2394 2895 2373 
Q 2900 2353 2904 2334 
Q 2909 2316 2919 2303 
Q 2922 2300 2930 2287 
Q 2938 2275 2948 2262 
Q 2959 2250 2967 2239 
Q 2975 2228 2978 2228 
L 2994 2131 
Q 3003 2116 3033 2087 
Q 3063 2059 3072 2053 
L 3072 1881 
Q 3072 1859 3086 1828 
Q 3100 1797 3115 1762 
Q 3131 1728 3147 1693 
Q 3163 1659 3169 1631 
Q 3178 1584 3181 1550 
Q 3184 1516 3187 1483 
Q 3191 1450 3191 1415 
Q 3191 1381 3191 1334 
L 3191 1216 
Q 3191 1209 3181 1167 
Q 3172 1125 3169 1103 
Q 3163 1084 3156 1056 
Q 3150 1028 3145 1000 
Q 3141 972 3136 951 
Q 3131 931 3131 931 
Q 3125 922 3106 894 
Q 3088 866 3064 833 
Q 3041 800 3020 773 
Q 3000 747 2994 741 
Q 2994 738 2983 719 
Q 2972 700 2959 676 
Q 2947 653 2934 633 
Q 2922 613 2919 606 
Q 2878 550 2826 501 
Q 2775 453 2731 400 
Q 2703 363 2693 347 
Q 2684 331 2653 303 
Q 2609 269 2571 250 
Q 2534 231 2497 191 
Q 2497 184 2484 159 
Q 2472 134 2466 134 
Q 2459 131 2443 128 
Q 2428 125 2408 122 
Q 2388 119 2370 117 
Q 2353 116 2347 113 
Q 2328 103 2279 83 
Q 2231 63 2176 39 
Q 2122 16 2073 -7 
Q 2025 -31 2006 -44 
L 1822 -44 
Q 1547 -44 1281 53 
L 1244 75 
Q 1238 84 1228 94 
Q 1209 113 1206 113 
Q 1203 116 1189 119 
Q 1175 122 1159 125 
Q 1144 128 1128 131 
Q 1113 134 1109 134 
Q 997 159 908 218 
Q 819 278 744 353 
Q 669 428 597 511 
Q 525 594 444 666 
L 444 675 
z
M 1169 491 
Q 1163 481 1163 466 
Q 1163 441 1180 422 
Q 1197 403 1219 389 
Q 1241 375 1264 362 
Q 1288 350 1303 341 
Q 1334 316 1367 286 
Q 1400 256 1436 229 
Q 1472 203 1509 186 
Q 1547 169 1594 169 
Q 1628 163 1659 159 
Q 1691 156 1725 156 
Q 1753 156 1779 159 
Q 1806 163 1831 169 
L 1891 191 
L 1978 194 
L 2066 191 
Q 2072 194 2081 197 
Q 2094 200 2103 209 
Q 2113 216 2128 223 
Q 2144 231 2159 241 
Q 2175 253 2194 266 
Q 2200 269 2217 286 
Q 2234 303 2253 322 
Q 2272 341 2287 358 
Q 2303 375 2309 378 
L 2369 416 
Q 2391 438 2425 477 
Q 2459 516 2490 561 
Q 2522 606 2545 650 
Q 2569 694 2572 725 
Q 2575 734 2579 753 
Q 2584 772 2587 794 
Q 2591 816 2592 833 
Q 2594 850 2594 853 
Q 2613 1031 2613 1200 
Q 2613 1334 2594 1466 
Q 2581 1484 2579 1506 
Q 2578 1528 2578 1553 
L 2578 1628 
Q 2578 1659 2572 1675 
Q 2569 1713 2541 1742 
Q 2513 1772 2497 1806 
Q 2472 1863 2458 1911 
Q 2444 1959 2422 2016 
Q 2419 2022 2416 2031 
Q 2413 2041 2406 2053 
L 2347 2153 
Q 2347 2156 2340 2187 
Q 2334 2219 2331 2228 
Q 2266 2319 2167 2364 
Q 2069 2409 1969 2453 
Q 1959 2459 1936 2465 
Q 1913 2472 1909 2472 
L 1778 2472 
L 1681 2494 
L 1491 2494 
L 1378 2438 
Q 1344 2422 1319 2419 
Q 1294 2416 1266 2394 
Q 1213 2359 1163 2320 
Q 1113 2281 1053 2244 
Q 1050 2244 1048 2241 
Q 1047 2238 1041 2234 
Q 1034 2231 1031 2228 
Q 1031 2222 1029 2208 
Q 1028 2194 1025 2178 
Q 1022 2163 1020 2148 
Q 1019 2134 1016 2131 
L 978 2094 
Q 969 2081 958 2057 
Q 947 2034 934 2011 
Q 922 1988 914 1967 
Q 906 1947 903 1941 
L 903 1850 
Q 900 1844 894 1825 
Q 888 1806 881 1787 
Q 875 1769 870 1751 
Q 866 1734 866 1731 
L 866 1703 
L 903 1519 
Q 903 1484 884 1461 
Q 866 1438 866 1400 
Q 866 1300 897 1226 
Q 928 1153 941 1066 
L 978 725 
L 1016 666 
Q 1019 663 1025 644 
Q 1028 634 1031 628 
L 1169 491 
z
" transform="scale(0.015625)"/>
      <path id="IM_FELL_English_SC-51" d="M 525 6 
Q 469 6 428 9 
Q 388 13 325 28 
Q 291 34 286 43 
Q 281 53 281 81 
Q 281 163 343 197 
Q 406 231 478 238 
L 628 238 
Q 634 238 662 267 
Q 691 297 703 313 
Q 713 319 727 341 
Q 741 363 741 369 
Q 744 381 747 414 
Q 750 447 753 483 
Q 756 519 759 550 
Q 763 581 763 594 
L 741 838 
L 741 881 
Q 741 897 744 912 
Q 747 928 763 941 
L 763 1075 
L 741 1466 
L 741 1644 
Q 750 1656 764 1697 
Q 778 1738 778 1772 
Q 778 1881 750 1970 
Q 722 2059 688 2156 
Q 688 2163 680 2188 
Q 672 2213 666 2216 
Q 653 2244 645 2258 
Q 638 2272 613 2294 
Q 603 2300 579 2317 
Q 556 2334 529 2356 
Q 503 2378 476 2398 
Q 450 2419 438 2428 
Q 400 2456 351 2476 
Q 303 2497 258 2522 
Q 213 2547 178 2581 
Q 144 2616 138 2675 
Q 138 2681 142 2701 
Q 147 2722 153 2731 
Q 156 2738 170 2750 
Q 184 2763 191 2769 
L 266 2769 
Q 300 2772 326 2789 
Q 353 2806 391 2806 
Q 456 2806 520 2790 
Q 584 2775 650 2769 
Q 656 2766 684 2762 
Q 713 2759 744 2757 
Q 775 2756 803 2754 
Q 831 2753 838 2753 
Q 844 2747 881 2726 
Q 919 2706 931 2694 
L 1028 2578 
Q 1094 2528 1155 2475 
Q 1216 2422 1278 2369 
Q 1278 2363 1293 2358 
Q 1309 2353 1316 2353 
Q 1319 2347 1325 2340 
Q 1331 2334 1331 2331 
L 1375 2253 
L 1503 2119 
Q 1509 2113 1523 2081 
Q 1538 2050 1541 2044 
Q 1575 1988 1615 1953 
Q 1656 1919 1698 1891 
Q 1741 1863 1783 1833 
Q 1825 1803 1866 1756 
Q 1938 1678 1984 1603 
Q 2031 1528 2094 1438 
Q 2094 1431 2101 1426 
Q 2109 1422 2116 1416 
L 2169 1378 
Q 2178 1372 2201 1347 
Q 2225 1322 2253 1294 
Q 2281 1266 2306 1241 
Q 2331 1216 2341 1213 
Q 2347 1203 2369 1187 
Q 2391 1172 2397 1169 
Q 2416 1153 2437 1123 
Q 2459 1094 2481 1066 
Q 2503 1038 2525 1016 
Q 2547 994 2569 994 
Q 2603 994 2629 1014 
Q 2656 1034 2681 1053 
Q 2716 1078 2720 1089 
Q 2725 1100 2725 1131 
L 2681 1413 
L 2703 1681 
Q 2703 1684 2697 1696 
Q 2691 1709 2683 1721 
Q 2675 1734 2670 1745 
Q 2666 1756 2666 1756 
L 2666 1831 
Q 2666 1841 2658 1862 
Q 2650 1884 2644 1891 
L 2644 2178 
Q 2644 2188 2642 2213 
Q 2641 2238 2637 2266 
Q 2634 2294 2632 2319 
Q 2631 2344 2628 2353 
Q 2622 2381 2598 2404 
Q 2575 2428 2541 2428 
Q 2506 2428 2468 2417 
Q 2431 2406 2391 2406 
Q 2369 2406 2317 2409 
Q 2266 2413 2212 2423 
Q 2159 2434 2118 2456 
Q 2078 2478 2078 2519 
L 2078 2616 
Q 2078 2653 2079 2689 
Q 2081 2725 2093 2750 
Q 2106 2775 2132 2790 
Q 2159 2806 2206 2806 
Q 2291 2806 2377 2787 
Q 2463 2769 2541 2769 
Q 2584 2769 2640 2776 
Q 2697 2784 2741 2806 
L 3119 2806 
Q 3144 2791 3175 2787 
Q 3206 2784 3241 2784 
L 3316 2784 
Q 3356 2763 3362 2720 
Q 3369 2678 3369 2634 
L 3369 2616 
Q 3369 2531 3294 2481 
L 3119 2369 
Q 3119 2366 3106 2362 
Q 3094 2359 3078 2357 
Q 3063 2356 3047 2354 
Q 3031 2353 3028 2353 
Q 3016 2347 3000 2319 
Q 2984 2291 2968 2255 
Q 2953 2219 2942 2189 
Q 2931 2159 2931 2153 
L 2953 2053 
Q 2953 2050 2953 2039 
Q 2953 2028 2947 2028 
Q 2947 2022 2939 2006 
Q 2931 1991 2931 1984 
Q 2922 1950 2922 1906 
Q 2922 1863 2920 1817 
Q 2919 1772 2914 1731 
Q 2909 1691 2894 1666 
L 2878 1178 
Q 2881 1094 2911 1020 
Q 2941 947 2947 866 
L 2969 519 
Q 2975 491 2988 459 
Q 3003 400 3028 331 
L 3028 44 
Q 3028 9 2993 -11 
Q 2959 -31 2931 -31 
Q 2897 -31 2859 -12 
Q 2822 6 2784 32 
Q 2747 59 2715 89 
Q 2684 119 2666 141 
Q 2656 150 2639 170 
Q 2622 191 2603 212 
Q 2584 234 2568 251 
Q 2553 269 2547 275 
Q 2547 281 2533 314 
Q 2519 347 2516 350 
Q 2509 353 2489 373 
Q 2469 394 2445 417 
Q 2422 441 2401 461 
Q 2381 481 2378 488 
Q 2281 584 2206 691 
Q 2172 744 2131 772 
Q 2091 800 2056 844 
Q 2056 850 2040 872 
Q 2025 894 2019 903 
Q 2016 906 2008 920 
Q 2000 934 1990 950 
Q 1981 966 1973 980 
Q 1966 994 1963 994 
Q 1919 1053 1850 1089 
Q 1781 1125 1731 1169 
L 1678 1228 
Q 1672 1231 1655 1254 
Q 1638 1278 1638 1288 
L 1525 1378 
L 1278 1644 
Q 1266 1656 1239 1682 
Q 1213 1709 1184 1737 
Q 1156 1766 1132 1787 
Q 1109 1809 1103 1816 
Q 1088 1828 1073 1833 
Q 1059 1838 1034 1838 
Q 997 1838 983 1814 
Q 969 1791 969 1756 
Q 969 1750 969 1726 
Q 969 1703 975 1703 
L 991 1553 
L 991 1288 
L 1006 994 
Q 1009 994 1012 978 
Q 1016 963 1019 944 
Q 1022 925 1025 908 
Q 1028 891 1028 888 
L 1028 691 
Q 1028 688 1036 655 
Q 1044 622 1050 616 
Q 1056 544 1072 470 
Q 1088 397 1088 325 
Q 1088 309 1088 289 
Q 1088 269 1081 253 
L 1103 238 
Q 1122 234 1165 229 
Q 1209 225 1257 219 
Q 1306 213 1348 205 
Q 1391 197 1406 194 
Q 1463 191 1475 172 
Q 1488 153 1488 103 
Q 1488 19 1425 -6 
Q 1363 -31 1294 -31 
Q 1259 -31 1236 -28 
Q 1213 -25 1194 -19 
Q 1175 -13 1154 -5 
Q 1134 3 1103 9 
Q 1088 9 1052 18 
Q 1016 28 1006 28 
L 850 28 
L 525 6 
z
" transform="scale(0.015625)"/>
     </defs>
     <use xlink:href="#IM_FELL_English_SC-2f"/>
     <use xlink:href="#IM_FELL_English_SC-48" transform="translate(71.140625 0)"/>
     <use xlink:href="#IM_FELL_English_SC-3" transform="translate(116.984375 0)"/>
     <use xlink:href="#IM_FELL_English_SC-53" transform="translate(138.421875 0)"/>
     <use xlink:href="#IM_FELL_English_SC-44" transform="translate(179.390625 0)"/>
     <use xlink:href="#IM_FELL_English_SC-57" transform="translate(220.953125 0)"/>
     <use xlink:href="#IM_FELL_English_SC-55" transform="translate(272.171875 0)"/>
     <use xlink:href="#IM_FELL_English_SC-52" transform="translate(320.03125 0)"/>
     <use xlink:href="#IM_FELL_English_SC-51" transform="translate(373.453125 0)"/>
    </g>
   </g>
  </g>
 </g>
 <defs>
  <clipPath id="p2c03fdfdee">
   <rect x="0" y="0" width="576" height="576"/>
  </clipPath>
 </defs>
</svg>
