<?xml version="1.0" encoding="utf-8" standalone="no"?>
<!DOCTYPE svg PUBLIC "-//W3C//DTD SVG 1.1//EN"
  "http://www.w3.org/Graphics/SVG/1.1/DTD/svg11.dtd">
<svg xmlns:xlink="http://www.w3.org/1999/xlink" width="576pt" height="576pt" viewBox="0 0 576 576" xmlns="http://www.w3.org/2000/svg" version="1.1">
 <metadata>
  <rdf:RDF xmlns:dc="http://purl.org/dc/elements/1.1/" xmlns:cc="http://creativecommons.org/ns#" xmlns:rdf="http://www.w3.org/1999/02/22-rdf-syntax-ns#">
   <cc:Work>
    <dc:type rdf:resource="http://purl.org/dc/dcmitype/StillImage"/>
    <dc:date>2026-10-09T15:46:25.388453</dc:date>
    <dc:format>image/svg+xml</dc:format>
    <dc:creator>
     <cc:Agent>
      <dc:title>Matplotlib v3.11.2, https://matplotlib.org/</dc:title>
     </cc:Agent>
    </dc:creator>
   </cc:Work>
  </rdf:RDF>
 </metadata>
 <defs>
  <style type="text/css">*{stroke-linejoin: round; stroke-linecap: butt}</style>
 </defs>
 <g id="figure_1">
  <g id="patch_1">
   <path d="M 0 576 
L 576 576 
L 576 0 
L 0 0 
z
" style="fill: #ffffff"/>
  </g>
  <g id="axes_1">
   <g id="patch_2">
    <path d="M 0 576 
L 576 576 
L 576 0 
L 0 0 
z
" clip-path="url(#p57d893c4b9)" style="fill: #ffffff"/>
   </g>
   <g id="patch_3">
    <path d="M 158.804271 167.654491 
L 159.053098 172.289622 
L 159.110003 172.919723 
L 159.189612 173.549841 
L 159.291545 174.179797 
L 159.415422 174.809364 
L 159.560857 175.43827 
L 159.727452 176.066201 
L 159.914796 176.69281 
L 160.122459 177.317719 
L 160.349992 177.940522 
L 160.596927 178.560793 
L 160.862774 179.178088 
L 161.147023 179.79195 
L 161.449144 180.40191 
L 161.768587 181.007494 
L 162.104785 181.608221 
L 162.457153 182.203606 
L 162.825087 182.793167 
L 163.207972 183.376418 
L 163.605177 183.952877 
L 164.016056 184.522064 
L 164.439953 185.0835 
L 164.8762 185.636712 
L 165.324119 186.181229 
L 165.803013 186.73991 
L 165.762567 186.693667 
L 166.272379 187.264926 
L 166.231594 187.220121 
L 166.751335 187.779914 
L 166.710182 187.736446 
L 167.239171 188.28442 
L 167.197612 188.242191 
L 167.735166 188.777993 
L 167.693153 188.73691 
L 168.23859 189.260188 
L 168.196069 189.220162 
L 168.748707 189.730562 
L 168.705614 189.691511 
L 169.26477 190.188679 
L 169.221031 190.150522 
L 169.786024 190.634106 
L 169.741558 190.596768 
L 170.311705 191.066415 
L 170.266419 191.029825 
L 170.841039 191.485182 
L 170.794831 191.449274 
L 171.373242 191.889987 
L 171.325998 191.8547 
L 171.907516 192.280416 
L 171.859111 192.245695 
L 172.443056 192.656061 
L 172.39335 192.621853 
L 172.979039 193.016516 
L 172.927879 192.982778 
L 173.488407 193.344465 
L 174.021851 193.673542 
L 174.553078 193.986248 
L 175.08119 194.282212 
L 175.605261 194.561079 
L 176.124345 194.822507 
L 176.637463 195.066171 
L 177.143608 195.291768 
L 177.641737 195.499021 
L 178.130769 195.687686 
L 178.609585 195.857557 
L 179.077023 196.008479 
L 179.531877 196.140355 
L 179.972898 196.253164 
L 180.398797 196.346975 
L 180.808251 196.421963 
L 181.199918 196.478439 
L 181.572453 196.516865 
L 181.924542 196.537885 
L 182.254946 196.542343 
L 182.69894 196.52641 
L 189.346763 196.52641 
L 189.346763 465.945509 
L 85.183099 465.945509 
L 85.183099 374.885999 
L 89.582465 291.518011 
L 89.582465 291.518011 
L 90.560695 272.980551 
L 98.173147 273.382263 
L 98.334309 273.406795 
L 98.17091 273.405379 
L 98.084822 273.415228 
L 98.072194 273.418024 
L 98.124346 273.40157 
L 98.231634 273.35874 
L 98.385226 273.285876 
L 98.57766 273.181474 
L 98.802847 273.045284 
L 99.055872 272.877758 
L 99.332762 272.679721 
L 99.630273 272.452181 
L 99.945724 272.196227 
L 100.276861 271.912969 
L 100.621757 271.603508 
L 100.978738 271.268926 
L 101.366893 270.890202 
L 101.326133 270.930722 
L 101.74209 270.50942 
L 101.704618 270.548043 
L 102.125602 270.106461 
L 102.090928 270.143438 
L 102.516272 269.682303 
L 102.483986 269.717859 
L 102.913022 269.237899 
L 102.882783 269.272238 
L 103.314845 268.774181 
L 103.286366 268.807486 
L 103.720786 268.292059 
L 103.693822 268.3245 
L 104.129933 267.79243 
L 104.104276 267.82416 
L 104.54141 267.276175 
L 104.51688 267.307336 
L 104.954371 266.744164 
L 104.930812 266.774888 
L 105.367992 266.197256 
L 105.345269 266.227668 
L 105.781471 265.636303 
L 105.759466 265.666519 
L 106.194023 265.062149 
L 106.172631 265.092281 
L 106.604876 264.475634 
L 106.584005 264.505789 
L 107.01327 263.877593 
L 106.992838 263.907878 
L 107.418456 263.268858 
L 107.39839 263.299376 
L 107.819694 262.650262 
L 107.799929 262.681115 
L 108.216251 262.022633 
L 108.196728 262.053926 
L 108.607402 261.386804 
L 108.588069 261.418641 
L 108.992427 260.743607 
L 108.973236 260.776094 
L 109.370612 260.093875 
L 109.351522 260.127123 
L 109.741247 259.438447 
L 109.722221 259.472571 
L 110.103628 258.778164 
L 110.084634 258.813284 
L 110.457057 258.113876 
L 110.438067 258.150118 
L 110.800838 257.446434 
L 110.781829 257.483932 
L 111.134281 256.776701 
L 111.115237 256.815598 
L 111.456703 256.105547 
L 111.437612 256.145994 
L 111.767424 255.433851 
L 111.748282 255.476014 
L 112.065772 254.762506 
L 112.046581 254.806559 
L 112.351084 254.092414 
L 112.331853 254.138549 
L 112.622701 253.424494 
L 112.603454 253.472917 
L 112.879979 252.759679 
L 112.860748 252.810615 
L 113.122283 252.098922 
L 113.103116 252.152612 
L 113.348994 251.443192 
L 113.329955 251.499901 
L 113.54979 250.823391 
L 113.743654 250.182515 
L 113.920247 249.549876 
L 114.079061 248.926548 
L 114.219623 248.313633 
L 114.341511 247.712254 
L 114.444356 247.123558 
L 114.527857 246.548709 
L 114.591788 245.988883 
L 114.636784 245.43582 
L 114.66554 244.890164 
L 114.683598 244.306726 
L 114.690503 243.665692 
L 114.690425 243.723651 
L 114.684813 243.028138 
L 114.685734 243.082546 
L 114.667232 242.364354 
L 114.668982 242.415662 
L 114.637552 241.675566 
L 114.640001 241.724163 
L 114.595603 240.962937 
L 114.598648 241.009161 
L 114.541243 240.227579 
L 114.544805 240.271721 
L 114.474354 239.470559 
L 114.47837 239.512875 
L 114.394834 238.692905 
L 114.399256 238.73362 
L 114.302596 237.895617 
L 114.307387 237.934927 
L 114.197563 237.079667 
L 114.202695 237.117746 
L 114.07967 236.246002 
L 114.085122 236.283008 
L 113.948856 235.395554 
L 113.954613 235.431624 
L 113.805067 234.529234 
L 113.811121 234.564494 
L 113.648255 233.647944 
L 113.654601 233.682505 
L 113.478377 232.752569 
L 113.485011 232.786534 
L 113.29539 231.843985 
L 113.302316 231.877448 
L 113.099258 230.923061 
L 113.106479 230.956106 
L 112.889946 229.990655 
L 112.897469 230.02336 
L 112.667422 229.047621 
L 112.675256 229.080058 
L 112.431655 228.094804 
L 112.439811 228.127041 
L 112.182618 227.133046 
L 112.191108 227.165145 
L 111.920284 226.163183 
L 111.929124 226.195203 
L 111.64463 225.186049 
L 111.653836 225.218044 
L 111.355632 224.202473 
L 111.365224 224.234495 
L 111.053271 223.21328 
L 111.063268 223.245378 
L 110.737528 222.219295 
L 110.747952 222.251516 
L 110.408385 221.221338 
L 110.41926 221.253726 
L 110.065828 220.220227 
L 110.07718 220.252825 
L 109.709842 219.216781 
L 109.721699 219.249629 
L 109.340418 218.211813 
L 109.352809 218.244951 
L 108.957546 217.206138 
L 108.970503 217.239603 
L 108.561217 216.200567 
L 108.574775 216.234396 
L 108.151428 215.195912 
L 108.165623 215.23014 
L 107.728176 214.192981 
L 107.743046 214.227641 
L 107.291461 213.192582 
L 107.307048 213.227708 
L 106.841285 212.195524 
L 106.857633 212.231146 
L 106.377653 211.20261 
L 106.394809 211.238758 
L 105.900574 210.214645 
L 105.918588 210.251348 
L 105.410057 209.232433 
L 105.428983 209.269717 
L 104.906118 208.256773 
L 104.926012 208.294664 
L 104.388774 207.288466 
L 104.409695 207.326987 
L 103.858045 206.328309 
L 103.880057 206.367481 
L 103.313956 205.377098 
L 103.337127 205.416939 
L 102.756536 204.435625 
L 102.780936 204.476152 
L 102.185815 203.504681 
L 102.211519 203.545906 
L 101.60183 202.585053 
L 101.628918 202.626986 
L 101.004622 201.677525 
L 101.033174 201.72017 
L 100.394232 200.782876 
L 100.424337 200.826234 
L 99.77071 199.901881 
L 99.802458 199.945948 
L 99.134106 199.035309 
L 99.167592 199.080076 
L 98.484477 198.183926 
L 98.519798 198.229375 
L 97.82188 197.348489 
L 97.859138 197.394595 
L 97.146379 196.529747 
L 97.185678 196.576478 
L 96.478519 195.752312 
L 95.778522 194.969462 
L 95.065874 194.205477 
L 94.340645 193.461061 
L 89.906405 189.10851 
z
" clip-path="url(#p57d893c4b9)" style="fill: #ffffff; stroke: #14110e; stroke-width: 2.5"/>
   </g>
   <g id="patch_4">
    <path d="M 216.699816 272.980551 
L 223.613556 273.345392 
L 223.271694 273.451146 
L 223.317104 273.431668 
L 223.393785 273.389586 
L 223.500908 273.317923 
L 223.635437 273.211717 
L 223.793297 273.068016 
L 223.970197 272.885537 
L 224.162107 272.664235 
L 224.36547 272.404904 
L 224.577267 272.10887 
L 224.794989 271.77777 
L 225.016583 271.413404 
L 225.240378 271.01764 
L 225.465018 270.59236 
L 225.689404 270.13942 
L 225.912643 269.66064 
L 226.146278 269.129911 
L 226.122286 269.185907 
L 226.36367 268.606743 
L 226.342593 268.658638 
L 226.578327 268.062703 
L 226.559726 268.110904 
L 226.789804 267.499441 
L 226.773316 267.544313 
L 226.997733 266.918562 
L 226.983057 266.960432 
L 227.201808 266.321635 
L 227.188692 266.360794 
L 227.401773 265.710192 
L 227.390005 265.746898 
L 227.59741 265.085733 
L 227.586814 265.12022 
L 227.788538 264.449733 
L 227.778962 264.482208 
L 227.975 263.80364 
L 227.966317 263.83429 
L 228.156664 263.148884 
L 228.148765 263.177878 
L 228.333416 262.486873 
L 228.326206 262.514362 
L 228.505156 261.819001 
L 228.498556 261.845124 
L 228.6718 261.146648 
L 228.665738 261.17153 
L 228.833271 260.47118 
L 228.827687 260.494937 
L 228.989504 259.793954 
L 228.984346 259.816692 
L 229.140441 259.116318 
L 229.135662 259.138134 
L 229.286031 258.43961 
L 229.28159 258.460596 
L 229.426227 257.765164 
L 229.422088 257.785407 
L 229.560988 257.094308 
L 229.557119 257.11389 
L 229.690278 256.428365 
L 229.686649 256.447364 
L 229.814062 255.768655 
L 229.810648 255.787149 
L 229.932309 255.116497 
L 229.929087 255.134562 
L 230.044991 254.473208 
L 230.04194 254.490921 
L 230.152082 253.840107 
L 230.149182 253.857544 
L 230.253557 253.218511 
L 230.250791 253.235755 
L 230.349394 252.609744 
L 230.346744 252.626881 
L 230.439569 252.015134 
L 230.43702 252.032258 
L 230.524064 251.436016 
L 230.5216 251.45323 
L 230.602856 250.873735 
L 230.600464 250.891157 
L 230.675928 250.32965 
L 230.673593 250.347417 
L 230.743259 249.805139 
L 230.740967 249.823412 
L 230.804831 249.301604 
L 230.802568 249.320578 
L 230.860625 248.820483 
L 230.858378 248.840399 
L 230.910622 248.363257 
L 230.908379 248.384421 
L 230.954804 247.931473 
L 230.952553 247.95428 
L 230.993156 247.526768 
L 230.990887 247.551742 
L 231.025662 247.150907 
L 231.023372 247.178763 
L 231.052315 246.805848 
L 231.050016 246.837592 
L 231.073121 246.493836 
L 231.070852 246.530933 
L 231.088114 246.217579 
L 231.085978 246.262256 
L 231.097391 245.980544 
L 231.095637 246.036357 
L 231.100382 245.824026 
L 231.100134 245.64583 
L 231.100423 245.683897 
L 231.096857 245.424817 
L 231.096729 245.414179 
L 231.093723 245.122513 
L 231.093677 245.117683 
L 231.090849 244.793957 
L 231.090844 244.793343 
L 231.087812 244.438088 
L 231.087835 244.440653 
L 231.084216 244.054397 
L 231.084267 244.059443 
L 231.079679 243.642715 
L 231.079764 243.649751 
L 231.073825 243.20308 
L 231.073953 243.211753 
L 231.06628 242.735669 
L 231.066458 242.745719 
L 231.056669 242.24075 
L 231.056907 242.251982 
L 231.04462 241.718657 
L 231.044927 241.730923 
L 231.02976 241.16977 
L 231.030144 241.182955 
L 231.011714 240.594504 
L 231.012185 240.608516 
L 230.990109 239.993295 
L 230.990674 240.008063 
L 230.964571 239.366602 
L 230.96524 239.382069 
L 230.934727 238.714897 
L 230.935507 238.731016 
L 230.900202 238.038661 
L 230.901101 238.055397 
L 230.860622 237.338388 
L 230.861648 237.355709 
L 230.815613 236.614576 
L 230.816776 236.632458 
L 230.764801 235.867729 
L 230.766109 235.886153 
L 230.707813 235.098357 
L 230.709274 235.117307 
L 230.644274 234.306972 
L 230.645897 234.326435 
L 230.573812 233.494091 
L 230.575606 233.514055 
L 230.496053 232.660232 
L 230.498028 232.680689 
L 230.410624 231.805914 
L 230.412789 231.826859 
L 230.317152 230.931661 
L 230.319517 230.953087 
L 230.215265 230.037996 
L 230.21784 230.0599 
L 230.104591 229.125445 
L 230.107386 229.147823 
L 229.984757 228.194532 
L 229.987784 228.217382 
L 229.855393 227.245784 
L 229.858661 227.269105 
L 229.716126 226.27973 
L 229.719649 226.303521 
L 229.566587 225.296896 
L 229.570375 225.321157 
L 229.406404 224.297812 
L 229.41047 224.322541 
L 229.235208 223.283006 
L 229.239564 223.308204 
L 229.052629 222.253007 
L 229.057289 222.278675 
L 228.858298 221.208344 
L 228.863274 221.234481 
L 228.651845 220.149546 
L 228.657152 220.176153 
L 228.432902 219.077142 
L 228.438554 219.104219 
L 228.201102 217.991662 
L 228.207113 218.019209 
L 227.956076 216.893635 
L 227.962462 216.921651 
L 227.697458 215.783588 
L 227.704234 215.812074 
L 227.42488 214.662051 
L 227.432062 214.691006 
L 227.137976 213.529552 
L 227.145581 213.558974 
L 226.836381 212.386619 
L 226.844424 212.416507 
L 226.519728 211.233778 
L 226.528228 211.26413 
L 226.187652 210.071557 
L 226.196626 210.10237 
L 225.839789 208.900482 
L 225.849254 208.931753 
L 225.475774 207.721079 
L 225.485749 207.752803 
L 225.095243 206.533872 
L 225.105746 206.566044 
L 224.697832 205.339385 
L 224.708881 205.372001 
L 224.283177 204.138142 
L 224.294792 204.171194 
L 223.850916 202.930665 
L 223.863115 202.964147 
L 223.400684 201.717476 
L 223.413487 201.751379 
L 222.932119 200.499095 
L 222.945545 200.533409 
L 222.444857 199.276041 
L 222.458926 199.310756 
L 221.938536 198.048833 
L 221.953267 198.083937 
L 221.412793 196.817989 
L 221.428205 196.853469 
L 220.867264 195.584023 
L 220.883376 195.619864 
L 220.301587 194.347451 
L 220.318418 194.383638 
L 219.715397 193.108785 
L 219.732965 193.145301 
L 217.531641 188.645751 
L 284.34143 167.841935 
L 285.09523 171.137938 
L 285.060998 171.039521 
L 285.024932 170.962935 
L 284.995053 170.912983 
L 284.978937 170.890898 
L 284.982699 170.895243 
L 285.010622 170.922975 
L 285.065249 170.970358 
L 285.147711 171.033583 
L 285.258105 171.10913 
L 285.395826 171.193923 
L 285.559835 171.285376 
L 285.748844 171.381359 
L 285.961443 171.48015 
L 286.196179 171.580369 
L 286.451608 171.680918 
L 286.72632 171.78093 
L 287.018953 171.879723 
L 287.357139 171.985845 
L 287.299087 171.968255 
L 287.679555 172.079454 
L 287.625926 172.064305 
L 288.016347 172.170776 
L 287.966709 172.157684 
L 288.366342 172.259534 
L 288.320311 172.24818 
L 288.728415 172.345518 
L 288.685648 172.335639 
L 289.101483 172.428571 
L 289.061676 172.419951 
L 289.4845 172.508585 
L 289.447382 172.501043 
L 289.876455 172.585486 
L 289.841785 172.578869 
L 290.276367 172.659229 
L 290.24393 172.653411 
L 290.683279 172.729795 
L 290.652884 172.724667 
L 291.096261 172.797182 
L 291.067737 172.792654 
L 291.5144 172.861409 
L 291.487595 172.857403 
L 291.936804 172.922504 
L 291.91158 172.918955 
L 292.362594 172.980509 
L 292.338831 172.97736 
L 292.790908 173.035475 
L 292.768495 173.032677 
L 293.220896 173.08746 
L 293.199734 173.084972 
L 293.651719 173.136531 
L 293.631719 173.134316 
L 294.082546 173.182758 
L 294.063629 173.180785 
L 294.512558 173.226217 
L 294.494653 173.224458 
L 294.940943 173.266989 
L 294.923986 173.26542 
L 295.366895 173.305156 
L 295.350829 173.303757 
L 295.789618 173.340806 
L 295.77439 173.339558 
L 296.208318 173.374027 
L 296.193884 173.372915 
L 296.62221 173.404911 
L 296.608529 173.40392 
L 297.030513 173.433551 
L 297.01755 173.432669 
L 297.432451 173.460042 
L 297.420176 173.459257 
L 297.827253 173.484481 
L 297.815641 173.483783 
L 298.214153 173.506964 
L 298.203185 173.506345 
L 298.592392 173.52759 
L 298.582051 173.527043 
L 298.961212 173.54646 
L 298.95149 173.545978 
L 299.319865 173.563674 
L 299.310759 173.56325 
L 299.667606 173.579333 
L 299.659122 173.578962 
L 300.003701 173.593539 
L 299.99585 173.593217 
L 300.327421 173.606395 
L 300.320228 173.606118 
L 300.63805 173.618005 
L 300.631553 173.617769 
L 300.934884 173.628472 
L 300.929139 173.628275 
L 301.21724 173.637902 
L 301.212327 173.637742 
L 301.484456 173.6464 
L 301.480489 173.646276 
L 301.735906 173.654073 
L 301.733047 173.653987 
L 301.971012 173.661029 
L 301.969497 173.660985 
L 302.189268 173.667381 
L 302.189446 173.667386 
L 302.345456 173.671935 
L 315.485885 173.671935 
L 315.485885 465.945509 
L 211.32222 465.945509 
L 211.32222 374.885999 
L 215.721586 291.518011 
L 215.721586 291.518011 
z
" clip-path="url(#p57d893c4b9)" style="fill: #ffffff; stroke: #14110e; stroke-width: 2.5"/>
   </g>
   <g id="patch_5">
    <path d="M 367.487356 465.945509 
L 337.461342 236.06329 
L 344.802999 235.104361 
L 345.576349 234.96855 
L 346.277208 234.782054 
L 346.979316 234.531675 
L 347.686957 234.215518 
L 348.402636 233.831777 
L 349.127409 233.379207 
L 349.861315 232.857368 
L 350.603792 232.266668 
L 351.354012 231.608294 
L 352.111118 230.884073 
L 352.874369 230.096326 
L 353.643216 229.247732 
L 354.417332 228.341217 
L 355.196615 227.379868 
L 355.999144 226.343665 
L 355.963653 226.390404 
L 356.78622 225.285417 
L 356.756731 225.325709 
L 357.579723 224.181852 
L 357.555489 224.216023 
L 358.380195 223.036224 
L 358.360601 223.064592 
L 359.188308 221.851781 
L 359.172854 221.874645 
L 360.004849 220.631751 
L 359.993129 220.649389 
L 360.8307 219.379341 
L 360.822394 219.392005 
L 361.666828 218.097731 
L 361.661682 218.105646 
L 362.514267 216.790076 
L 362.51209 216.79344 
L 363.374114 215.459502 
L 363.374768 215.45849 
L 364.247519 214.109114 
L 364.250913 214.103878 
L 365.135677 212.741992 
L 365.141761 212.732663 
L 366.039827 211.361197 
L 366.048591 211.347888 
L 366.961245 209.96977 
L 366.972712 209.95258 
L 367.901243 208.570739 
L 367.91547 208.549754 
L 368.861165 207.167118 
L 368.878239 207.142416 
L 369.842386 205.761915 
L 369.862424 205.733565 
L 370.846311 204.358128 
L 370.86946 204.326201 
L 371.874373 202.958756 
L 371.900806 202.923323 
L 372.928033 201.5668 
L 372.95795 201.527941 
L 374.00878 200.185268 
L 374.042405 200.143073 
L 375.118124 198.817179 
L 375.155705 198.771755 
L 376.278251 197.441092 
L 377.451635 196.107512 
L 378.658427 194.796655 
L 379.900214 193.511669 
L 381.178586 192.255749 
L 382.495127 191.032145 
L 383.851399 189.844163 
L 385.248936 188.695177 
L 386.689223 187.588624 
L 388.173683 186.528006 
L 389.703659 185.516888 
L 391.280395 184.558883 
L 392.905021 183.657647 
L 394.578542 182.816851 
L 396.301828 182.040164 
L 398.075613 181.331225 
L 399.900505 180.693617 
L 401.776991 180.130835 
L 403.70547 179.646269 
L 405.686273 179.243177 
L 407.719698 178.924679 
L 409.806048 178.693751 
L 411.945659 178.553229 
L 414.142391 178.505746 
L 416.101077 178.552248 
L 418.006177 178.690601 
L 419.855559 178.91847 
L 421.649727 179.233386 
L 423.389061 179.632641 
L 425.073876 180.113259 
L 426.704507 180.671992 
L 428.281378 181.305338 
L 429.805078 182.009574 
L 431.276408 182.780812 
L 432.69642 183.615063 
L 434.066429 184.508295 
L 435.388003 185.456499 
L 436.662939 186.455731 
L 437.893235 187.502154 
L 439.081044 188.592052 
L 440.228635 189.721848 
L 441.338359 190.888099 
L 442.412609 192.08749 
L 443.453802 193.31682 
L 444.464347 194.572987 
L 445.446636 195.852976 
L 446.386311 197.131094 
L 446.41933 197.17688 
L 447.321495 198.45237 
L 447.349882 198.4932 
L 448.235203 199.788797 
L 448.259315 199.82462 
L 449.129691 201.137534 
L 449.149839 201.168325 
L 450.007169 202.495766 
L 450.023617 202.521512 
L 450.869802 203.860691 
L 450.882765 203.881388 
L 451.719705 205.229515 
L 451.729354 205.245161 
L 452.558948 206.599446 
L 452.565406 206.610037 
L 453.389555 207.967691 
L 453.392901 207.973216 
L 454.213503 209.331448 
L 454.21377 209.33189 
L 455.032727 210.687912 
L 455.029902 210.683244 
L 455.849112 212.034265 
L 455.843136 212.02445 
L 456.6645 213.367681 
L 456.655265 213.352676 
L 457.480682 214.685327 
L 457.468032 214.665079 
L 458.299403 215.984361 
L 458.283129 215.958816 
L 459.122352 217.261937 
L 459.102192 217.231041 
L 459.951168 218.515214 
L 459.926801 218.47892 
L 460.78743 219.741354 
L 460.758479 219.69963 
L 461.632659 220.937535 
L 461.598685 220.890376 
L 462.46885 222.074471 
L 463.333363 223.19967 
L 464.210749 224.286726 
L 465.102275 225.333057 
L 466.009174 226.33619 
L 466.932665 227.293783 
L 467.87398 228.203652 
L 468.834407 229.063788 
L 469.815336 229.872377 
L 470.818315 230.627796 
L 471.845119 231.328606 
L 472.897807 231.973513 
L 473.978773 232.561314 
L 475.090786 233.090814 
L 476.236989 233.560736 
L 477.42087 233.969616 
L 478.646195 234.315712 
L 479.916904 234.59693 
L 481.276013 234.817109 
L 490.816901 236.06329 
L 460.790887 465.945509 
z
" clip-path="url(#p57d893c4b9)" style="fill: #ffffff; stroke: #14110e; stroke-width: 2.5"/>
   </g>
   <g id="line2d_1">
    <path d="M 155.944069 171.767395 
L 156.144012 173.988499 
L 156.574515 176.179515 
L 157.217163 178.330907 
L 158.053537 180.433141 
L 159.065221 182.476682 
L 160.655005 185.093624 
L 162.480055 187.566671 
L 164.496716 189.873222 
L 166.661333 191.990676 
L 168.930249 193.896432 
L 171.259812 195.567889 
L 173.606365 196.982446 
L 175.926253 198.117502 
L 178.175822 198.950456 
L 180.311416 199.458706 
L 181.812055 199.613211 
L 182.754126 199.602974 
L 189.346763 199.602974 
L 189.346763 462.868945 
L 88.259663 462.868945 
L 88.259663 374.967118 
L 93.470858 276.214966 
L 98.869041 276.392671 
L 99.779141 276.029812 
L 101.162625 275.153438 
L 102.701271 273.871103 
L 104.352376 272.229366 
L 106.509349 269.742719 
L 108.691914 266.858196 
L 110.816668 263.666737 
L 112.800208 260.25928 
L 114.559131 256.726762 
L 115.748497 253.871816 
L 116.698029 251.041592 
L 117.365022 248.282652 
L 117.654163 246.288236 
L 117.766889 243.69883 
L 117.666948 240.783802 
L 117.358895 237.543086 
L 116.840234 234.026238 
L 115.891933 229.317365 
L 114.890268 225.360414 
L 113.669876 221.288392 
L 112.228257 217.150856 
L 110.562915 212.997363 
L 108.671351 208.877471 
L 106.551068 204.840736 
L 104.199566 200.936716 
L 102.2827 198.125606 
L 100.233315 195.437932 
L 98.050357 192.894599 
L 95.732773 190.516515 
L 155.944069 171.767395 
L 155.944069 171.767395 
" clip-path="url(#p57d893c4b9)" style="fill: none; stroke-dasharray: 7.5,6; stroke-dashoffset: 0; stroke: #a8321f; stroke-width: 1.5"/>
   </g>
   <g id="patch_6">
    <path d="M 138.803213 395.424185 
Q 138.803213 317.315669 138.803213 239.207153 
" style="fill: none; stroke: #14110e; stroke-width: 1.25; stroke-linecap: round"/>
    <path d="M 141.303213 390.424185 
L 138.803213 395.424185 
L 136.303213 390.424185 
z
" style="fill: #14110e; stroke: #14110e; stroke-width: 1.25; stroke-linecap: round"/>
    <path d="M 136.303213 244.207153 
L 138.803213 239.207153 
L 141.303213 244.207153 
z
" style="fill: #14110e; stroke: #14110e; stroke-width: 1.25; stroke-linecap: round"/>
   </g>
   <g id="line2d_2">
    <path d="M 219.60998 276.214966 
L 223.998964 276.446575 
L 224.666728 276.20041 
L 225.626593 275.559528 
L 226.536197 274.622477 
L 227.395404 273.422773 
L 228.462381 271.472526 
L 229.439195 269.194372 
L 230.532927 266.006594 
L 231.657883 261.887291 
L 232.710394 257.015004 
L 233.568358 251.880443 
L 234.090712 247.416823 
L 234.170124 245.090809 
L 234.008078 238.574338 
L 233.638902 233.228638 
L 233.036178 227.802005 
L 232.268958 222.771527 
L 231.2099 217.349497 
L 230.120419 212.774383 
L 228.78911 208.024839 
L 227.191507 203.134715 
L 225.303142 198.137862 
L 223.099548 193.068131 
L 221.871894 190.516515 
L 282.083191 171.767395 
L 282.306451 172.41149 
L 282.732608 172.996604 
L 283.58187 173.69002 
L 284.708881 174.290609 
L 286.436012 174.921278 
L 288.853298 175.519703 
L 291.946564 176.028814 
L 295.9647 176.440931 
L 300.826391 176.703123 
L 302.300611 176.748499 
L 315.485885 176.748499 
L 315.485885 462.868945 
L 214.398784 462.868945 
L 214.398784 374.967118 
L 219.60998 276.214966 
L 219.60998 276.214966 
" clip-path="url(#p57d893c4b9)" style="fill: none; stroke-dasharray: 7.5,6; stroke-dashoffset: 0; stroke: #a8321f; stroke-width: 1.5"/>
   </g>
   <g id="patch_7">
    <path d="M 264.942335 395.424185 
Q 264.942335 317.315669 264.942335 239.207153 
" style="fill: none; stroke: #14110e; stroke-width: 1.25; stroke-linecap: round"/>
    <path d="M 267.442335 390.424185 
L 264.942335 395.424185 
L 262.442335 390.424185 
z
" style="fill: #14110e; stroke: #14110e; stroke-width: 1.25; stroke-linecap: round"/>
    <path d="M 262.442335 244.207153 
L 264.942335 239.207153 
L 267.442335 244.207153 
z
" style="fill: #14110e; stroke: #14110e; stroke-width: 1.25; stroke-linecap: round"/>
   </g>
   <g id="line2d_3">
    <path d="M 370.188208 462.868945 
L 340.910454 238.715482 
L 345.268527 238.146253 
L 346.239219 237.975785 
L 347.191023 237.722514 
L 348.125226 237.389368 
L 349.043116 236.979276 
L 349.945981 236.495167 
L 350.835108 235.93997 
L 351.711786 235.316614 
L 352.5773 234.628028 
L 353.43294 233.87714 
L 354.279992 233.06688 
L 355.119744 232.200177 
L 355.953484 231.279959 
L 356.7825 230.309155 
L 357.608078 229.290694 
L 358.431507 228.227506 
L 359.254074 227.122519 
L 360.077066 225.978662 
L 360.901772 224.798864 
L 361.729478 223.586053 
L 362.561473 222.34316 
L 363.399044 221.073112 
L 364.243478 219.778838 
L 365.096063 218.463268 
L 365.958087 217.129331 
L 366.830838 215.779955 
L 367.715602 214.418069 
L 368.613667 213.046602 
L 369.526322 211.668483 
L 370.454853 210.286642 
L 371.400548 208.904006 
L 372.364695 207.523505 
L 373.348582 206.148068 
L 374.353495 204.780623 
L 375.380722 203.4241 
L 376.431552 202.081428 
L 377.507271 200.755535 
L 378.609168 199.44935 
L 379.738529 198.165802 
L 380.896643 196.907821 
L 382.084796 195.678335 
L 383.304277 194.480272 
L 384.556373 193.316563 
L 385.842372 192.190135 
L 387.163561 191.103918 
L 388.521228 190.060841 
L 389.91666 189.063832 
L 391.351145 188.115821 
L 392.825971 187.219736 
L 394.342425 186.378506 
L 395.901795 185.595061 
L 397.505368 184.872328 
L 399.154431 184.213238 
L 400.850273 183.620719 
L 402.594182 183.097699 
L 404.387443 182.647109 
L 406.231346 182.271876 
L 408.127178 181.974929 
L 410.076226 181.759199 
L 412.079778 181.627612 
L 414.139122 181.583099 
L 415.953058 181.626165 
L 417.706454 181.7535 
L 419.40121 181.962317 
L 421.039225 182.249825 
L 422.6224 182.613235 
L 424.152634 183.049756 
L 425.631826 183.5566 
L 427.061878 184.130975 
L 428.444688 184.770094 
L 429.782156 185.471165 
L 431.076183 186.231399 
L 432.328667 187.048007 
L 433.541509 187.918198 
L 434.716609 188.839183 
L 435.855866 189.808173 
L 436.96118 190.822376 
L 438.034452 191.879005 
L 439.07758 192.975269 
L 440.092464 194.108378 
L 441.081006 195.275543 
L 442.045103 196.473973 
L 442.986656 197.70088 
L 443.907565 198.953473 
L 444.80973 200.228963 
L 445.69505 201.524559 
L 446.565426 202.837473 
L 447.422756 204.164914 
L 448.268942 205.504094 
L 449.105882 206.852221 
L 449.935476 208.206506 
L 450.759625 209.56416 
L 451.580228 210.922393 
L 452.399185 212.278415 
L 453.218395 213.629437 
L 454.039759 214.972668 
L 454.865176 216.305319 
L 455.696547 217.6246 
L 456.53577 218.927722 
L 457.384746 220.211894 
L 458.245374 221.474328 
L 459.119555 222.712233 
L 460.009188 223.922819 
L 460.916173 225.103298 
L 461.84241 226.250878 
L 462.789798 227.362771 
L 463.760238 228.436187 
L 464.755629 229.468335 
L 465.777871 230.456427 
L 466.828863 231.397672 
L 467.910507 232.289281 
L 469.0247 233.128464 
L 470.173344 233.912432 
L 471.358338 234.638394 
L 472.581582 235.30356 
L 473.844975 235.905142 
L 475.150418 236.44035 
L 476.49981 236.906393 
L 477.895051 237.300482 
L 479.338041 237.619827 
L 480.830679 237.861638 
L 487.36779 238.715482 
L 458.090035 462.868945 
L 370.188208 462.868945 
" clip-path="url(#p57d893c4b9)" style="fill: none; stroke-dasharray: 7.5,6; stroke-dashoffset: 0; stroke: #a8321f; stroke-width: 1.5"/>
   </g>
   <g id="patch_8">
    <path d="M 414.139122 397.583943 
Q 414.139122 322.222759 414.139122 246.861576 
" style="fill: none; stroke: #14110e; stroke-width: 1.25; stroke-linecap: round"/>
    <path d="M 416.639122 392.583943 
L 414.139122 397.583943 
L 411.639122 392.583943 
z
" style="fill: #14110e; stroke: #14110e; stroke-width: 1.25; stroke-linecap: round"/>
    <path d="M 411.639122 251.861576 
L 414.139122 246.861576 
L 416.639122 251.861576 
z
" style="fill: #14110e; stroke: #14110e; stroke-width: 1.25; stroke-linecap: round"/>
   </g>
   <g id="text_1">
    <!-- Devant -->
    <g style="fill: #14110e" transform="translate(115.785899 500.154993) scale(0.148387 -0.148387)">
     <defs>
      <path id="SortsMillGoudy-Italic-27" d="M 1907 0 
L 915 19 
Q 691 19 496 -6 
Q 301 -32 256 -32 
Q 211 -32 169 3 
Q 128 38 128 86 
Q 128 134 179 156 
Q 230 179 297 188 
Q 365 198 441 265 
Q 518 333 556 461 
Q 595 589 621 742 
L 1056 3942 
Q 1069 4045 1069 4058 
Q 1069 4154 979 4234 
Q 890 4314 781 4320 
Q 486 4339 486 4457 
Q 486 4576 685 4576 
Q 794 4576 982 4541 
Q 1171 4506 1331 4506 
Q 1491 4506 1776 4538 
Q 2061 4570 2330 4570 
Q 3546 4570 4118 4061 
Q 4691 3552 4691 2755 
Q 4691 1958 4192 1190 
Q 4051 966 3785 713 
Q 3520 461 3354 365 
Q 2752 0 1907 0 
z
M 1309 2105 
Q 1101 467 1101 403 
Q 1101 339 1165 278 
Q 1229 218 1408 218 
L 1971 218 
Q 2253 218 2637 352 
Q 3315 595 3712 1267 
Q 3981 1722 4070 2387 
Q 4102 2592 4102 2777 
Q 4102 2963 4057 3158 
Q 4013 3354 3885 3568 
Q 3757 3782 3558 3939 
Q 3360 4096 3024 4198 
Q 2688 4301 2275 4301 
Q 1862 4301 1747 4249 
Q 1632 4198 1562 3949 
Q 1517 3744 1309 2105 
z
" transform="scale(0.015625)"/>
      <path id="SortsMillGoudy-Italic-48" d="M 1216 -77 
Q 646 -77 425 192 
Q 205 461 205 902 
Q 205 1344 397 1741 
Q 589 2138 937 2464 
Q 1286 2790 1818 2790 
Q 2048 2790 2211 2656 
Q 2374 2522 2374 2339 
Q 2374 2157 2297 2013 
Q 2221 1869 2106 1773 
Q 1901 1600 1754 1542 
Q 1382 1376 749 1370 
Q 640 1370 640 1053 
Q 640 736 870 521 
Q 1101 307 1562 307 
Q 1830 307 2138 512 
Q 2234 582 2253 582 
Q 2330 582 2330 518 
Q 2330 384 1962 153 
Q 1594 -77 1216 -77 
z
M 1069 2298 
Q 941 2163 835 1926 
Q 730 1690 730 1584 
Q 730 1478 787 1478 
Q 1242 1478 1587 1734 
Q 1933 1990 1933 2298 
Q 1933 2458 1821 2528 
Q 1709 2598 1594 2598 
Q 1357 2598 1069 2298 
z
" transform="scale(0.015625)"/>
      <path id="SortsMillGoudy-Italic-59" d="M 64 1619 
Q 64 2074 342 2413 
Q 621 2752 851 2752 
Q 992 2752 1065 2598 
Q 1139 2445 1139 2262 
Q 1139 2080 1075 1597 
Q 1011 1114 1011 736 
Q 1011 582 1104 464 
Q 1197 346 1331 346 
Q 1670 346 1987 922 
Q 2304 1498 2304 2061 
Q 2304 2176 2237 2326 
Q 2170 2477 2170 2557 
Q 2170 2637 2256 2697 
Q 2342 2758 2400 2758 
Q 2605 2758 2605 2413 
Q 2605 2189 2499 1747 
Q 2394 1306 2259 1050 
Q 1933 416 1552 166 
Q 1171 -83 1043 -83 
Q 627 -83 627 909 
Q 627 947 537 963 
Q 448 979 345 1001 
Q 243 1024 153 1181 
Q 64 1338 64 1619 
z
M 640 2246 
Q 550 2246 390 2000 
Q 230 1754 230 1568 
Q 230 1382 301 1280 
Q 403 1126 492 1126 
Q 582 1126 602 1158 
Q 640 1222 640 1331 
Q 730 1997 730 2121 
Q 730 2246 640 2246 
z
" transform="scale(0.015625)"/>
      <path id="SortsMillGoudy-Italic-44" d="M 851 -96 
Q 480 -96 342 125 
Q 205 346 205 771 
Q 205 1197 576 1785 
Q 947 2374 1427 2605 
Q 1664 2720 1827 2720 
Q 1990 2720 2160 2685 
Q 2330 2650 2416 2650 
Q 2502 2650 2604 2806 
Q 2707 2963 2774 2963 
Q 2842 2963 2842 2886 
Q 2842 2810 2787 2656 
Q 2733 2502 2720 2451 
Q 2707 2400 2579 1686 
Q 2451 973 2451 813 
Q 2451 653 2515 531 
Q 2579 410 2681 410 
Q 2784 410 2934 618 
Q 3085 826 3139 826 
Q 3194 826 3194 733 
Q 3194 640 3069 461 
Q 2944 282 2761 118 
Q 2579 -45 2428 -45 
Q 2278 -45 2188 134 
Q 2099 314 2083 493 
Q 2067 672 2060 672 
Q 2054 672 1987 592 
Q 1920 512 1808 400 
Q 1696 288 1562 179 
Q 1222 -96 851 -96 
z
M 685 1114 
Q 653 922 653 730 
Q 653 538 797 397 
Q 941 256 1193 256 
Q 1446 256 1667 457 
Q 1888 659 1965 812 
Q 2042 966 2125 1344 
Q 2298 2176 2298 2313 
Q 2298 2451 2157 2505 
Q 2016 2560 1843 2560 
Q 1670 2560 1446 2419 
Q 1222 2278 1082 2042 
Q 749 1491 685 1114 
z
" transform="scale(0.015625)"/>
      <path id="SortsMillGoudy-Italic-51" d="M 621 2291 
Q 512 2291 393 2112 
Q 275 1933 214 1933 
Q 154 1933 154 2089 
Q 154 2246 378 2515 
Q 602 2784 774 2784 
Q 947 2784 1004 2614 
Q 1062 2445 1062 2278 
Q 1062 2112 1075 2112 
Q 1088 2112 1114 2150 
Q 1242 2317 1395 2432 
Q 1862 2797 2176 2797 
Q 2714 2797 2714 1997 
Q 2714 1741 2659 1235 
Q 2605 730 2605 653 
Q 2605 422 2726 422 
Q 2842 422 2982 563 
Q 3002 582 3030 627 
Q 3059 672 3072 691 
Q 3123 736 3180 736 
Q 3238 736 3238 659 
Q 3238 474 2921 218 
Q 2605 -38 2394 -38 
Q 2298 -38 2227 80 
Q 2157 198 2157 419 
Q 2157 640 2224 1248 
Q 2291 1856 2291 1945 
Q 2291 2035 2272 2134 
Q 2253 2234 2141 2352 
Q 2029 2470 1827 2470 
Q 1626 2470 1427 2189 
Q 1338 2061 1299 2003 
Q 1261 1946 1229 1846 
Q 1197 1747 1190 1690 
Q 1139 1402 1078 1066 
Q 1018 730 989 541 
Q 960 352 957 297 
Q 954 243 950 208 
Q 947 173 941 115 
Q 928 -13 749 -13 
Q 570 -13 528 19 
Q 486 51 486 172 
Q 486 294 627 979 
Q 768 1664 768 1878 
Q 768 2093 720 2192 
Q 672 2291 621 2291 
z
" transform="scale(0.015625)"/>
      <path id="SortsMillGoudy-Italic-57" d="M 1638 2362 
L 1120 2394 
Q 1037 2394 1011 2368 
Q 986 2342 973 2326 
Q 960 2310 953 2272 
Q 947 2234 940 2208 
Q 934 2182 928 2118 
Q 922 2054 909 1958 
Q 896 1862 845 1536 
Q 710 749 710 640 
Q 710 531 777 444 
Q 845 358 889 345 
Q 934 333 1030 333 
Q 1126 333 1254 403 
Q 1382 474 1459 544 
Q 1536 614 1574 614 
Q 1645 614 1645 525 
Q 1645 384 1312 153 
Q 979 -77 704 -77 
Q 538 -77 416 57 
Q 294 192 294 531 
Q 294 870 428 1580 
Q 563 2291 563 2323 
Q 563 2387 374 2393 
Q 186 2400 186 2496 
Q 186 2547 253 2588 
Q 320 2630 457 2710 
Q 595 2790 691 2892 
Q 787 2995 857 3078 
Q 928 3162 960 3194 
Q 1018 3264 1082 3264 
Q 1146 3264 1146 3187 
Q 1146 3149 1088 2953 
Q 1030 2758 1030 2716 
Q 1030 2675 1065 2668 
Q 1101 2662 1254 2662 
L 1626 2669 
Q 1792 2669 1792 2553 
Q 1792 2438 1760 2400 
Q 1728 2362 1638 2362 
z
" transform="scale(0.015625)"/>
     </defs>
     <use xlink:href="#SortsMillGoudy-Italic-27"/>
     <use xlink:href="#SortsMillGoudy-Italic-48" transform="translate(73.296875 0)"/>
     <use xlink:href="#SortsMillGoudy-Italic-59" transform="translate(113.5 0)"/>
     <use xlink:href="#SortsMillGoudy-Italic-44" transform="translate(156.203125 0)"/>
     <use xlink:href="#SortsMillGoudy-Italic-51" transform="translate(207 0)"/>
     <use xlink:href="#SortsMillGoudy-Italic-57" transform="translate(259.59375 0)"/>
    </g>
    <!-- au pli -->
    <g style="fill: #14110e" transform="translate(120.609639 522.522076) scale(0.148387 -0.148387)">
     <defs>
      <path id="SortsMillGoudy-Italic-58" d="M 128 1882 
Q 128 2125 342 2432 
Q 557 2739 851 2739 
Q 954 2739 1011 2630 
Q 1094 2490 1094 2237 
Q 1094 1984 976 1360 
Q 858 736 858 582 
Q 858 429 896 381 
Q 934 333 969 333 
Q 1005 333 1040 342 
Q 1075 352 1113 374 
Q 1152 397 1184 422 
Q 1216 448 1264 493 
Q 1312 538 1341 570 
Q 1370 602 1424 662 
Q 1478 723 1510 762 
Q 1606 877 1702 992 
Q 2157 1542 2445 2650 
Q 2470 2752 2656 2752 
Q 2842 2752 2842 2611 
Q 2842 2547 2646 1644 
Q 2451 742 2451 576 
Q 2451 410 2592 410 
Q 2861 410 3034 768 
Q 3091 883 3142 883 
Q 3232 883 3232 729 
Q 3232 576 2931 259 
Q 2630 -58 2234 -58 
Q 2042 -58 2042 288 
Q 2042 608 2099 928 
Q 2157 1248 2157 1289 
Q 2157 1331 2134 1331 
Q 2112 1331 2086 1289 
Q 2061 1248 2003 1142 
Q 1946 1037 1862 922 
Q 1165 -70 634 -70 
Q 416 -70 416 326 
Q 416 723 560 1344 
Q 704 1965 704 2112 
Q 704 2259 576 2259 
Q 531 2259 441 2147 
Q 352 2035 301 1916 
Q 250 1798 189 1798 
Q 128 1798 128 1882 
z
" transform="scale(0.015625)"/>
      <path id="SortsMillGoudy-Italic-3" transform="scale(0.015625)"/>
      <path id="SortsMillGoudy-Italic-53" d="M 531 -1248 
L 186 -1254 
L 128 -1254 
Q 19 -1254 19 -1168 
Q 19 -1082 150 -1024 
Q 282 -966 298 -921 
Q 314 -877 499 576 
Q 685 2029 755 2368 
L 755 2381 
Q 755 2413 723 2413 
Q 691 2413 563 2355 
Q 435 2298 397 2298 
Q 314 2298 314 2374 
L 314 2400 
Q 314 2458 358 2483 
Q 435 2515 508 2540 
Q 582 2566 624 2582 
Q 666 2598 701 2604 
Q 736 2611 755 2630 
Q 774 2650 790 2650 
Q 806 2650 812 2682 
Q 819 2714 822 2723 
Q 826 2733 835 2790 
Q 845 2848 857 2915 
Q 870 2982 892 3123 
Q 915 3264 924 3312 
Q 934 3360 960 3430 
Q 992 3526 1094 3580 
Q 1197 3635 1289 3635 
Q 1382 3635 1382 3532 
Q 1382 3430 1296 3142 
Q 1210 2854 1210 2765 
L 1210 2739 
Q 1210 2707 1232 2707 
Q 1254 2707 1318 2714 
Q 1478 2739 1786 2739 
Q 2918 2739 2918 1882 
Q 2918 1350 2669 928 
Q 2618 826 2586 781 
Q 2554 736 2522 681 
Q 2490 627 2467 598 
Q 2445 570 2403 522 
Q 2362 474 2323 435 
Q 1843 0 1267 0 
L 922 26 
Q 864 26 845 -6 
Q 826 -51 806 -240 
Q 787 -429 768 -538 
Q 730 -768 730 -826 
Q 730 -966 864 -1020 
Q 998 -1075 1129 -1094 
Q 1261 -1114 1261 -1171 
Q 1261 -1254 1171 -1254 
L 531 -1248 
z
M 1376 2579 
L 1222 2560 
Q 1171 2560 1114 2067 
L 1030 1357 
Q 902 397 902 349 
Q 902 301 928 269 
Q 954 237 1043 205 
Q 1133 173 1267 173 
Q 1722 173 2086 675 
Q 2451 1178 2451 1645 
Q 2451 1894 2358 2076 
Q 2266 2259 2141 2352 
Q 2016 2445 1850 2496 
Q 1606 2579 1376 2579 
z
" transform="scale(0.015625)"/>
      <path id="SortsMillGoudy-Italic-4f" d="M 672 4512 
L 486 4506 
Q 301 4506 301 4592 
Q 301 4678 397 4685 
Q 653 4704 877 4742 
Q 1101 4781 1171 4781 
Q 1306 4781 1306 4678 
Q 1306 4627 1277 4531 
Q 1248 4435 1193 4137 
Q 1139 3840 1100 3561 
Q 1062 3283 1027 2915 
Q 992 2547 857 1632 
Q 723 717 723 592 
Q 723 467 742 422 
Q 762 378 854 378 
Q 947 378 1043 448 
Q 1139 518 1190 602 
Q 1312 832 1408 832 
Q 1485 832 1485 736 
Q 1485 640 1165 269 
Q 1050 134 880 41 
Q 710 -51 624 -51 
Q 538 -51 499 -38 
Q 461 -26 410 26 
Q 294 122 294 550 
Q 294 826 384 1293 
Q 474 1760 486 1856 
Q 499 1952 547 2387 
Q 595 2822 713 3580 
Q 832 4339 832 4384 
Q 832 4512 672 4512 
z
" transform="scale(0.015625)"/>
      <path id="SortsMillGoudy-Italic-4c" d="M 1082 3456 
Q 1018 3456 912 3597 
Q 806 3738 806 3792 
Q 806 3846 928 3990 
Q 1050 4134 1133 4134 
Q 1216 4134 1296 4012 
Q 1376 3891 1376 3798 
Q 1376 3706 1261 3581 
Q 1146 3456 1082 3456 
z
M 506 2451 
L 218 2458 
Q 128 2458 128 2534 
Q 128 2624 275 2624 
L 339 2624 
Q 454 2624 662 2653 
Q 870 2682 1069 2682 
Q 1158 2682 1158 2611 
Q 1158 2528 1084 2278 
Q 1011 2029 986 1869 
Q 794 659 794 595 
Q 794 531 832 476 
Q 870 422 922 422 
Q 1050 422 1168 588 
Q 1286 755 1318 755 
Q 1382 755 1382 691 
Q 1382 627 1318 499 
Q 1254 371 1197 314 
Q 845 -64 608 -64 
Q 371 -64 371 467 
Q 371 723 515 1436 
Q 659 2150 659 2272 
Q 659 2394 627 2422 
Q 595 2451 506 2451 
z
" transform="scale(0.015625)"/>
     </defs>
     <use xlink:href="#SortsMillGoudy-Italic-44"/>
     <use xlink:href="#SortsMillGoudy-Italic-58" transform="translate(51.296875 0)"/>
     <use xlink:href="#SortsMillGoudy-Italic-3" transform="translate(103.796875 0)"/>
     <use xlink:href="#SortsMillGoudy-Italic-53" transform="translate(125.09375 0)"/>
     <use xlink:href="#SortsMillGoudy-Italic-4f" transform="translate(173.390625 0)"/>
     <use xlink:href="#SortsMillGoudy-Italic-4c" transform="translate(199.484375 0)"/>
    </g>
   </g>
   <g id="text_2">
    <!-- Dos -->
    <g style="fill: #14110e" transform="translate(252.298206 500.177019) scale(0.148387 -0.148387)">
     <defs>
      <path id="SortsMillGoudy-Italic-52" d="M 1197 -64 
Q 762 -64 483 230 
Q 205 525 205 1129 
Q 205 1734 617 2259 
Q 1030 2784 1715 2784 
Q 2170 2784 2410 2461 
Q 2650 2138 2650 1686 
Q 2650 1235 2486 851 
Q 2323 467 1977 201 
Q 1632 -64 1197 -64 
z
M 1622 2592 
Q 1382 2592 1158 2377 
Q 934 2163 816 1753 
Q 698 1344 698 979 
Q 698 614 854 371 
Q 1011 128 1254 128 
Q 1498 128 1686 301 
Q 1875 474 1971 730 
Q 2176 1261 2176 1709 
Q 2176 2157 2019 2374 
Q 1862 2592 1622 2592 
z
" transform="scale(0.015625)"/>
      <path id="SortsMillGoudy-Italic-56" d="M 822 -77 
Q 550 -77 323 22 
Q 96 122 96 349 
Q 96 576 301 576 
Q 410 576 480 505 
Q 550 435 582 355 
Q 614 275 697 204 
Q 781 134 925 134 
Q 1069 134 1184 185 
Q 1299 237 1344 314 
Q 1421 448 1421 550 
Q 1421 653 1395 739 
Q 1370 826 1277 941 
Q 1184 1056 1152 1088 
Q 947 1293 822 1417 
Q 698 1542 637 1619 
Q 576 1696 550 1754 
Q 480 1914 480 2074 
Q 480 2394 726 2595 
Q 973 2797 1350 2797 
Q 1946 2797 1946 2464 
Q 1946 2374 1888 2317 
Q 1811 2246 1699 2246 
Q 1587 2246 1456 2425 
Q 1325 2605 1197 2605 
Q 858 2605 858 2266 
Q 858 2067 1184 1766 
Q 1357 1606 1373 1587 
Q 1389 1568 1481 1469 
Q 1574 1370 1609 1322 
Q 1645 1274 1702 1178 
Q 1805 1018 1805 838 
Q 1805 659 1760 531 
Q 1715 403 1616 259 
Q 1517 115 1305 19 
Q 1094 -77 822 -77 
z
" transform="scale(0.015625)"/>
     </defs>
     <use xlink:href="#SortsMillGoudy-Italic-27"/>
     <use xlink:href="#SortsMillGoudy-Italic-52" transform="translate(73.296875 0)"/>
     <use xlink:href="#SortsMillGoudy-Italic-56" transform="translate(116.390625 0)"/>
    </g>
    <!-- au pli -->
    <g style="fill: #14110e" transform="translate(246.74876 522.522076) scale(0.148387 -0.148387)">
     <use xlink:href="#SortsMillGoudy-Italic-44"/>
     <use xlink:href="#SortsMillGoudy-Italic-58" transform="translate(51.296875 0)"/>
     <use xlink:href="#SortsMillGoudy-Italic-3" transform="translate(103.796875 0)"/>
     <use xlink:href="#SortsMillGoudy-Italic-53" transform="translate(125.09375 0)"/>
     <use xlink:href="#SortsMillGoudy-Italic-4f" transform="translate(173.390625 0)"/>
     <use xlink:href="#SortsMillGoudy-Italic-4c" transform="translate(199.484375 0)"/>
    </g>
   </g>
   <g id="text_3">
    <!-- Manche ×2 -->
    <g style="fill: #14110e" transform="translate(381.466138 500.392644) scale(0.148387 -0.148387)">
     <defs>
      <path id="SortsMillGoudy-Italic-30" d="M 742 6 
L 275 -13 
Q 128 -13 128 64 
L 128 90 
Q 128 115 137 118 
Q 147 122 156 128 
Q 166 134 176 140 
Q 186 147 208 156 
Q 230 166 250 173 
Q 307 192 371 218 
Q 525 275 595 486 
Q 685 749 745 1110 
Q 806 1472 909 1990 
Q 1120 3014 1120 3322 
Q 1120 3322 1114 3597 
Q 1114 3923 922 4192 
Q 845 4294 761 4323 
Q 678 4352 531 4352 
L 435 4352 
Q 339 4352 339 4454 
Q 339 4557 794 4557 
L 832 4557 
L 1242 4563 
Q 1344 4563 1414 4428 
Q 1485 4294 1734 3673 
Q 1984 3053 2291 2368 
Q 2989 806 3043 806 
Q 3098 806 4070 2765 
Q 4077 2778 4262 3139 
Q 4448 3501 4531 3673 
Q 4614 3846 4684 4012 
Q 4755 4179 4787 4259 
Q 4819 4339 4858 4416 
Q 4922 4531 5005 4531 
L 5197 4531 
L 5549 4557 
Q 5702 4557 5702 4467 
Q 5702 4442 5670 4410 
Q 5638 4378 5612 4371 
Q 5587 4365 5513 4355 
Q 5440 4346 5417 4336 
Q 5395 4326 5347 4284 
Q 5299 4243 5274 4166 
Q 5139 3693 5139 2906 
L 5139 2406 
L 5126 1498 
L 5120 1338 
L 5114 678 
Q 5114 410 5184 301 
Q 5254 192 5395 169 
Q 5536 147 5587 141 
Q 5683 128 5683 64 
Q 5683 -26 5504 -26 
L 4838 6 
L 4307 -26 
Q 4173 -26 4173 51 
Q 4173 134 4339 166 
Q 4410 179 4486 243 
Q 4563 307 4595 422 
Q 4691 742 4691 2496 
Q 4691 3232 4653 3232 
Q 4589 3232 4403 2874 
L 3469 1062 
Q 3290 710 3142 406 
Q 2995 102 2963 60 
Q 2931 19 2874 19 
Q 2829 19 2633 448 
Q 2438 877 1955 1974 
Q 1472 3072 1449 3113 
Q 1427 3155 1404 3155 
Q 1382 3155 1350 3046 
Q 1318 2938 1289 2685 
Q 1261 2432 1088 1542 
Q 915 653 915 454 
Q 915 211 1267 173 
Q 1427 154 1449 122 
Q 1472 90 1472 64 
Q 1472 -13 1338 -13 
L 742 6 
z
" transform="scale(0.015625)"/>
      <path id="SortsMillGoudy-Italic-46" d="M 205 954 
Q 205 1638 688 2214 
Q 1171 2790 1830 2790 
Q 2067 2790 2317 2611 
Q 2470 2496 2470 2365 
Q 2470 2234 2406 2157 
Q 2342 2080 2256 2080 
Q 2170 2080 2083 2153 
Q 1997 2227 1933 2310 
Q 1869 2394 1750 2467 
Q 1632 2541 1530 2541 
Q 1312 2541 1062 2317 
Q 877 2150 758 1843 
Q 640 1536 640 1274 
Q 640 294 1395 294 
Q 1626 294 1814 380 
Q 2003 467 2108 553 
Q 2214 640 2253 640 
Q 2336 640 2336 557 
Q 2336 499 2201 355 
Q 2067 211 1779 67 
Q 1491 -77 1171 -77 
Q 205 -77 205 954 
z
" transform="scale(0.015625)"/>
      <path id="SortsMillGoudy-Italic-4b" d="M 646 4512 
L 384 4506 
Q 301 4506 301 4579 
Q 301 4653 573 4675 
Q 845 4698 1017 4739 
Q 1190 4781 1235 4781 
Q 1312 4781 1312 4698 
Q 1312 4685 1120 3638 
Q 928 2592 928 2246 
Q 928 2176 950 2176 
Q 973 2176 1056 2262 
Q 1139 2349 1244 2448 
Q 1350 2547 1526 2633 
Q 1702 2720 1882 2720 
Q 2451 2720 2451 1997 
Q 2451 1805 2374 1325 
Q 2298 845 2298 704 
Q 2298 410 2451 410 
Q 2534 410 2656 483 
Q 2778 557 2832 624 
Q 2886 691 2924 739 
Q 2963 787 2982 787 
Q 3046 787 3046 736 
Q 3046 518 2739 249 
Q 2432 -19 2214 -19 
Q 1901 -19 1901 576 
Q 1901 774 1958 1232 
Q 2016 1690 2016 1882 
Q 2016 2381 1651 2381 
Q 1434 2381 1216 2253 
Q 896 2061 794 1446 
Q 755 1210 707 787 
Q 659 365 636 217 
Q 614 70 560 32 
Q 506 -6 397 -6 
Q 186 -6 186 147 
Q 186 237 269 713 
Q 352 1190 371 1315 
Q 390 1440 512 2259 
Q 634 3078 730 3712 
Q 826 4346 826 4365 
Q 826 4512 646 4512 
z
" transform="scale(0.015625)"/>
      <path id="SortsMillGoudy-Italic-99" d="M 675 224 
Q 640 224 573 288 
Q 506 352 506 387 
Q 506 422 557 474 
L 1325 1248 
Q 1382 1306 1382 1344 
Q 1382 1382 1338 1427 
L 544 2221 
Q 506 2259 506 2294 
Q 506 2330 573 2394 
Q 640 2458 678 2458 
Q 717 2458 768 2406 
L 1510 1670 
Q 1587 1594 1632 1594 
Q 1677 1594 1709 1626 
L 2509 2426 
Q 2547 2464 2579 2464 
Q 2611 2464 2678 2400 
Q 2746 2336 2746 2301 
Q 2746 2266 2682 2202 
L 1907 1427 
Q 1862 1382 1862 1347 
Q 1862 1312 1907 1267 
L 2701 474 
Q 2746 429 2746 393 
Q 2746 358 2675 291 
Q 2605 224 2573 224 
Q 2541 224 2496 269 
L 1709 1062 
Q 1664 1107 1625 1107 
Q 1587 1107 1517 1037 
L 755 269 
Q 710 224 675 224 
z
" transform="scale(0.015625)"/>
      <path id="SortsMillGoudy-Italic-15" d="M 1293 0 
L 275 -13 
Q 128 -13 128 70 
Q 128 109 269 186 
Q 915 550 1242 819 
Q 2176 1581 2176 2022 
Q 2176 2285 1939 2422 
Q 1702 2560 1504 2560 
Q 915 2560 915 2266 
Q 915 2195 963 2067 
Q 1011 1939 1011 1901 
Q 1011 1818 922 1818 
Q 486 1818 486 2042 
Q 486 2214 742 2470 
Q 870 2598 1113 2684 
Q 1357 2771 1715 2771 
Q 2074 2771 2381 2598 
Q 2688 2426 2688 2080 
Q 2688 1850 2438 1562 
Q 2189 1274 1894 1062 
Q 1600 851 1350 665 
Q 1101 480 1101 432 
Q 1101 384 1389 384 
L 1811 384 
Q 2202 384 2387 570 
Q 2490 672 2515 723 
Q 2579 800 2618 800 
Q 2694 800 2694 730 
Q 2694 710 2669 672 
Q 2541 480 2441 240 
Q 2342 0 2240 0 
L 1293 0 
z
" transform="scale(0.015625)"/>
     </defs>
     <use xlink:href="#SortsMillGoudy-Italic-30"/>
     <use xlink:href="#SortsMillGoudy-Italic-44" transform="translate(91.09375 0)"/>
     <use xlink:href="#SortsMillGoudy-Italic-51" transform="translate(141.890625 0)"/>
     <use xlink:href="#SortsMillGoudy-Italic-46" transform="translate(193.984375 0)"/>
     <use xlink:href="#SortsMillGoudy-Italic-4b" transform="translate(234.578125 0)"/>
     <use xlink:href="#SortsMillGoudy-Italic-48" transform="translate(283.078125 0)"/>
     <use xlink:href="#SortsMillGoudy-Italic-3" transform="translate(323.28125 0)"/>
     <use xlink:href="#SortsMillGoudy-Italic-99" transform="translate(344.578125 0)"/>
     <use xlink:href="#SortsMillGoudy-Italic-15" transform="translate(395.375 0)"/>
    </g>
   </g>
   <g id="text_4">
    <!-- Le patron -->
    <g style="fill: #14110e" transform="translate(209.889205 53.910256) scale(0.363636 -0.363636)">
     <defs>
      <path id="IM_FELL_English_SC-2f" d="M 122 156 
Q 122 206 145 262 
Q 169 319 219 319 
L 478 341 
Q 556 356 631 368 
Q 706 381 776 401 
Q 847 422 909 456 
Q 972 491 1025 556 
Q 1038 578 1045 598 
Q 1053 619 1053 644 
Q 1053 694 1078 734 
Q 1078 813 1076 877 
Q 1075 941 1063 1022 
Q 1056 1059 1056 1084 
Q 1056 1109 1056 1125 
Q 1056 1175 1059 1195 
Q 1063 1216 1078 1266 
Q 1078 1356 1075 1417 
Q 1072 1478 1072 1534 
Q 1072 1641 1106 1753 
L 1078 2216 
Q 1072 2228 1067 2265 
Q 1063 2303 1063 2319 
Q 1078 2356 1092 2400 
Q 1106 2444 1106 2497 
Q 1097 2588 1095 2672 
Q 1094 2756 1078 2850 
Q 1072 2875 1056 2890 
Q 1041 2906 1041 2934 
Q 1041 2969 1056 2983 
Q 1072 2997 1078 3013 
L 1078 3163 
Q 1078 3228 1076 3311 
Q 1075 3394 1067 3481 
Q 1059 3569 1040 3658 
Q 1022 3747 988 3828 
Q 972 3841 944 3861 
Q 916 3881 889 3903 
Q 863 3925 842 3940 
Q 822 3956 819 3956 
Q 791 3978 739 3995 
Q 688 4013 625 4030 
Q 563 4047 498 4065 
Q 434 4084 381 4111 
Q 328 4138 295 4173 
Q 263 4209 263 4259 
Q 263 4278 284 4290 
Q 306 4303 337 4311 
Q 369 4319 397 4322 
Q 425 4325 441 4325 
Q 478 4319 497 4319 
Q 516 4319 528 4319 
Q 553 4319 559 4325 
Q 666 4331 778 4336 
Q 891 4341 1003 4341 
Q 1109 4341 1207 4336 
Q 1306 4331 1425 4325 
Q 1438 4309 1455 4303 
Q 1472 4297 1484 4297 
Q 1625 4309 1726 4325 
Q 1828 4341 1912 4358 
Q 1997 4375 2075 4394 
Q 2153 4413 2247 4428 
L 2322 4428 
Q 2381 4428 2467 4425 
Q 2553 4422 2629 4406 
Q 2706 4391 2761 4361 
Q 2816 4331 2816 4275 
Q 2816 4247 2812 4208 
Q 2809 4169 2794 4141 
Q 2778 4116 2701 4100 
Q 2625 4084 2534 4075 
Q 2444 4066 2356 4062 
Q 2269 4059 2231 4059 
Q 2216 4053 2200 4050 
Q 2184 4047 2170 4045 
Q 2156 4044 2144 4044 
L 2091 4028 
Q 1978 4016 1918 4006 
Q 1859 3997 1828 3978 
Q 1797 3959 1789 3929 
Q 1781 3900 1772 3844 
Q 1766 3791 1764 3736 
Q 1763 3681 1750 3613 
L 1706 3513 
Q 1706 3472 1722 3425 
Q 1738 3378 1758 3329 
Q 1778 3281 1793 3231 
Q 1809 3181 1809 3134 
L 1788 2894 
L 1831 2694 
Q 1831 2622 1817 2567 
Q 1803 2513 1788 2450 
Q 1772 2359 1769 2250 
Q 1766 2141 1766 2053 
L 1759 1956 
Q 1759 1878 1788 1853 
L 1788 1222 
Q 1772 1194 1769 1180 
Q 1766 1166 1766 1150 
Q 1766 1103 1787 1064 
Q 1809 1025 1809 991 
Q 1809 925 1795 848 
Q 1781 772 1766 719 
Q 1766 713 1762 700 
Q 1759 688 1756 672 
Q 1753 656 1750 638 
Q 1759 588 1809 538 
Q 1859 488 1925 447 
Q 1991 406 2059 381 
Q 2128 356 2175 356 
L 2313 384 
Q 2325 384 2345 370 
Q 2366 356 2416 356 
Q 2456 356 2489 378 
Q 2522 400 2572 400 
L 2669 356 
L 2869 341 
L 2956 319 
L 3009 319 
Q 3097 331 3183 342 
Q 3269 353 3351 370 
Q 3434 388 3512 417 
Q 3591 447 3656 503 
L 3666 513 
Q 3678 525 3678 541 
Q 3694 591 3719 623 
Q 3744 656 3773 682 
Q 3803 709 3836 732 
Q 3869 756 3900 791 
Q 3944 825 3978 889 
Q 4013 953 4056 1006 
Q 4088 1038 4131 1073 
Q 4175 1109 4222 1139 
Q 4269 1169 4314 1187 
Q 4359 1206 4397 1206 
Q 4413 1206 4438 1203 
Q 4463 1200 4486 1194 
Q 4509 1188 4526 1177 
Q 4544 1166 4544 1150 
Q 4544 1081 4531 1036 
Q 4519 991 4495 953 
Q 4472 916 4442 881 
Q 4413 847 4381 806 
Q 4369 791 4362 762 
Q 4356 734 4356 713 
Q 4356 694 4361 664 
Q 4366 634 4366 622 
Q 4356 581 4336 547 
Q 4316 513 4289 484 
Q 4263 456 4238 431 
Q 4213 406 4197 384 
L 4181 288 
Q 4147 128 4042 50 
Q 3938 -28 3781 -28 
L 3534 22 
L 3434 -28 
L 3094 -28 
Q 3031 9 2982 15 
Q 2934 22 2869 22 
Q 2797 22 2734 -3 
Q 2672 -28 2616 -28 
L 2572 -28 
L 2091 38 
L 2031 59 
L 1750 59 
Q 1716 94 1692 98 
Q 1669 103 1625 103 
Q 1591 103 1573 100 
Q 1556 97 1528 75 
L 1025 75 
Q 978 38 878 14 
Q 778 -9 667 -21 
Q 556 -34 453 -39 
Q 350 -44 294 -44 
Q 253 -44 222 -25 
Q 191 -6 169 23 
Q 147 53 134 87 
Q 122 122 122 156 
z
" transform="scale(0.015625)"/>
      <path id="IM_FELL_English_SC-48" d="M 278 134 
Q 278 200 309 239 
Q 341 278 386 303 
Q 431 328 484 351 
Q 538 375 583 409 
Q 628 444 659 500 
Q 691 556 691 650 
Q 691 675 691 698 
Q 691 722 684 747 
Q 675 803 675 866 
Q 675 916 684 969 
Q 691 994 691 1014 
Q 691 1034 691 1059 
Q 691 1094 687 1122 
Q 684 1150 678 1184 
Q 675 1219 672 1256 
Q 669 1294 669 1331 
Q 669 1366 672 1398 
Q 675 1431 678 1466 
Q 684 1500 690 1533 
Q 697 1566 697 1600 
Q 697 1656 686 1714 
Q 675 1772 663 1828 
Q 650 1875 642 1926 
Q 634 1978 634 2028 
Q 634 2047 637 2064 
Q 641 2081 647 2097 
Q 656 2128 656 2163 
Q 656 2166 654 2167 
Q 653 2169 653 2175 
L 653 2184 
Q 650 2194 642 2211 
Q 634 2228 625 2245 
Q 616 2263 608 2278 
Q 600 2294 597 2297 
Q 584 2309 553 2342 
Q 522 2375 487 2411 
Q 453 2447 420 2478 
Q 388 2509 375 2519 
Q 372 2525 364 2537 
Q 356 2550 356 2556 
Q 356 2619 403 2672 
Q 450 2725 500 2741 
Q 522 2750 558 2762 
Q 594 2775 630 2786 
Q 666 2797 694 2806 
Q 722 2816 728 2816 
Q 734 2816 759 2819 
Q 784 2822 797 2822 
Q 841 2822 880 2812 
Q 919 2803 959 2794 
Q 984 2791 1012 2784 
Q 1041 2778 1069 2778 
Q 1097 2778 1119 2781 
Q 1141 2784 1166 2791 
Q 1188 2794 1209 2797 
Q 1231 2800 1256 2800 
Q 1316 2800 1366 2781 
Q 1416 2763 1469 2763 
Q 1472 2763 1490 2761 
Q 1509 2759 1532 2759 
Q 1556 2759 1579 2757 
Q 1603 2756 1619 2756 
Q 1769 2756 1917 2775 
Q 2066 2794 2216 2800 
Q 2231 2813 2242 2814 
Q 2253 2816 2275 2816 
Q 2356 2781 2397 2725 
Q 2438 2669 2456 2594 
Q 2456 2588 2457 2569 
Q 2459 2550 2462 2528 
Q 2466 2506 2469 2487 
Q 2472 2469 2475 2466 
Q 2475 2463 2478 2455 
Q 2481 2447 2484 2420 
Q 2488 2394 2491 2347 
Q 2494 2300 2497 2222 
Q 2497 2181 2455 2156 
Q 2413 2131 2378 2131 
Q 2344 2131 2322 2137 
Q 2300 2144 2281 2156 
Q 2263 2169 2244 2186 
Q 2225 2203 2197 2222 
Q 2194 2222 2180 2230 
Q 2166 2238 2159 2244 
Q 2156 2244 2131 2248 
Q 2106 2253 2100 2259 
Q 2038 2284 2002 2329 
Q 1966 2375 1916 2428 
Q 1900 2428 1867 2429 
Q 1834 2431 1795 2434 
Q 1756 2438 1722 2441 
Q 1688 2444 1675 2450 
Q 1669 2450 1637 2465 
Q 1606 2481 1597 2481 
Q 1594 2488 1561 2488 
Q 1528 2488 1513 2488 
Q 1450 2488 1406 2466 
Q 1363 2444 1331 2406 
Q 1300 2369 1279 2320 
Q 1259 2272 1247 2222 
Q 1247 2216 1239 2184 
Q 1231 2153 1225 2141 
Q 1225 2134 1229 2123 
Q 1234 2113 1247 2053 
Q 1247 1956 1220 1861 
Q 1194 1766 1194 1666 
Q 1194 1638 1212 1622 
Q 1231 1606 1257 1600 
Q 1284 1594 1314 1592 
Q 1344 1591 1366 1591 
L 1438 1591 
Q 1453 1591 1479 1594 
Q 1506 1597 1531 1600 
Q 1556 1603 1576 1606 
Q 1597 1609 1597 1613 
Q 1600 1613 1615 1623 
Q 1631 1634 1648 1648 
Q 1666 1663 1684 1678 
Q 1703 1694 1713 1703 
Q 1722 1713 1736 1725 
Q 1750 1738 1764 1752 
Q 1778 1766 1789 1778 
Q 1800 1791 1803 1794 
Q 1831 1831 1832 1875 
Q 1834 1919 1839 1955 
Q 1844 1991 1866 2014 
Q 1888 2038 1956 2038 
Q 2047 2038 2084 1981 
Q 2122 1925 2122 1838 
Q 2122 1784 2109 1753 
Q 2097 1722 2083 1697 
Q 2069 1672 2058 1644 
Q 2047 1616 2047 1572 
Q 2047 1531 2062 1504 
Q 2078 1478 2084 1444 
L 2100 1238 
Q 2103 1234 2108 1218 
Q 2113 1203 2119 1183 
Q 2125 1163 2131 1142 
Q 2138 1122 2138 1109 
Q 2134 1094 2132 1072 
Q 2131 1050 2128 1028 
Q 2125 1003 2122 978 
Q 2119 969 2106 955 
Q 2094 941 2076 927 
Q 2059 913 2040 900 
Q 2022 888 2009 888 
Q 1997 888 1978 889 
Q 1959 891 1956 903 
Q 1950 909 1944 940 
Q 1938 972 1938 978 
Q 1922 1006 1897 1047 
Q 1872 1088 1840 1133 
Q 1809 1178 1771 1222 
Q 1734 1266 1697 1297 
Q 1663 1322 1623 1326 
Q 1584 1331 1559 1331 
L 1438 1291 
Q 1431 1291 1407 1300 
Q 1384 1309 1375 1309 
L 1363 1309 
Q 1356 1309 1353 1311 
Q 1350 1313 1344 1313 
Q 1328 1313 1303 1294 
Q 1278 1275 1254 1248 
Q 1231 1222 1212 1194 
Q 1194 1166 1194 1147 
Q 1194 1141 1191 1108 
Q 1188 1075 1188 1053 
Q 1188 1047 1188 1034 
Q 1188 1022 1191 1009 
Q 1191 997 1194 978 
Q 1194 953 1203 889 
Q 1213 825 1225 754 
Q 1238 684 1248 620 
Q 1259 556 1263 531 
Q 1306 484 1325 445 
Q 1344 406 1361 375 
Q 1378 344 1411 326 
Q 1444 309 1516 309 
Q 1594 309 1670 325 
Q 1747 341 1825 347 
L 1900 347 
Q 1906 347 1936 362 
Q 1966 378 1972 384 
L 2047 400 
Q 2059 406 2079 411 
Q 2100 416 2100 422 
Q 2109 428 2146 458 
Q 2184 488 2197 491 
Q 2228 516 2262 520 
Q 2297 525 2322 550 
Q 2359 581 2395 620 
Q 2431 659 2468 693 
Q 2506 728 2551 750 
Q 2597 772 2653 772 
L 2719 772 
Q 2744 756 2750 728 
Q 2756 700 2756 672 
Q 2756 528 2678 400 
Q 2678 397 2667 381 
Q 2656 366 2642 347 
Q 2628 328 2617 311 
Q 2606 294 2603 288 
Q 2600 284 2597 268 
Q 2594 253 2592 234 
Q 2591 216 2587 198 
Q 2584 181 2581 178 
Q 2581 172 2576 159 
Q 2572 147 2566 141 
Q 2559 131 2542 112 
Q 2525 94 2503 73 
Q 2481 53 2462 34 
Q 2444 16 2438 9 
L 2409 9 
Q 2353 9 2297 0 
Q 2231 -9 2166 -9 
Q 2100 -9 2047 11 
Q 1994 31 1916 31 
Q 1900 31 1865 29 
Q 1831 28 1825 28 
L 1678 6 
Q 1609 -6 1537 -7 
Q 1466 -9 1394 -9 
L 1166 -9 
Q 1116 -9 1078 0 
Q 1041 9 997 9 
Q 966 9 936 -9 
Q 906 -28 878 -28 
L 706 9 
Q 703 9 681 4 
Q 659 0 631 -6 
Q 603 -13 572 -19 
Q 541 -25 522 -28 
Q 484 -28 442 -18 
Q 400 -9 364 11 
Q 328 31 303 61 
Q 278 91 278 134 
z
" transform="scale(0.015625)"/>
      <path id="IM_FELL_English_SC-3" transform="scale(0.015625)"/>
      <path id="IM_FELL_English_SC-53" d="M 263 103 
Q 263 159 292 187 
Q 322 216 364 230 
Q 406 244 451 250 
Q 497 256 531 269 
Q 631 400 662 569 
Q 694 738 694 913 
Q 694 1028 689 1137 
Q 684 1247 684 1347 
L 684 1413 
Q 684 1425 687 1473 
Q 691 1522 695 1576 
Q 700 1631 704 1679 
Q 709 1728 709 1741 
Q 709 1750 704 1781 
Q 700 1813 695 1847 
Q 691 1881 687 1912 
Q 684 1944 684 1953 
Q 681 1975 678 2039 
Q 675 2103 670 2176 
Q 666 2250 659 2314 
Q 653 2378 650 2406 
Q 616 2466 561 2508 
Q 506 2550 453 2587 
Q 400 2625 361 2664 
Q 322 2703 322 2756 
L 322 2794 
Q 322 2816 326 2833 
Q 331 2850 353 2853 
Q 438 2881 538 2900 
Q 638 2919 741 2930 
Q 844 2941 942 2944 
Q 1041 2947 1125 2947 
L 1191 2947 
Q 1203 2941 1240 2927 
Q 1278 2913 1284 2913 
L 1463 2913 
Q 1469 2913 1489 2909 
Q 1509 2906 1532 2901 
Q 1556 2897 1578 2890 
Q 1600 2884 1613 2881 
Q 1784 2841 1967 2803 
Q 2150 2766 2309 2675 
Q 2322 2659 2351 2617 
Q 2381 2575 2415 2526 
Q 2450 2478 2479 2434 
Q 2509 2391 2522 2372 
Q 2525 2366 2536 2342 
Q 2547 2319 2547 2313 
Q 2550 2303 2558 2261 
Q 2566 2219 2575 2167 
Q 2584 2116 2592 2064 
Q 2600 2013 2603 1984 
Q 2603 1981 2606 1978 
Q 2613 1972 2613 1963 
Q 2613 1925 2592 1861 
Q 2572 1797 2542 1731 
Q 2513 1666 2475 1609 
Q 2438 1553 2403 1531 
Q 2394 1525 2361 1506 
Q 2328 1488 2292 1469 
Q 2256 1450 2226 1433 
Q 2197 1416 2191 1413 
Q 2184 1409 2165 1396 
Q 2147 1384 2126 1368 
Q 2106 1353 2087 1340 
Q 2069 1328 2063 1325 
Q 2059 1322 2046 1317 
Q 2034 1313 2020 1306 
Q 2006 1300 1993 1295 
Q 1981 1291 1981 1291 
Q 1969 1288 1947 1277 
Q 1925 1266 1922 1259 
L 1753 1259 
Q 1688 1259 1638 1259 
Q 1588 1259 1538 1262 
Q 1488 1266 1434 1272 
Q 1381 1278 1309 1291 
Q 1284 1281 1269 1269 
Q 1228 1247 1228 1231 
L 1228 719 
Q 1253 678 1258 647 
Q 1263 616 1263 572 
Q 1263 519 1245 472 
Q 1228 425 1228 372 
L 1228 363 
Q 1238 347 1270 312 
Q 1303 278 1309 269 
Q 1347 269 1398 275 
Q 1450 281 1503 281 
Q 1584 281 1646 256 
Q 1709 231 1709 147 
Q 1709 103 1676 51 
Q 1644 0 1591 0 
L 441 0 
Q 428 0 398 8 
Q 369 16 339 30 
Q 309 44 286 62 
Q 263 81 263 103 
z
M 1228 1503 
Q 1234 1494 1254 1472 
Q 1275 1450 1284 1444 
L 1300 1444 
L 1309 1444 
Q 1316 1444 1334 1448 
Q 1353 1453 1375 1458 
Q 1397 1463 1415 1467 
Q 1434 1472 1441 1472 
L 1494 1472 
L 1672 1472 
L 1709 1472 
Q 1719 1472 1744 1487 
Q 1769 1503 1797 1522 
Q 1825 1541 1851 1561 
Q 1878 1581 1888 1594 
Q 1891 1597 1894 1614 
Q 1897 1631 1901 1651 
Q 1906 1672 1911 1690 
Q 1916 1709 1922 1713 
Q 1928 1741 1942 1762 
Q 1956 1784 1972 1804 
Q 1988 1825 2000 1848 
Q 2013 1872 2013 1903 
Q 2013 1916 2006 1934 
Q 2003 1944 2003 1953 
Q 2000 1991 1992 2052 
Q 1984 2113 1975 2175 
Q 1966 2238 1956 2284 
Q 1947 2331 1944 2341 
Q 1928 2406 1892 2454 
Q 1856 2503 1807 2539 
Q 1759 2575 1703 2600 
Q 1647 2625 1591 2644 
L 1569 2644 
Q 1500 2644 1414 2633 
Q 1328 2622 1250 2584 
Q 1256 2544 1256 2506 
Q 1256 2469 1256 2428 
Q 1256 2244 1242 2064 
Q 1228 1884 1228 1691 
L 1228 1503 
z
" transform="scale(0.015625)"/>
      <path id="IM_FELL_English_SC-44" d="M 1853 409 
Q 1850 413 1844 430 
Q 1838 447 1831 465 
Q 1825 484 1820 500 
Q 1816 516 1816 519 
Q 1809 528 1809 545 
Q 1809 563 1809 584 
Q 1809 603 1809 622 
Q 1809 641 1816 650 
Q 1772 691 1764 723 
Q 1756 756 1756 800 
L 1756 866 
Q 1756 872 1750 884 
Q 1744 897 1741 903 
Q 1731 909 1704 937 
Q 1678 966 1663 972 
Q 1638 994 1600 1000 
Q 1563 1006 1534 1028 
Q 1528 1028 1504 1028 
Q 1481 1028 1475 1031 
Q 1453 1025 1423 1011 
Q 1394 997 1388 991 
L 1356 972 
L 1203 991 
L 1128 991 
Q 1088 991 1044 975 
Q 1000 959 958 934 
Q 916 909 880 876 
Q 844 844 822 809 
Q 816 803 809 772 
Q 803 741 803 734 
Q 797 716 784 695 
Q 772 675 772 650 
L 766 572 
L 744 491 
L 772 347 
Q 772 341 781 331 
Q 791 322 803 309 
Q 838 275 838 269 
Q 838 266 848 262 
Q 859 259 871 256 
Q 884 253 896 251 
Q 909 250 913 250 
Q 931 250 962 247 
Q 994 244 1023 231 
Q 1053 219 1075 198 
Q 1097 178 1097 141 
Q 1097 103 1069 68 
Q 1041 34 1000 22 
Q 984 19 950 12 
Q 916 6 875 -3 
Q 834 -13 796 -20 
Q 759 -28 744 -31 
L 669 0 
L 216 -31 
Q 175 -25 145 -19 
Q 116 -13 92 0 
Q 69 13 51 34 
Q 34 56 16 97 
Q 16 153 48 189 
Q 81 225 128 250 
Q 175 275 225 295 
Q 275 316 306 334 
Q 306 341 314 345 
Q 322 350 328 356 
Q 356 384 389 421 
Q 422 459 438 503 
Q 441 506 447 522 
Q 453 538 459 556 
Q 466 575 470 590 
Q 475 606 475 609 
Q 509 700 556 773 
Q 603 847 638 919 
Q 641 922 647 937 
Q 653 953 659 972 
Q 666 991 670 1006 
Q 675 1022 675 1028 
L 728 1250 
Q 731 1253 737 1267 
Q 744 1281 750 1297 
Q 756 1313 761 1325 
Q 766 1338 766 1341 
L 822 1525 
Q 841 1594 870 1639 
Q 900 1684 928 1747 
L 944 1838 
Q 950 1850 956 1879 
Q 963 1909 966 1913 
L 1000 2022 
Q 1000 2034 1004 2056 
Q 1009 2078 1012 2103 
Q 1016 2128 1019 2151 
Q 1022 2175 1022 2184 
L 1022 2422 
Q 1022 2431 1030 2450 
Q 1038 2469 1047 2489 
Q 1056 2509 1068 2526 
Q 1081 2544 1097 2553 
L 1203 2591 
Q 1213 2591 1233 2614 
Q 1253 2638 1259 2644 
L 1366 2694 
L 1447 2772 
Q 1500 2772 1536 2730 
Q 1572 2688 1594 2644 
Q 1597 2628 1608 2593 
Q 1619 2559 1630 2520 
Q 1641 2481 1652 2447 
Q 1663 2413 1663 2400 
L 1663 2309 
Q 1669 2303 1675 2290 
Q 1681 2278 1684 2272 
Q 1728 2200 1759 2111 
Q 1791 2022 1816 1931 
Q 1822 1869 1823 1859 
Q 1825 1850 1831 1850 
Q 1859 1850 1873 1823 
Q 1888 1797 1903 1763 
L 1941 1659 
Q 1941 1650 1950 1629 
Q 1959 1609 1971 1584 
Q 1984 1559 1995 1536 
Q 2006 1513 2009 1503 
Q 2013 1500 2031 1475 
Q 2041 1463 2047 1453 
Q 2050 1447 2059 1420 
Q 2069 1394 2078 1362 
Q 2088 1331 2095 1304 
Q 2103 1278 2103 1272 
Q 2119 1209 2139 1145 
Q 2159 1081 2194 1028 
Q 2194 1019 2219 989 
Q 2244 959 2247 950 
L 2266 866 
Q 2278 813 2290 778 
Q 2303 744 2306 709 
Q 2306 700 2314 672 
Q 2322 644 2331 611 
Q 2341 578 2348 551 
Q 2356 525 2356 519 
Q 2363 484 2388 443 
Q 2413 403 2438 394 
Q 2441 391 2461 381 
Q 2481 372 2504 361 
Q 2528 350 2548 340 
Q 2569 331 2572 331 
Q 2609 306 2642 295 
Q 2675 284 2697 270 
Q 2719 256 2731 231 
Q 2744 206 2744 156 
Q 2744 109 2694 76 
Q 2644 44 2576 23 
Q 2509 3 2442 -6 
Q 2375 -16 2344 -16 
Q 2263 -16 2195 6 
Q 2128 28 2038 28 
L 1794 0 
Q 1763 0 1716 4 
Q 1669 9 1623 23 
Q 1578 38 1545 63 
Q 1513 88 1513 131 
Q 1513 191 1566 214 
Q 1619 238 1683 256 
Q 1747 275 1800 301 
Q 1853 328 1853 394 
L 1853 409 
z
M 1259 1216 
Q 1263 1216 1283 1211 
Q 1303 1206 1329 1200 
Q 1356 1194 1382 1187 
Q 1409 1181 1425 1178 
L 1497 1163 
Q 1500 1166 1522 1169 
Q 1544 1172 1569 1178 
L 1631 1191 
L 1572 1428 
Q 1566 1456 1561 1504 
Q 1556 1553 1556 1569 
Q 1556 1609 1548 1639 
Q 1541 1669 1528 1697 
Q 1516 1725 1500 1754 
Q 1484 1784 1469 1822 
Q 1463 1844 1427 1872 
Q 1391 1900 1366 1925 
Q 1356 1934 1334 1934 
Q 1306 1934 1278 1912 
Q 1250 1891 1216 1891 
Q 1188 1891 1158 1844 
Q 1128 1797 1101 1736 
Q 1075 1675 1058 1614 
Q 1041 1553 1038 1525 
L 1038 1288 
Q 1044 1278 1056 1250 
Q 1069 1222 1075 1216 
Q 1081 1209 1087 1201 
Q 1094 1194 1106 1194 
Q 1113 1194 1136 1197 
Q 1159 1200 1184 1204 
Q 1209 1209 1231 1212 
Q 1253 1216 1259 1216 
z
" transform="scale(0.015625)"/>
      <path id="IM_FELL_English_SC-57" d="M 1644 38 
Q 1609 38 1587 28 
Q 1566 19 1545 8 
Q 1525 -3 1503 -12 
Q 1481 -22 1450 -22 
Q 1416 -22 1383 -11 
Q 1350 0 1313 0 
Q 1241 -13 1181 -25 
Q 1122 -38 1059 -38 
L 994 -38 
Q 981 -22 979 -11 
Q 978 0 978 16 
Q 978 44 987 76 
Q 997 109 1013 131 
Q 1016 134 1027 145 
Q 1038 156 1050 167 
Q 1063 178 1075 189 
Q 1088 200 1094 206 
Q 1131 238 1165 247 
Q 1200 256 1236 262 
Q 1272 269 1309 287 
Q 1347 306 1391 356 
Q 1394 363 1403 377 
Q 1413 391 1413 394 
L 1413 675 
Q 1388 738 1372 809 
Q 1356 881 1356 947 
L 1356 978 
L 1391 1097 
Q 1391 1100 1386 1112 
Q 1381 1125 1373 1140 
Q 1366 1156 1361 1170 
Q 1356 1184 1356 1191 
L 1356 1250 
L 1378 1416 
Q 1378 1444 1367 1464 
Q 1356 1484 1356 1509 
L 1413 1622 
Q 1413 1628 1394 1659 
Q 1375 1691 1363 1697 
L 1363 2038 
L 1334 2097 
L 1334 2438 
Q 1334 2469 1301 2480 
Q 1269 2491 1223 2495 
Q 1178 2500 1129 2500 
Q 1081 2500 1053 2509 
Q 1047 2513 1003 2533 
Q 959 2553 925 2553 
Q 888 2553 864 2537 
Q 841 2522 819 2501 
Q 797 2481 772 2462 
Q 747 2444 713 2438 
Q 706 2434 681 2431 
Q 656 2428 628 2426 
Q 600 2425 575 2422 
Q 550 2419 547 2416 
Q 541 2416 531 2412 
Q 522 2409 513 2406 
L 488 2400 
Q 475 2388 445 2359 
Q 416 2331 413 2325 
Q 406 2316 400 2284 
Q 394 2253 394 2250 
L 353 2206 
L 328 2200 
Q 319 2197 309 2194 
Q 300 2191 297 2191 
Q 288 2184 269 2165 
Q 250 2147 226 2126 
Q 203 2106 184 2087 
Q 166 2069 156 2059 
Q 128 2059 108 2078 
Q 88 2097 72 2113 
L 72 2250 
Q 72 2303 76 2389 
Q 81 2475 101 2558 
Q 122 2641 167 2702 
Q 213 2763 297 2763 
L 503 2734 
Q 525 2734 559 2737 
Q 594 2741 600 2741 
Q 606 2741 637 2748 
Q 669 2756 769 2756 
Q 847 2766 925 2780 
Q 1003 2794 1081 2794 
Q 1125 2794 1165 2783 
Q 1206 2772 1253 2772 
L 1444 2794 
L 1488 2794 
Q 1509 2794 1528 2787 
Q 1547 2781 1563 2756 
L 1791 2756 
Q 1794 2756 1826 2764 
Q 1859 2772 1866 2778 
L 1903 2778 
Q 1922 2775 1959 2770 
Q 1997 2766 2033 2762 
Q 2069 2759 2097 2757 
Q 2125 2756 2131 2756 
L 2169 2741 
Q 2175 2738 2181 2738 
Q 2188 2734 2194 2734 
Q 2244 2734 2280 2767 
Q 2316 2800 2353 2816 
Q 2378 2822 2422 2837 
Q 2466 2853 2472 2853 
L 2753 2853 
Q 2759 2847 2781 2840 
Q 2803 2834 2813 2834 
L 2947 2834 
Q 2950 2834 2961 2823 
Q 2972 2813 2986 2797 
Q 3000 2781 3014 2765 
Q 3028 2750 3034 2741 
Q 3088 2675 3109 2622 
Q 3131 2569 3131 2475 
Q 3131 2469 3123 2447 
Q 3116 2425 3109 2416 
L 3109 2113 
Q 3109 2100 3096 2098 
Q 3084 2097 3075 2097 
Q 3056 2097 3047 2098 
Q 3038 2100 3016 2113 
L 2866 2206 
Q 2856 2216 2826 2241 
Q 2797 2266 2762 2294 
Q 2728 2322 2697 2347 
Q 2666 2372 2656 2378 
Q 2656 2384 2631 2400 
Q 2606 2416 2600 2416 
L 2525 2475 
Q 2516 2481 2494 2490 
Q 2472 2500 2451 2509 
Q 2431 2519 2414 2525 
Q 2397 2531 2394 2531 
L 2094 2531 
Q 2088 2528 2078 2522 
Q 2059 2509 2056 2509 
Q 2041 2500 2011 2484 
Q 1981 2469 1951 2451 
Q 1922 2434 1897 2418 
Q 1872 2403 1866 2400 
Q 1850 2394 1847 2384 
Q 1844 2375 1844 2369 
L 1844 2325 
Q 1844 2316 1853 2303 
Q 1859 2294 1866 2288 
Q 1891 2172 1908 2067 
Q 1925 1963 1941 1850 
Q 1956 1734 1975 1625 
Q 1994 1516 1994 1400 
L 1994 1097 
Q 1997 1088 2000 1055 
Q 2003 1022 2006 983 
Q 2009 944 2012 909 
Q 2016 875 2016 866 
L 1994 600 
Q 1994 575 1995 533 
Q 1997 491 2005 448 
Q 2013 406 2028 368 
Q 2044 331 2072 319 
Q 2084 316 2117 306 
Q 2150 297 2186 284 
Q 2222 272 2253 261 
Q 2284 250 2297 244 
Q 2359 222 2387 195 
Q 2416 169 2416 103 
Q 2416 56 2394 25 
Q 2372 -6 2337 -25 
Q 2303 -44 2261 -51 
Q 2219 -59 2178 -59 
L 2131 -59 
L 2072 -22 
L 1925 -22 
Q 1916 -19 1884 -11 
Q 1853 -3 1817 8 
Q 1781 19 1751 26 
Q 1722 34 1716 38 
L 1644 38 
z
" transform="scale(0.015625)"/>
      <path id="IM_FELL_English_SC-55" d="M 209 134 
Q 209 141 225 169 
Q 241 197 247 206 
Q 291 263 366 286 
Q 441 309 513 309 
Q 534 309 551 309 
Q 569 309 588 303 
Q 622 328 645 362 
Q 669 397 684 438 
Q 681 450 678 479 
Q 675 509 675 547 
Q 675 581 678 614 
Q 681 647 684 659 
Q 691 709 716 750 
Q 741 791 741 844 
L 741 872 
L 703 947 
L 703 1038 
Q 694 1122 678 1208 
Q 663 1294 663 1384 
L 703 1613 
L 697 1731 
Q 697 1744 697 1758 
Q 697 1772 703 1784 
Q 709 1834 714 1884 
Q 719 1934 719 1984 
Q 719 2034 714 2082 
Q 709 2131 703 2184 
Q 697 2219 698 2258 
Q 700 2297 684 2331 
Q 659 2378 625 2420 
Q 591 2463 550 2494 
Q 513 2525 469 2533 
Q 425 2541 379 2545 
Q 334 2550 295 2565 
Q 256 2581 231 2628 
Q 228 2631 228 2638 
Q 225 2641 225 2650 
Q 225 2678 242 2695 
Q 259 2713 282 2722 
Q 306 2731 334 2734 
Q 363 2738 381 2741 
L 513 2741 
Q 556 2747 604 2765 
Q 653 2784 703 2784 
Q 709 2784 725 2784 
Q 741 2784 741 2778 
Q 744 2778 775 2759 
Q 806 2741 816 2741 
L 944 2741 
L 1150 2725 
Q 1156 2719 1176 2719 
Q 1197 2719 1203 2719 
Q 1253 2719 1286 2730 
Q 1319 2741 1372 2741 
Q 1484 2741 1603 2731 
Q 1722 2722 1838 2688 
Q 1913 2666 1981 2652 
Q 2050 2638 2111 2617 
Q 2172 2597 2226 2561 
Q 2281 2525 2328 2459 
Q 2366 2403 2389 2367 
Q 2413 2331 2425 2295 
Q 2438 2259 2441 2214 
Q 2444 2169 2444 2097 
Q 2444 2034 2426 1976 
Q 2409 1919 2363 1872 
Q 2353 1863 2328 1834 
Q 2303 1806 2272 1776 
Q 2241 1747 2214 1719 
Q 2188 1691 2178 1681 
Q 2166 1681 2136 1675 
Q 2106 1669 2103 1659 
Q 2097 1656 2073 1645 
Q 2050 1634 2023 1623 
Q 1997 1613 1975 1602 
Q 1953 1591 1950 1591 
Q 1934 1584 1914 1581 
Q 1894 1578 1875 1573 
Q 1856 1569 1843 1558 
Q 1831 1547 1831 1525 
Q 1831 1484 1843 1439 
Q 1856 1394 1876 1351 
Q 1897 1309 1925 1271 
Q 1953 1234 1984 1213 
Q 1991 1206 2014 1189 
Q 2038 1172 2044 1172 
L 2063 1150 
Q 2069 1147 2092 1114 
Q 2116 1081 2125 1075 
Q 2125 1075 2137 1061 
Q 2150 1047 2165 1031 
Q 2181 1016 2195 1000 
Q 2209 984 2216 978 
Q 2219 972 2234 939 
Q 2250 906 2269 868 
Q 2288 831 2305 798 
Q 2322 766 2328 756 
Q 2331 750 2347 728 
Q 2363 706 2383 678 
Q 2403 650 2425 623 
Q 2447 597 2459 584 
Q 2494 544 2531 516 
Q 2569 488 2609 453 
L 2763 341 
L 2956 319 
Q 2969 316 2997 303 
Q 3025 291 3051 270 
Q 3078 250 3098 226 
Q 3119 203 3119 178 
Q 3119 166 3103 136 
Q 3088 106 3064 76 
Q 3041 47 3014 23 
Q 2988 0 2966 0 
L 2706 0 
Q 2672 28 2606 40 
Q 2541 53 2497 59 
L 2269 59 
Q 2144 103 2084 189 
Q 2025 275 1984 394 
Q 1984 400 1973 423 
Q 1963 447 1928 491 
L 1906 584 
Q 1906 591 1901 603 
Q 1897 616 1891 622 
Q 1872 650 1839 698 
Q 1806 747 1773 797 
Q 1741 847 1714 883 
Q 1688 919 1684 925 
L 1459 1172 
Q 1416 1216 1359 1244 
Q 1303 1272 1247 1272 
Q 1234 1272 1225 1269 
Q 1216 1266 1209 1250 
Q 1209 1241 1212 1223 
Q 1216 1206 1216 1184 
Q 1216 1163 1212 1144 
Q 1209 1125 1209 1119 
L 1194 1038 
L 1194 816 
Q 1194 809 1186 775 
Q 1178 741 1172 725 
Q 1172 659 1189 617 
Q 1206 575 1231 513 
L 1209 416 
Q 1209 359 1251 346 
Q 1294 334 1342 328 
Q 1391 322 1433 297 
Q 1475 272 1475 194 
Q 1475 147 1448 123 
Q 1422 100 1384 90 
Q 1347 81 1305 79 
Q 1263 78 1231 75 
L 869 75 
Q 853 72 811 67 
Q 769 63 720 58 
Q 672 53 628 47 
Q 584 41 566 38 
Q 531 13 514 6 
Q 497 0 469 0 
Q 419 0 389 19 
Q 359 38 322 59 
Q 319 59 294 64 
Q 269 69 263 75 
Q 250 84 229 107 
Q 209 131 209 134 
z
M 1134 1872 
Q 1141 1863 1145 1831 
Q 1150 1800 1150 1794 
Q 1159 1766 1162 1731 
Q 1166 1697 1172 1662 
Q 1178 1628 1190 1600 
Q 1203 1572 1231 1553 
Q 1288 1509 1333 1492 
Q 1378 1475 1459 1475 
Q 1466 1475 1486 1483 
Q 1506 1491 1513 1491 
L 1684 1606 
Q 1703 1619 1731 1630 
Q 1759 1641 1784 1656 
Q 1809 1672 1829 1690 
Q 1850 1709 1853 1734 
Q 1853 1741 1856 1766 
Q 1859 1791 1862 1820 
Q 1866 1850 1869 1881 
Q 1872 1913 1875 1931 
L 1875 1953 
Q 1875 2094 1823 2228 
Q 1772 2363 1663 2459 
Q 1628 2494 1592 2523 
Q 1556 2553 1503 2553 
L 1459 2553 
L 1269 2534 
Q 1188 2478 1169 2404 
Q 1150 2331 1150 2238 
L 1150 2006 
Q 1150 1997 1145 1955 
Q 1141 1913 1134 1891 
L 1134 1872 
z
" transform="scale(0.015625)"/>
      <path id="IM_FELL_English_SC-52" d="M 444 675 
Q 444 697 437 731 
Q 431 766 428 778 
Q 422 788 397 808 
Q 372 828 369 831 
Q 353 856 345 890 
Q 338 925 331 950 
Q 325 972 311 1014 
Q 297 1056 291 1066 
Q 291 1072 275 1095 
Q 259 1119 253 1125 
L 238 1156 
Q 238 1166 245 1197 
Q 253 1228 253 1231 
Q 253 1247 256 1294 
Q 259 1341 259 1394 
Q 259 1447 256 1492 
Q 253 1538 253 1556 
L 275 1616 
Q 275 1619 276 1639 
Q 278 1659 281 1682 
Q 284 1706 287 1726 
Q 291 1747 291 1753 
Q 297 1766 325 1800 
Q 353 1834 369 1850 
Q 369 1853 359 1873 
Q 350 1894 350 1903 
Q 347 1903 347 1906 
L 347 1913 
L 350 1925 
Q 375 1969 409 2023 
Q 444 2078 488 2113 
Q 522 2144 555 2167 
Q 588 2191 616 2228 
Q 644 2263 664 2308 
Q 684 2353 713 2394 
Q 713 2400 719 2406 
Q 725 2413 731 2416 
Q 800 2466 872 2523 
Q 944 2581 1016 2622 
Q 1019 2625 1036 2634 
Q 1053 2644 1073 2653 
Q 1094 2663 1109 2670 
Q 1125 2678 1131 2681 
L 1206 2741 
Q 1216 2744 1244 2745 
Q 1272 2747 1303 2750 
Q 1334 2753 1362 2754 
Q 1391 2756 1400 2756 
Q 1403 2759 1415 2765 
Q 1428 2772 1443 2778 
Q 1459 2784 1473 2789 
Q 1488 2794 1491 2794 
Q 1544 2809 1611 2823 
Q 1678 2838 1734 2838 
Q 1813 2838 1889 2808 
Q 1966 2778 2044 2763 
Q 2128 2744 2212 2726 
Q 2297 2709 2380 2687 
Q 2463 2666 2541 2633 
Q 2619 2600 2694 2547 
Q 2697 2544 2709 2530 
Q 2722 2516 2737 2500 
Q 2753 2484 2768 2470 
Q 2784 2456 2791 2453 
Q 2794 2450 2826 2444 
Q 2859 2438 2866 2438 
Q 2878 2428 2884 2411 
Q 2891 2394 2895 2373 
Q 2900 2353 2904 2334 
Q 2909 2316 2919 2303 
Q 2922 2300 2930 2287 
Q 2938 2275 2948 2262 
Q 2959 2250 2967 2239 
Q 2975 2228 2978 2228 
L 2994 2131 
Q 3003 2116 3033 2087 
Q 3063 2059 3072 2053 
L 3072 1881 
Q 3072 1859 3086 1828 
Q 3100 1797 3115 1762 
Q 3131 1728 3147 1693 
Q 3163 1659 3169 1631 
Q 3178 1584 3181 1550 
Q 3184 1516 3187 1483 
Q 3191 1450 3191 1415 
Q 3191 1381 3191 1334 
L 3191 1216 
Q 3191 1209 3181 1167 
Q 3172 1125 3169 1103 
Q 3163 1084 3156 1056 
Q 3150 1028 3145 1000 
Q 3141 972 3136 951 
Q 3131 931 3131 931 
Q 3125 922 3106 894 
Q 3088 866 3064 833 
Q 3041 800 3020 773 
Q 3000 747 2994 741 
Q 2994 738 2983 719 
Q 2972 700 2959 676 
Q 2947 653 2934 633 
Q 2922 613 2919 606 
Q 2878 550 2826 501 
Q 2775 453 2731 400 
Q 2703 363 2693 347 
Q 2684 331 2653 303 
Q 2609 269 2571 250 
Q 2534 231 2497 191 
Q 2497 184 2484 159 
Q 2472 134 2466 134 
Q 2459 131 2443 128 
Q 2428 125 2408 122 
Q 2388 119 2370 117 
Q 2353 116 2347 113 
Q 2328 103 2279 83 
Q 2231 63 2176 39 
Q 2122 16 2073 -7 
Q 2025 -31 2006 -44 
L 1822 -44 
Q 1547 -44 1281 53 
L 1244 75 
Q 1238 84 1228 94 
Q 1209 113 1206 113 
Q 1203 116 1189 119 
Q 1175 122 1159 125 
Q 1144 128 1128 131 
Q 1113 134 1109 134 
Q 997 159 908 218 
Q 819 278 744 353 
Q 669 428 597 511 
Q 525 594 444 666 
L 444 675 
z
M 1169 491 
Q 1163 481 1163 466 
Q 1163 441 1180 422 
Q 1197 403 1219 389 
Q 1241 375 1264 362 
Q 1288 350 1303 341 
Q 1334 316 1367 286 
Q 1400 256 1436 229 
Q 1472 203 1509 186 
Q 1547 169 1594 169 
Q 1628 163 1659 159 
Q 1691 156 1725 156 
Q 1753 156 1779 159 
Q 1806 163 1831 169 
L 1891 191 
L 1978 194 
L 2066 191 
Q 2072 194 2081 197 
Q 2094 200 2103 209 
Q 2113 216 2128 223 
Q 2144 231 2159 241 
Q 2175 253 2194 266 
Q 2200 269 2217 286 
Q 2234 303 2253 322 
Q 2272 341 2287 358 
Q 2303 375 2309 378 
L 2369 416 
Q 2391 438 2425 477 
Q 2459 516 2490 561 
Q 2522 606 2545 650 
Q 2569 694 2572 725 
Q 2575 734 2579 753 
Q 2584 772 2587 794 
Q 2591 816 2592 833 
Q 2594 850 2594 853 
Q 2613 1031 2613 1200 
Q 2613 1334 2594 1466 
Q 2581 1484 2579 1506 
Q 2578 1528 2578 1553 
L 2578 1628 
Q 2578 1659 2572 1675 
Q 2569 1713 2541 1742 
Q 2513 1772 2497 1806 
Q 2472 1863 2458 1911 
Q 2444 1959 2422 2016 
Q 2419 2022 2416 2031 
Q 2413 2041 2406 2053 
L 2347 2153 
Q 2347 2156 2340 2187 
Q 2334 2219 2331 2228 
Q 2266 2319 2167 2364 
Q 2069 2409 1969 2453 
Q 1959 2459 1936 2465 
Q 1913 2472 1909 2472 
L 1778 2472 
L 1681 2494 
L 1491 2494 
L 1378 2438 
Q 1344 2422 1319 2419 
Q 1294 2416 1266 2394 
Q 1213 2359 1163 2320 
Q 1113 2281 1053 2244 
Q 1050 2244 1048 2241 
Q 1047 2238 1041 2234 
Q 1034 2231 1031 2228 
Q 1031 2222 1029 2208 
Q 1028 2194 1025 2178 
Q 1022 2163 1020 2148 
Q 1019 2134 1016 2131 
L 978 2094 
Q 969 2081 958 2057 
Q 947 2034 934 2011 
Q 922 1988 914 1967 
Q 906 1947 903 1941 
L 903 1850 
Q 900 1844 894 1825 
Q 888 1806 881 1787 
Q 875 1769 870 1751 
Q 866 1734 866 1731 
L 866 1703 
L 903 1519 
Q 903 1484 884 1461 
Q 866 1438 866 1400 
Q 866 1300 897 1226 
Q 928 1153 941 1066 
L 978 725 
L 1016 666 
Q 1019 663 1025 644 
Q 1028 634 1031 628 
L 1169 491 
z
" transform="scale(0.015625)"/>
      <path id="IM_FELL_English_SC-51" d="M 525 6 
Q 469 6 428 9 
Q 388 13 325 28 
Q 291 34 286 43 
Q 281 53 281 81 
Q 281 163 343 197 
Q 406 231 478 238 
L 628 238 
Q 634 238 662 267 
Q 691 297 703 313 
Q 713 319 727 341 
Q 741 363 741 369 
Q 744 381 747 414 
Q 750 447 753 483 
Q 756 519 759 550 
Q 763 581 763 594 
L 741 838 
L 741 881 
Q 741 897 744 912 
Q 747 928 763 941 
L 763 1075 
L 741 1466 
L 741 1644 
Q 750 1656 764 1697 
Q 778 1738 778 1772 
Q 778 1881 750 1970 
Q 722 2059 688 2156 
Q 688 2163 680 2188 
Q 672 2213 666 2216 
Q 653 2244 645 2258 
Q 638 2272 613 2294 
Q 603 2300 579 2317 
Q 556 2334 529 2356 
Q 503 2378 476 2398 
Q 450 2419 438 2428 
Q 400 2456 351 2476 
Q 303 2497 258 2522 
Q 213 2547 178 2581 
Q 144 2616 138 2675 
Q 138 2681 142 2701 
Q 147 2722 153 2731 
Q 156 2738 170 2750 
Q 184 2763 191 2769 
L 266 2769 
Q 300 2772 326 2789 
Q 353 2806 391 2806 
Q 456 2806 520 2790 
Q 584 2775 650 2769 
Q 656 2766 684 2762 
Q 713 2759 744 2757 
Q 775 2756 803 2754 
Q 831 2753 838 2753 
Q 844 2747 881 2726 
Q 919 2706 931 2694 
L 1028 2578 
Q 1094 2528 1155 2475 
Q 1216 2422 1278 2369 
Q 1278 2363 1293 2358 
Q 1309 2353 1316 2353 
Q 1319 2347 1325 2340 
Q 1331 2334 1331 2331 
L 1375 2253 
L 1503 2119 
Q 1509 2113 1523 2081 
Q 1538 2050 1541 2044 
Q 1575 1988 1615 1953 
Q 1656 1919 1698 1891 
Q 1741 1863 1783 1833 
Q 1825 1803 1866 1756 
Q 1938 1678 1984 1603 
Q 2031 1528 2094 1438 
Q 2094 1431 2101 1426 
Q 2109 1422 2116 1416 
L 2169 1378 
Q 2178 1372 2201 1347 
Q 2225 1322 2253 1294 
Q 2281 1266 2306 1241 
Q 2331 1216 2341 1213 
Q 2347 1203 2369 1187 
Q 2391 1172 2397 1169 
Q 2416 1153 2437 1123 
Q 2459 1094 2481 1066 
Q 2503 1038 2525 1016 
Q 2547 994 2569 994 
Q 2603 994 2629 1014 
Q 2656 1034 2681 1053 
Q 2716 1078 2720 1089 
Q 2725 1100 2725 1131 
L 2681 1413 
L 2703 1681 
Q 2703 1684 2697 1696 
Q 2691 1709 2683 1721 
Q 2675 1734 2670 1745 
Q 2666 1756 2666 1756 
L 2666 1831 
Q 2666 1841 2658 1862 
Q 2650 1884 2644 1891 
L 2644 2178 
Q 2644 2188 2642 2213 
Q 2641 2238 2637 2266 
Q 2634 2294 2632 2319 
Q 2631 2344 2628 2353 
Q 2622 2381 2598 2404 
Q 2575 2428 2541 2428 
Q 2506 2428 2468 2417 
Q 2431 2406 2391 2406 
Q 2369 2406 2317 2409 
Q 2266 2413 2212 2423 
Q 2159 2434 2118 2456 
Q 2078 2478 2078 2519 
L 2078 2616 
Q 2078 2653 2079 2689 
Q 2081 2725 2093 2750 
Q 2106 2775 2132 2790 
Q 2159 2806 2206 2806 
Q 2291 2806 2377 2787 
Q 2463 2769 2541 2769 
Q 2584 2769 2640 2776 
Q 2697 2784 2741 2806 
L 3119 2806 
Q 3144 2791 3175 2787 
Q 3206 2784 3241 2784 
L 3316 2784 
Q 3356 2763 3362 2720 
Q 3369 2678 3369 2634 
L 3369 2616 
Q 3369 2531 3294 2481 
L 3119 2369 
Q 3119 2366 3106 2362 
Q 3094 2359 3078 2357 
Q 3063 2356 3047 2354 
Q 3031 2353 3028 2353 
Q 3016 2347 3000 2319 
Q 2984 2291 2968 2255 
Q 2953 2219 2942 2189 
Q 2931 2159 2931 2153 
L 2953 2053 
Q 2953 2050 2953 2039 
Q 2953 2028 2947 2028 
Q 2947 2022 2939 2006 
Q 2931 1991 2931 1984 
Q 2922 1950 2922 1906 
Q 2922 1863 2920 1817 
Q 2919 1772 2914 1731 
Q 2909 1691 2894 1666 
L 2878 1178 
Q 2881 1094 2911 1020 
Q 2941 947 2947 866 
L 2969 519 
Q 2975 491 2988 459 
Q 3003 400 3028 331 
L 3028 44 
Q 3028 9 2993 -11 
Q 2959 -31 2931 -31 
Q 2897 -31 2859 -12 
Q 2822 6 2784 32 
Q 2747 59 2715 89 
Q 2684 119 2666 141 
Q 2656 150 2639 170 
Q 2622 191 2603 212 
Q 2584 234 2568 251 
Q 2553 269 2547 275 
Q 2547 281 2533 314 
Q 2519 347 2516 350 
Q 2509 353 2489 373 
Q 2469 394 2445 417 
Q 2422 441 2401 461 
Q 2381 481 2378 488 
Q 2281 584 2206 691 
Q 2172 744 2131 772 
Q 2091 800 2056 844 
Q 2056 850 2040 872 
Q 2025 894 2019 903 
Q 2016 906 2008 920 
Q 2000 934 1990 950 
Q 1981 966 1973 980 
Q 1966 994 1963 994 
Q 1919 1053 1850 1089 
Q 1781 1125 1731 1169 
L 1678 1228 
Q 1672 1231 1655 1254 
Q 1638 1278 1638 1288 
L 1525 1378 
L 1278 1644 
Q 1266 1656 1239 1682 
Q 1213 1709 1184 1737 
Q 1156 1766 1132 1787 
Q 1109 1809 1103 1816 
Q 1088 1828 1073 1833 
Q 1059 1838 1034 1838 
Q 997 1838 983 1814 
Q 969 1791 969 1756 
Q 969 1750 969 1726 
Q 969 1703 975 1703 
L 991 1553 
L 991 1288 
L 1006 994 
Q 1009 994 1012 978 
Q 1016 963 1019 944 
Q 1022 925 1025 908 
Q 1028 891 1028 888 
L 1028 691 
Q 1028 688 1036 655 
Q 1044 622 1050 616 
Q 1056 544 1072 470 
Q 1088 397 1088 325 
Q 1088 309 1088 289 
Q 1088 269 1081 253 
L 1103 238 
Q 1122 234 1165 229 
Q 1209 225 1257 219 
Q 1306 213 1348 205 
Q 1391 197 1406 194 
Q 1463 191 1475 172 
Q 1488 153 1488 103 
Q 1488 19 1425 -6 
Q 1363 -31 1294 -31 
Q 1259 -31 1236 -28 
Q 1213 -25 1194 -19 
Q 1175 -13 1154 -5 
Q 1134 3 1103 9 
Q 1088 9 1052 18 
Q 1016 28 1006 28 
L 850 28 
L 525 6 
z
" transform="scale(0.015625)"/>
     </defs>
     <use xlink:href="#IM_FELL_English_SC-2f"/>
     <use xlink:href="#IM_FELL_English_SC-48" transform="translate(71.140625 0)"/>
     <use xlink:href="#IM_FELL_English_SC-3" transform="translate(116.984375 0)"/>
     <use xlink:href="#IM_FELL_English_SC-53" transform="translate(138.421875 0)"/>
     <use xlink:href="#IM_FELL_English_SC-44" transform="translate(179.390625 0)"/>
     <use xlink:href="#IM_FELL_English_SC-57" transform="translate(220.953125 0)"/>
     <use xlink:href="#IM_FELL_English_SC-55" transform="translate(272.171875 0)"/>
     <use xlink:href="#IM_FELL_English_SC-52" transform="translate(320.03125 0)"/>
     <use xlink:href="#IM_FELL_English_SC-51" transform="translate(373.453125 0)"/>
    </g>
   </g>
  </g>
 </g>
 <defs>
  <clipPath id="p57d893c4b9">
   <rect x="0" y="0" width="576" height="576"/>
  </clipPath>
 </defs>
</svg>
