<?xml version="1.0" encoding="utf-8" standalone="no"?>
<!DOCTYPE svg PUBLIC "-//W3C//DTD SVG 1.1//EN"
  "http://www.w3.org/Graphics/SVG/1.1/DTD/svg11.dtd">
<svg xmlns:xlink="http://www.w3.org/1999/xlink" width="576pt" height="576pt" viewBox="0 0 576 576" xmlns="http://www.w3.org/2000/svg" version="1.1">
 <metadata>
  <rdf:RDF xmlns:dc="http://purl.org/dc/elements/1.1/" xmlns:cc="http://creativecommons.org/ns#" xmlns:rdf="http://www.w3.org/1999/02/22-rdf-syntax-ns#">
   <cc:Work>
    <dc:type rdf:resource="http://purl.org/dc/dcmitype/StillImage"/>
    <dc:date>2026-10-10T17:43:22.703281</dc:date>
    <dc:format>image/svg+xml</dc:format>
    <dc:creator>
     <cc:Agent>
      <dc:title>Matplotlib v3.11.2, https://matplotlib.org/</dc:title>
     </cc:Agent>
    </dc:creator>
   </cc:Work>
  </rdf:RDF>
 </metadata>
 <defs>
  <style type="text/css">*{stroke-linejoin: round; stroke-linecap: butt}</style>
 </defs>
 <g id="figure_1">
  <g id="patch_1">
   <path d="M 0 576 
L 576 576 
L 576 0 
L 0 0 
z
" style="fill: #ffffff"/>
  </g>
  <g id="axes_1">
   <g id="patch_2">
    <path d="M -0 576 
L 576 576 
L 576 0 
L -0 0 
z
" clip-path="url(#p9d252c684f)" style="fill: #ffffff"/>
   </g>
   <g id="patch_3">
    <path d="M 242.122545 206.797207 
L 242.206304 207.632271 
L 242.199538 207.569568 
L 242.282722 208.289631 
L 242.274934 208.22643 
L 242.368289 208.939355 
L 242.359448 208.875639 
L 242.462881 209.581248 
L 242.452953 209.516998 
L 242.566374 210.21511 
L 242.555324 210.150308 
L 242.67864 210.840743 
L 242.666428 210.775373 
L 242.799548 211.457951 
L 242.786134 211.391993 
L 242.928966 212.066535 
L 242.914305 211.999972 
L 243.066757 212.666297 
L 243.050802 212.599113 
L 243.212783 213.257042 
L 243.195483 213.18922 
L 243.366901 213.838573 
L 243.348203 213.770097 
L 243.528966 214.410693 
L 243.508813 214.341549 
L 243.698829 214.97321 
L 243.677159 214.903385 
L 243.876338 215.525929 
L 243.853085 215.455411 
L 244.061335 216.06866 
L 244.036432 215.997439 
L 244.25366 216.601212 
L 244.227035 216.529281 
L 244.45315 217.123399 
L 244.424725 217.050754 
L 244.659636 217.635036 
L 244.629331 217.561674 
L 244.872945 218.135941 
L 244.840675 218.061865 
L 245.092901 218.625937 
L 245.058576 218.551152 
L 245.319323 219.104849 
L 245.28285 219.029366 
L 245.533054 219.534229 
L 245.770686 219.990125 
L 246.014165 220.434461 
L 246.263292 220.867086 
L 246.517865 221.287863 
L 246.77768 221.696659 
L 247.042531 222.093352 
L 247.31221 222.477831 
L 247.586507 222.849996 
L 247.865216 223.209759 
L 248.148128 223.557043 
L 248.435041 223.891788 
L 248.725755 224.213946 
L 249.020077 224.523486 
L 249.317824 224.82039 
L 249.61882 225.104657 
L 249.922903 225.376302 
L 250.229928 225.635356 
L 250.539766 225.881864 
L 250.852307 226.115883 
L 251.167466 226.337485 
L 251.485183 226.546753 
L 251.805424 226.743776 
L 252.128188 226.92865 
L 252.453501 227.101473 
L 252.781425 227.262341 
L 253.112056 227.411346 
L 253.44552 227.54857 
L 253.781978 227.674082 
L 254.121623 227.787932 
L 254.464674 227.890147 
L 254.81138 227.980729 
L 255.162009 228.059649 
L 255.516847 228.126846 
L 255.876196 228.182224 
L 256.240363 228.225648 
L 256.609657 228.256947 
L 256.984385 228.275913 
L 262.107 228.361909 
L 261.372445 234.201487 
L 261.369342 234.225592 
L 261.211624 235.423301 
L 261.20849 235.446599 
L 261.044711 236.638648 
L 261.041561 236.66112 
L 260.871982 237.847714 
L 260.868834 237.869342 
L 260.693715 239.050688 
L 260.690584 239.071453 
L 260.510186 240.247757 
L 260.507087 240.267641 
L 260.32167 241.43911 
L 260.31862 241.458097 
L 260.128444 242.624937 
L 260.125458 242.643012 
L 259.930784 243.805428 
L 259.927876 243.822576 
L 259.728965 244.980775 
L 259.726148 244.996982 
L 259.52326 246.15117 
L 259.52055 246.166422 
L 259.313945 247.316806 
L 259.311354 247.331091 
L 259.101293 248.477877 
L 259.098833 248.491183 
L 258.885577 249.634576 
L 258.88326 249.646893 
L 258.667068 250.7871 
L 258.664907 250.798417 
L 258.44604 251.935645 
L 258.444043 251.945952 
L 258.222762 253.080407 
L 258.220939 253.089696 
L 257.997504 254.221583 
L 257.995864 254.229846 
L 257.770536 255.359372 
L 257.769087 255.366602 
L 257.542126 256.493973 
L 257.540875 256.500163 
L 257.312542 257.625585 
L 257.311495 257.630729 
L 257.082049 258.754408 
L 257.081211 258.758501 
L 256.850915 259.880644 
L 256.85029 259.883681 
L 256.619402 261.004494 
L 256.618995 261.006471 
L 256.387776 262.12616 
L 256.387587 262.127073 
L 256.156299 263.245844 
L 256.15633 263.245692 
L 255.925232 264.363751 
L 255.925484 264.362531 
L 255.694837 265.480085 
L 255.695309 265.477796 
L 255.465373 266.595051 
L 255.466063 266.591691 
L 255.237099 267.708853 
L 255.238005 267.704423 
L 255.010273 268.821698 
L 255.01139 268.816199 
L 254.785151 269.933794 
L 254.786475 269.927227 
L 254.561989 271.045347 
L 254.563514 271.037714 
L 254.341042 272.156566 
L 254.342762 272.14787 
L 254.122564 273.26766 
L 254.12447 273.257904 
L 253.906807 274.378839 
L 253.908891 274.368028 
L 253.694023 275.490313 
L 253.696276 275.478452 
L 253.484463 276.602294 
L 253.486874 276.589389 
L 253.278377 277.714993 
L 253.280935 277.701052 
L 253.076015 278.828625 
L 253.078708 278.813654 
L 252.877624 279.943402 
L 252.880439 279.927411 
L 252.683453 281.059541 
L 252.686375 281.042538 
L 252.493747 282.177255 
L 252.496763 282.159252 
L 252.308753 283.296763 
L 252.311848 283.27777 
L 252.128717 284.418282 
L 252.131874 284.398312 
L 251.953882 285.54203 
L 251.957086 285.521097 
L 251.784494 286.668227 
L 251.787727 286.646346 
L 251.620795 287.797095 
L 251.624041 287.774281 
L 251.46303 288.928854 
L 251.46627 288.905124 
L 251.31144 290.063728 
L 251.314657 290.039099 
L 251.166269 291.201941 
L 251.169445 291.176432 
L 251.027758 292.343717 
L 251.030874 292.317349 
L 250.896151 293.489284 
L 250.899188 293.462077 
L 250.771688 294.638867 
L 250.774629 294.610844 
L 250.654612 295.792696 
L 250.657438 295.763879 
L 250.545164 296.951 
L 250.547857 296.921414 
L 250.443588 298.114009 
L 250.446129 298.083679 
L 250.350125 299.281955 
L 250.352496 299.250908 
L 250.265018 300.45507 
L 250.267203 300.423333 
L 250.18851 301.633588 
L 250.188965 301.626498 
L 250.112311 302.837092 
L 250.111154 302.854761 
L 250.029731 304.059926 
L 250.028535 304.077103 
L 249.942513 305.277026 
L 249.941285 305.293695 
L 249.850835 306.488565 
L 249.849582 306.504713 
L 249.754875 307.694717 
L 249.753603 307.710331 
L 249.654809 308.895656 
L 249.653526 308.910723 
L 249.550815 310.091557 
L 249.549528 310.106065 
L 249.443072 311.282595 
L 249.441788 311.296531 
L 249.331756 312.468945 
L 249.330482 312.482299 
L 249.217046 313.650784 
L 249.215787 313.663544 
L 249.099117 314.828289 
L 249.097882 314.840445 
L 248.978148 316.001636 
L 248.976942 316.013177 
L 248.854315 317.171002 
L 248.853144 317.181919 
L 248.727795 318.336566 
L 248.726666 318.346851 
L 248.598764 319.498507 
L 248.597682 319.508149 
L 248.467399 320.657002 
L 248.466369 320.665995 
L 248.333876 321.812232 
L 248.332904 321.820568 
L 248.198369 322.964377 
L 248.19746 322.972049 
L 248.061056 324.113617 
L 248.060213 324.120618 
L 247.922109 325.260134 
L 247.921338 325.266458 
L 247.781706 326.404108 
L 247.781009 326.409751 
L 247.640019 327.545723 
L 247.6394 327.550679 
L 247.497222 328.685161 
L 247.496685 328.689426 
L 247.35349 329.822605 
L 247.353037 329.826176 
L 247.208995 330.958239 
L 247.208628 330.961112 
L 247.06391 332.092248 
L 247.063631 332.09442 
L 246.918407 333.224816 
L 246.918218 333.226286 
L 246.772659 334.356129 
L 246.77256 334.356895 
L 246.626836 335.486373 
L 246.626828 335.486434 
L 246.48111 336.615735 
L 246.481194 336.615091 
L 246.335652 337.744401 
L 246.335826 337.743053 
L 246.190632 338.872561 
L 246.190895 338.870508 
L 246.046219 340.000401 
L 246.046571 339.997645 
L 245.902582 341.128111 
L 245.903021 341.124654 
L 245.759891 342.25588 
L 245.760415 342.251725 
L 245.618314 343.383899 
L 245.61892 343.379048 
L 245.478019 344.512357 
L 245.478705 344.506815 
L 245.339174 345.641447 
L 245.339935 345.635217 
L 245.201946 346.771359 
L 245.202779 346.764446 
L 245.066501 347.902287 
L 245.067403 347.894696 
L 244.933006 349.034422 
L 244.933972 349.02616 
L 244.801628 350.167959 
L 244.802653 350.159031 
L 244.672532 351.303091 
L 244.673611 351.293504 
L 244.545884 352.440012 
L 244.547011 352.429775 
L 244.421848 353.578919 
L 244.423018 353.568038 
L 244.300589 354.720005 
L 244.301797 354.708491 
L 244.182273 355.863468 
L 244.183511 355.851329 
L 244.067062 357.009505 
L 244.068325 356.996749 
L 243.955123 358.158311 
L 243.956403 358.144951 
L 243.846618 359.310086 
L 243.847909 359.29613 
L 243.741711 360.465027 
L 243.743006 360.450488 
L 243.640565 361.623333 
L 243.641858 361.608221 
L 243.543345 362.785203 
L 243.544627 362.769531 
L 243.450214 363.950836 
L 243.451478 363.934618 
L 243.361334 365.120434 
L 243.362574 365.103681 
L 243.276869 366.294195 
L 243.278077 366.276922 
L 243.196983 367.472323 
L 243.198151 367.454542 
L 243.121838 368.655017 
L 243.12296 368.636743 
L 243.051599 369.842479 
L 243.052666 369.823727 
L 242.986427 371.034913 
L 242.985656 371.048602 
L 234.373001 519.616901 
L 151.007812 519.616901 
L 142.404319 371.206646 
L 123.824196 232.754762 
L 123.824196 207.323608 
L 123.824498 207.373992 
L 123.81106 206.256057 
L 123.810763 206.212312 
L 123.80897 205.080178 
L 123.809108 205.038886 
L 123.81858 203.893043 
L 123.819083 203.854077 
L 123.839442 202.695014 
L 123.840249 202.658254 
L 123.871115 201.486461 
L 123.872172 201.451795 
L 123.913165 200.267762 
L 123.914424 200.235088 
L 123.965166 199.039304 
L 123.966586 199.008524 
L 124.026697 197.801479 
L 124.028241 197.772504 
L 124.097342 196.554688 
L 124.098978 196.527435 
L 124.17669 195.299337 
L 124.178389 195.27373 
L 124.264333 194.03584 
L 124.266071 194.011808 
L 124.359867 192.764614 
L 124.361622 192.742091 
L 124.462891 191.486085 
L 124.464643 191.46501 
L 124.573006 190.20068 
L 124.57474 190.180998 
L 124.689817 188.908834 
L 124.691517 188.890492 
L 124.812929 187.610984 
L 124.814582 187.593936 
L 124.94195 186.307574 
L 124.943544 186.291776 
L 125.076489 184.999049 
L 125.078015 184.984462 
L 125.216157 183.685859 
L 125.217606 183.672448 
L 125.360566 182.368459 
L 125.361929 182.356191 
L 125.509329 181.047306 
L 125.5106 181.03615 
L 125.662059 179.722859 
L 125.663232 179.71279 
L 125.818372 178.395582 
L 125.819442 178.386577 
L 125.977882 177.065941 
L 125.978845 177.057979 
L 126.140207 175.734406 
L 126.141059 175.727469 
L 126.304963 174.401448 
L 126.3057 174.395522 
L 126.471768 173.067542 
L 126.472387 173.062613 
L 126.640239 171.733165 
L 126.640739 171.729224 
L 126.809995 170.398796 
L 126.810373 170.395835 
L 126.980655 169.064917 
L 126.98091 169.062931 
L 127.151838 167.732014 
L 127.151968 167.731 
L 127.323164 166.400572 
L 127.323169 166.40053 
L 127.494252 165.071081 
L 127.494132 165.072013 
L 127.664724 163.744033 
L 127.664479 163.745944 
L 127.8342 162.419922 
L 127.83383 162.422818 
L 128.0023 161.099245 
L 128.001807 161.103136 
L 128.168648 159.7825 
L 128.168032 159.787398 
L 128.332865 158.47019 
L 128.332129 158.476109 
L 128.494573 157.162818 
L 128.493718 157.169776 
L 128.653396 155.860891 
L 128.652426 155.868909 
L 128.808957 154.56492 
L 128.807875 154.57402 
L 128.96088 153.275418 
L 128.95969 153.285626 
L 129.108791 151.992899 
L 129.107497 152.004246 
L 129.252314 150.717883 
L 129.250924 150.730401 
L 129.391077 149.450893 
L 129.389596 149.464618 
L 129.524706 148.192454 
L 129.523143 148.207427 
L 129.652831 146.943097 
L 129.651195 146.959361 
L 129.775082 145.703355 
L 129.773383 145.72096 
L 129.89109 144.473766 
L 129.88934 144.492764 
L 130.000487 143.254874 
L 129.998701 143.275323 
L 130.102909 142.047225 
L 130.101103 142.069189 
L 130.197993 140.851372 
L 130.196186 140.87492 
L 130.285378 139.667875 
L 130.283592 139.693081 
L 130.364707 138.497297 
L 130.362966 138.524244 
L 130.435625 137.34021 
L 130.433958 137.368985 
L 130.497782 136.197192 
L 130.496223 136.227891 
L 130.550831 135.068828 
L 130.549418 135.101555 
L 130.594433 133.955712 
L 130.593208 133.99058 
L 130.62825 132.858445 
L 130.627265 132.895576 
L 130.750676 127.307577 
L 136.480486 127.804673 
L 136.474715 127.804176 
L 137.794087 127.916803 
L 137.788666 127.916344 
L 139.150145 128.030785 
L 139.14502 128.030357 
L 140.54673 128.146448 
L 140.541856 128.146047 
L 141.981919 128.263624 
L 141.977259 128.263246 
L 143.453798 128.382143 
L 143.449319 128.381784 
L 144.960458 128.501837 
L 144.956132 128.501496 
L 146.499993 128.62254 
L 146.495795 128.622213 
L 148.070502 128.744084 
L 148.066409 128.743769 
L 149.670085 128.866303 
L 149.666077 128.865998 
L 151.296846 128.989029 
L 151.292906 128.988734 
L 152.94889 129.112097 
L 152.945002 129.11181 
L 154.624324 129.235341 
L 154.620473 129.23506 
L 156.321257 129.358596 
L 156.317428 129.358319 
L 158.037797 129.481694 
L 158.033978 129.481422 
L 159.772055 129.604471 
L 159.768233 129.604202 
L 161.52214 129.726761 
L 161.518304 129.726495 
L 163.286165 129.848399 
L 163.282302 129.848135 
L 165.062241 129.96922 
L 165.058338 129.968956 
L 166.848478 130.089057 
L 166.844526 130.088794 
L 168.642989 130.207746 
L 168.638975 130.207483 
L 170.443885 130.325122 
L 170.439797 130.324857 
L 172.249278 130.441019 
L 172.245104 130.440753 
L 174.057278 130.555272 
L 174.053005 130.555004 
L 175.865995 130.667716 
L 175.861612 130.667446 
L 177.673541 130.778186 
L 177.669032 130.777913 
L 179.478024 130.886517 
L 179.473374 130.88624 
L 181.277552 130.992543 
L 181.272746 130.992263 
L 183.070233 131.0961 
L 183.065254 131.095816 
L 184.854174 131.197023 
L 184.849003 131.196734 
L 186.627478 131.295146 
L 186.622097 131.294852 
L 188.388249 131.390305 
L 188.382635 131.390006 
L 190.134589 131.482335 
L 190.128718 131.48203 
L 191.864597 131.57107 
L 191.858442 131.570759 
L 193.576369 131.656347 
L 193.5699 131.65603 
L 195.267998 131.737999 
L 195.261183 131.737676 
L 196.937576 131.815863 
L 196.930378 131.815534 
L 198.583188 131.889774 
L 198.575565 131.889439 
L 200.202915 131.959567 
L 200.19482 131.959226 
L 201.794834 132.025079 
L 201.786213 132.024733 
L 203.357014 132.086145 
L 203.347805 132.085795 
L 204.887516 132.142601 
L 204.877648 132.142248 
L 206.384393 132.194284 
L 206.373784 132.193931 
L 207.845684 132.241033 
L 207.834239 132.240682 
L 209.269419 132.282684 
L 209.257024 132.28234 
L 210.653607 132.319078 
L 210.640131 132.318745 
L 211.99624 132.350054 
L 211.981523 132.34974 
L 213.295281 132.375457 
L 213.279136 132.375172 
L 214.548666 132.39513 
L 214.530862 132.394888 
L 215.754288 132.408925 
L 215.734546 132.408745 
L 216.90999 132.416694 
L 216.887964 132.416603 
L 218.01355 132.4183 
L 217.988808 132.418336 
L 219.062659 132.413617 
L 219.034655 132.413834 
L 220.054893 132.402534 
L 220.022925 132.40301 
L 220.987674 132.384965 
L 220.950824 132.385817 
L 221.858208 132.360861 
L 221.815259 132.362263 
L 222.6634 132.330233 
L 222.612695 132.332456 
L 223.399717 132.293187 
L 223.338952 132.296661 
L 224.062978 132.249988 
L 223.988853 132.255426 
L 224.502436 132.213164 
L 230.573563 131.284638 
z
" clip-path="url(#p9d252c684f)" style="fill: #ffffff; stroke: #14110e; stroke-width: 2.5"/>
   </g>
   <g id="patch_4">
    <path d="M 406.974121 205.859365 
L 406.969326 205.846565 
L 407.237837 206.559728 
L 407.506967 207.199105 
L 407.806069 207.842641 
L 408.134862 208.489721 
L 408.49297 209.13967 
L 408.879936 209.791777 
L 409.295223 210.445308 
L 409.73822 211.099518 
L 410.208254 211.753666 
L 410.704596 212.407017 
L 411.226465 213.058851 
L 411.773041 213.708466 
L 412.343466 214.355179 
L 412.936852 214.998329 
L 413.552288 215.637275 
L 414.218348 216.3008 
L 414.158747 216.242595 
L 414.874549 216.927875 
L 414.81602 216.872907 
L 415.549955 217.549085 
L 415.492472 217.4971 
L 416.243592 218.163863 
L 416.18712 218.114629 
L 416.954477 218.771663 
L 416.898969 218.724962 
L 417.681617 219.371956 
L 417.62702 219.327588 
L 418.424011 219.964227 
L 418.370265 219.922008 
L 419.180651 220.547981 
L 419.127693 220.50774 
L 419.950527 221.122733 
L 419.898286 221.084314 
L 420.732621 221.688013 
L 420.681025 221.65127 
L 421.525913 222.243363 
L 421.474885 222.208163 
L 422.329378 222.788337 
L 422.278839 222.754555 
L 423.14199 223.322497 
L 423.091857 223.290019 
L 423.962718 223.845415 
L 423.912904 223.814135 
L 424.790528 224.356673 
L 424.740943 224.326492 
L 425.624382 224.855858 
L 425.574933 224.826687 
L 426.463241 225.342568 
L 426.413831 225.31432 
L 427.306059 225.816405 
L 427.256586 225.789003 
L 428.151787 226.276976 
L 428.102145 226.250348 
L 428.999371 226.723898 
L 428.949447 226.697975 
L 429.847751 227.156789 
L 429.797427 227.131511 
L 430.695862 227.575275 
L 430.645011 227.550584 
L 431.542629 227.978985 
L 431.491118 227.954829 
L 432.386971 228.367555 
L 432.334655 228.343885 
L 433.227796 228.740623 
L 433.174521 228.717399 
L 434.064002 229.097834 
L 434.009599 229.075017 
L 434.894473 229.438838 
L 434.838761 229.416397 
L 435.71808 229.76329 
L 435.660859 229.741199 
L 436.533677 230.070851 
L 436.474729 230.049091 
L 437.340096 230.36119 
L 437.279181 230.339749 
L 438.136152 230.633981 
L 438.073003 230.612859 
L 438.92063 230.888911 
L 438.854953 230.868117 
L 439.692288 231.125676 
L 439.623754 231.105234 
L 440.449849 231.343987 
L 440.37809 231.323937 
L 441.191998 231.543572 
L 441.116602 231.523976 
L 441.917375 231.724178 
L 441.837877 231.705125 
L 442.5826 231.875955 
L 443.267528 232.018326 
L 443.930922 232.141253 
L 444.571119 232.244675 
L 445.186357 232.328609 
L 445.774769 232.393175 
L 446.334367 232.438624 
L 446.863036 232.465376 
L 452.19103 232.558868 
L 451.337876 238.447094 
L 451.332695 238.481831 
L 451.152801 239.654106 
L 451.14749 239.687802 
L 450.958933 240.853197 
L 450.953523 240.885819 
L 450.756646 242.044584 
L 450.751167 242.0761 
L 450.546315 243.228484 
L 450.540799 243.258864 
L 450.328314 244.405117 
L 450.322791 244.434334 
L 450.103019 245.574705 
L 450.097518 245.602732 
L 449.870802 246.737472 
L 449.865354 246.764283 
L 449.632038 247.893641 
L 449.626672 247.919214 
L 449.387099 249.04344 
L 449.381842 249.067752 
L 449.136358 250.187096 
L 449.131238 250.210128 
L 448.880185 251.32484 
L 448.87523 251.346573 
L 448.618952 252.456901 
L 448.614186 252.477319 
L 448.353028 253.583514 
L 448.348475 253.602599 
L 448.082781 254.704911 
L 448.078464 254.72265 
L 447.808577 255.821327 
L 447.804519 255.837707 
L 447.530783 256.933 
L 447.527003 256.948008 
L 447.249763 258.040167 
L 447.24628 258.053791 
L 446.96588 259.143066 
L 446.962711 259.155297 
L 446.679494 260.241936 
L 446.676656 260.252766 
L 446.390965 261.33702 
L 446.388472 261.346439 
L 446.100652 262.428558 
L 446.098516 262.43656 
L 445.808911 263.516793 
L 445.807142 263.523371 
L 445.516097 264.601968 
L 445.514703 264.607118 
L 445.222561 265.684328 
L 445.221551 265.688044 
L 444.928656 266.764117 
L 444.928035 266.766396 
L 444.63473 267.841582 
L 444.634501 267.84242 
L 444.341131 268.916969 
L 444.341296 268.916364 
L 444.048205 269.990525 
L 444.048764 269.988475 
L 443.756295 271.062499 
L 443.757245 271.059003 
L 443.465743 272.133138 
L 443.467081 272.128196 
L 443.176889 273.202693 
L 443.178608 273.196306 
L 442.89007 274.271415 
L 442.892164 274.263584 
L 442.605625 275.339553 
L 442.608083 275.33028 
L 442.323886 276.40736 
L 442.326697 276.396649 
L 442.045186 277.47509 
L 442.048337 277.462945 
L 441.769856 278.542995 
L 441.773331 278.529421 
L 441.498225 279.611331 
L 441.502009 279.596335 
L 441.23062 280.680354 
L 441.234694 280.663942 
L 440.967367 281.750321 
L 440.97171 281.732502 
L 440.708789 282.82149 
L 440.713381 282.802273 
L 440.45521 283.89412 
L 440.460026 283.873518 
L 440.206949 284.968473 
L 440.211966 284.946497 
L 439.964326 286.04481 
L 439.969518 286.021475 
L 439.727659 287.123396 
L 439.732998 287.098718 
L 439.497265 288.204496 
L 439.502723 288.178492 
L 439.27346 289.288377 
L 439.279007 289.261067 
L 439.056557 290.375309 
L 439.062163 290.346712 
L 438.84687 291.465561 
L 438.852504 291.435701 
L 438.644713 292.559406 
L 438.650342 292.528308 
L 438.450397 293.657119 
L 438.455989 293.624809 
L 438.264233 294.758976 
L 438.269756 294.725483 
L 438.086532 295.865255 
L 438.091953 295.830611 
L 437.917606 296.976238 
L 437.922891 296.940474 
L 437.757766 298.092206 
L 437.762882 298.055358 
L 437.607321 299.213445 
L 437.612236 299.17555 
L 437.466584 300.340241 
L 437.471264 300.301337 
L 437.335865 301.472883 
L 437.34028 301.433012 
L 437.215478 302.61166 
L 437.219596 302.570865 
L 437.105734 303.756867 
L 437.106312 303.750798 
L 436.994147 304.937263 
L 436.991335 304.965955 
L 436.871586 306.145974 
L 436.868666 306.173825 
L 436.74162 307.347624 
L 436.738611 307.374606 
L 436.604557 308.542408 
L 436.60148 308.568496 
L 436.460705 309.730525 
L 436.457579 309.755694 
L 436.310371 310.912174 
L 436.307215 310.9364 
L 436.153862 312.087555 
L 436.150697 312.110816 
L 435.991487 313.256871 
L 435.988332 313.279144 
L 435.823552 314.420323 
L 435.820426 314.441588 
L 435.650365 315.578115 
L 435.647286 315.598352 
L 435.472231 316.730451 
L 435.469218 316.749643 
L 435.289457 317.877538 
L 435.286526 317.895667 
L 435.102347 319.019583 
L 435.099517 319.036633 
L 434.911207 320.156793 
L 434.908493 320.172749 
L 434.71634 321.289377 
L 434.713758 321.304226 
L 434.518051 322.417547 
L 434.515614 322.431274 
L 434.31664 323.541512 
L 434.314363 323.554106 
L 434.11241 324.661485 
L 434.110305 324.672935 
L 433.905661 325.777679 
L 433.90374 325.787975 
L 433.696692 326.890308 
L 433.694966 326.89944 
L 433.485803 327.999587 
L 433.484281 328.007548 
L 433.27329 329.105731 
L 433.271981 329.112514 
L 433.059449 330.208959 
L 433.058361 330.214556 
L 432.844577 331.309487 
L 432.843714 331.313893 
L 432.628966 332.407534 
L 432.628334 332.410745 
L 432.41291 333.50332 
L 432.412513 333.505331 
L 432.196699 334.597064 
L 432.196539 334.597873 
L 431.980625 335.688989 
L 431.980703 335.688593 
L 431.764976 336.779315 
L 431.765292 336.777714 
L 431.55004 337.868266 
L 431.550593 337.865459 
L 431.336103 338.956066 
L 431.33689 338.952053 
L 431.12345 340.042939 
L 431.124468 340.037721 
L 430.912366 341.12911 
L 430.913608 341.122691 
L 430.703133 342.214806 
L 430.704594 342.207188 
L 430.496032 343.300255 
L 430.497704 343.291442 
L 430.291344 344.385684 
L 430.293217 344.375681 
L 430.089347 345.471323 
L 430.091413 345.460136 
L 429.890319 346.557401 
L 429.892566 346.545037 
L 429.694538 347.64415 
L 429.696953 347.630618 
L 429.502277 348.731803 
L 429.504848 348.71711 
L 429.313813 349.820591 
L 429.316525 349.804749 
L 429.129418 350.91075 
L 429.132255 350.89377 
L 428.949365 352.002515 
L 428.952311 351.984409 
L 428.773926 353.096123 
L 428.776964 353.076904 
L 428.60337 354.19181 
L 428.606482 354.171495 
L 428.437969 355.289818 
L 428.441136 355.268421 
L 428.27799 356.390384 
L 428.281194 356.367924 
L 428.123703 357.493752 
L 428.126924 357.470246 
L 427.975376 358.600164 
L 427.978593 358.575633 
L 427.833277 359.709863 
L 427.836469 359.684328 
L 427.697671 360.823096 
L 427.700818 360.796579 
L 427.568827 361.940109 
L 427.571906 361.912634 
L 427.44701 363.061149 
L 427.450002 363.032742 
L 427.332488 364.186467 
L 427.335369 364.157154 
L 427.225526 365.316312 
L 427.228277 365.286121 
L 427.126391 366.450938 
L 427.12899 366.419897 
L 427.035351 367.590596 
L 427.037777 367.558737 
L 426.952671 368.735542 
L 426.954904 368.702895 
L 426.878619 369.88603 
L 426.880639 369.852628 
L 426.813464 371.042318 
L 426.813104 371.048602 
L 418.200449 519.616901 
L 318.067835 519.616901 
L 309.469633 371.29792 
L 284.716202 232.846524 
L 284.716202 207.367119 
L 283.066281 127.899664 
L 287.790175 127.648571 
L 287.783959 127.648906 
L 288.457926 127.612078 
L 288.451721 127.612422 
L 289.12836 127.574442 
L 289.122163 127.574794 
L 289.801373 127.535661 
L 289.795181 127.536022 
L 290.476862 127.495735 
L 290.470674 127.496105 
L 291.154726 127.454662 
L 291.148538 127.455041 
L 291.834861 127.412442 
L 291.828671 127.412831 
L 292.517166 127.369073 
L 292.51097 127.369472 
L 293.201537 127.324556 
L 293.195334 127.324964 
L 293.887873 127.278888 
L 293.881659 127.279306 
L 294.57607 127.232069 
L 294.569843 127.232497 
L 295.266027 127.184098 
L 295.259785 127.184537 
L 295.957641 127.134975 
L 295.951381 127.135424 
L 296.650809 127.084698 
L 296.644529 127.085158 
L 297.34543 127.033267 
L 297.339127 127.033738 
L 298.0414 126.98068 
L 298.035072 126.981163 
L 298.738619 126.926937 
L 298.732263 126.927432 
L 299.436982 126.872038 
L 299.430596 126.872545 
L 300.136389 126.815981 
L 300.12997 126.8165 
L 300.836736 126.758765 
L 300.830282 126.759297 
L 301.537921 126.70039 
L 301.53143 126.700936 
L 302.239842 126.640856 
L 302.233311 126.641415 
L 302.942397 126.580161 
L 302.935823 126.580734 
L 303.645483 126.518305 
L 303.638864 126.518893 
L 304.348997 126.455287 
L 304.34233 126.45589 
L 305.052838 126.391107 
L 305.04612 126.391725 
L 305.756902 126.325764 
L 305.750131 126.326397 
L 306.461087 126.259256 
L 306.454261 126.259907 
L 307.165291 126.191585 
L 307.158407 126.192252 
L 307.869412 126.122749 
L 307.862466 126.123434 
L 308.573345 126.052747 
L 308.566335 126.05345 
L 309.276989 125.98158 
L 309.269912 125.982301 
L 309.980241 125.909246 
L 309.973095 125.909987 
L 310.682999 125.835745 
L 310.675779 125.836507 
L 311.385158 125.761078 
L 311.377863 125.76186 
L 312.086617 125.685242 
L 312.079243 125.686046 
L 312.787273 125.608239 
L 312.779817 125.609065 
L 313.487022 125.530068 
L 313.47948 125.530917 
L 314.185762 125.450728 
L 314.178131 125.451601 
L 314.883388 125.370219 
L 314.875666 125.371118 
L 315.579799 125.288542 
L 315.571981 125.289466 
L 316.27489 125.205695 
L 316.266973 125.206646 
L 316.968558 125.121679 
L 316.960538 125.122658 
L 317.660699 125.036494 
L 317.652573 125.037502 
L 318.35121 124.95014 
L 318.342974 124.951178 
L 319.039988 124.862616 
L 319.031637 124.863686 
L 319.726928 124.773924 
L 319.718458 124.775026 
L 320.411925 124.684062 
L 320.403333 124.685198 
L 321.094877 124.593031 
L 321.086157 124.594203 
L 321.775679 124.500833 
L 321.766827 124.502041 
L 322.454226 124.407466 
L 322.445238 124.408712 
L 323.130414 124.312931 
L 323.121285 124.314218 
L 323.804138 124.217229 
L 323.794863 124.218557 
L 324.475294 124.120361 
L 324.465867 124.121733 
L 325.143776 124.022327 
L 325.134191 124.023744 
L 325.809478 123.923128 
L 325.799732 123.924592 
L 326.472297 123.822764 
L 326.462382 123.824277 
L 327.132125 123.721237 
L 327.122036 123.722802 
L 327.788857 123.618548 
L 327.778588 123.620167 
L 328.442387 123.514699 
L 328.440527 123.514995 
L 329.104423 123.409205 
L 329.11063 123.408221 
L 329.777725 123.302947 
L 329.783241 123.30208 
L 330.453406 123.197236 
L 330.458242 123.196482 
L 331.13135 123.091983 
L 331.135517 123.091338 
L 331.81144 122.987098 
L 331.814948 122.986559 
L 332.493558 122.882492 
L 332.496417 122.882055 
L 333.177587 122.778077 
L 333.179803 122.77774 
L 333.863406 122.673764 
L 333.864988 122.673524 
L 334.550896 122.569466 
L 334.551851 122.569321 
L 335.239937 122.465095 
L 335.24027 122.465045 
L 335.930406 122.360565 
L 335.930124 122.360608 
L 336.622182 122.255789 
L 336.62129 122.255924 
L 337.315143 122.15068 
L 337.313644 122.150908 
L 338.009165 122.045154 
L 338.007064 122.045474 
L 338.704125 121.939125 
L 338.701425 121.939537 
L 339.399898 121.832507 
L 339.396602 121.833013 
L 340.09636 121.725216 
L 340.09247 121.725817 
L 340.793385 121.617168 
L 340.788903 121.617865 
L 341.490848 121.508278 
L 341.485774 121.509073 
L 342.188621 121.398463 
L 342.182957 121.399359 
L 342.886579 121.28764 
L 342.880324 121.288638 
L 343.584593 121.175726 
L 343.577746 121.176829 
L 344.282535 121.062637 
L 344.275097 121.063849 
L 344.980278 120.948292 
L 344.972246 120.949616 
L 345.677692 120.832608 
L 345.669064 120.834049 
L 346.374647 120.715505 
L 346.365422 120.717065 
L 347.071015 120.5969 
L 347.061189 120.598585 
L 347.766664 120.476713 
L 347.756235 120.478528 
L 348.461464 120.354864 
L 348.450428 120.356814 
L 349.155284 120.231271 
L 349.143636 120.233363 
L 349.847992 120.105857 
L 349.835728 120.108096 
L 350.539455 119.978541 
L 350.526571 119.980934 
L 351.229543 119.849244 
L 351.216032 119.851798 
L 351.918121 119.717889 
L 351.903977 119.720612 
L 352.605056 119.584397 
L 352.590274 119.587296 
L 353.290214 119.448691 
L 353.274788 119.451776 
L 353.973462 119.310694 
L 353.957384 119.313973 
L 354.654665 119.170329 
L 354.637927 119.173813 
L 355.333688 119.027522 
L 355.316283 119.03122 
L 356.010396 118.882196 
L 355.992316 118.886119 
L 356.684653 118.734277 
L 356.665889 118.738437 
L 357.356323 118.583691 
L 357.336867 118.5881 
L 358.02527 118.430364 
L 358.005112 118.435036 
L 358.691357 118.274225 
L 358.670488 118.279172 
L 359.354447 118.115201 
L 359.332859 118.120437 
L 360.014404 117.953221 
L 359.992085 117.958762 
L 360.671089 117.788214 
L 360.64803 117.794076 
L 361.324366 117.620111 
L 361.300555 117.62631 
L 361.974096 117.448844 
L 361.949523 117.455398 
L 362.62014 117.274343 
L 362.594796 117.281271 
L 363.262362 117.096544 
L 363.236234 117.103865 
L 363.900622 116.915378 
L 363.8737 116.923113 
L 364.534782 116.730783 
L 364.507056 116.738953 
L 365.164704 116.542693 
L 365.136162 116.551321 
L 365.790249 116.351046 
L 365.76088 116.360156 
L 366.411279 116.15578 
L 366.381073 116.165397 
L 367.027655 115.956835 
L 366.996602 115.966985 
L 367.639241 115.754152 
L 367.60733 115.764862 
L 368.245897 115.547672 
L 368.213118 115.558972 
L 372.723649 113.983099 
z
" clip-path="url(#p9d252c684f)" style="fill: #ffffff; stroke: #14110e; stroke-width: 2.5"/>
   </g>
   <g id="line2d_1">
    <path d="M 237.962454 207.323608 
L 238.42877 210.887336 
L 239.14247 214.259145 
L 239.883847 216.8033 
L 240.77035 219.198722 
L 241.796112 221.433899 
L 242.955267 223.497318 
L 244.241947 225.377466 
L 245.650287 227.062831 
L 247.174419 228.541899 
L 248.808476 229.803158 
L 250.546592 230.835094 
L 252.3829 231.626196 
L 254.311534 232.164951 
L 256.326626 232.439844 
L 257.36476 232.474746 
L 256.366771 239.612322 
L 254.978039 247.722605 
L 252.97494 257.915773 
L 249.156634 276.951519 
L 247.811884 284.897429 
L 246.866445 291.838613 
L 246.267662 297.748907 
L 244.560424 317.884153 
L 243.194706 329.297075 
L 240.254637 353.12503 
L 239.366095 362.43557 
L 238.800825 370.806003 
L 230.417113 515.425045 
L 154.9637 515.425045 
L 146.579987 370.806003 
L 128.016052 232.474746 
L 128.102512 200.412806 
L 128.446123 194.326171 
L 129.113408 186.720607 
L 130.301255 176.241696 
L 133.946695 146.114824 
L 134.546952 138.780996 
L 134.8181 132.98813 
L 134.842789 131.870195 
L 150.981494 133.169007 
L 171.98073 134.624264 
L 191.649861 135.757423 
L 206.239711 136.383643 
L 215.706199 136.600505 
L 221.97345 136.551133 
L 224.991791 136.37892 
L 227.063628 136.062051 
L 237.962454 207.323608 
L 237.962454 207.323608 
" clip-path="url(#p9d252c684f)" style="fill: none; stroke-dasharray: 7.5,6; stroke-dashoffset: 0; stroke: #a8321f; stroke-width: 1.5"/>
   </g>
   <g id="patch_5">
    <path d="M 192.682791 427.642916 
Q 192.682791 323.644779 192.682791 219.646642 
" style="fill: none; stroke: #14110e; stroke-width: 1.25; stroke-linecap: round"/>
    <path d="M 195.182791 422.642916 
L 192.682791 427.642916 
L 190.182791 422.642916 
z
" style="fill: #14110e; stroke: #14110e; stroke-width: 1.25; stroke-linecap: round"/>
    <path d="M 190.182791 224.646642 
L 192.682791 219.646642 
L 195.182791 224.646642 
z
" style="fill: #14110e; stroke: #14110e; stroke-width: 1.25; stroke-linecap: round"/>
   </g>
   <g id="line2d_2">
    <path d="M 403.046317 207.323608 
L 404.035696 209.676037 
L 405.307656 211.98599 
L 406.836614 214.245013 
L 408.596988 216.444657 
L 410.563194 218.576468 
L 412.709651 220.631995 
L 415.807768 223.239427 
L 419.12021 225.676183 
L 422.586338 227.922231 
L 426.145513 229.957537 
L 429.737095 231.762067 
L 433.300444 233.315787 
L 436.77492 234.598663 
L 440.099883 235.590663 
L 443.214694 236.271751 
L 446.058713 236.621895 
L 447.360226 236.666602 
L 446.419161 242.494823 
L 445.287298 248.169772 
L 443.737744 254.82134 
L 441.468991 263.509909 
L 436.896934 280.748704 
L 435.397534 287.330505 
L 434.322792 292.925998 
L 433.452778 298.655384 
L 432.820898 304.542736 
L 432.152067 310.382865 
L 431.149846 317.217777 
L 429.783926 325.014162 
L 426.797496 340.329422 
L 424.996289 350.211534 
L 423.97227 356.913014 
L 423.162208 363.761699 
L 422.695449 369.616313 
L 422.628274 370.806003 
L 414.244561 515.425045 
L 322.023723 515.425045 
L 313.64001 370.806003 
L 288.908058 232.474746 
L 288.908058 207.323608 
L 287.341478 131.870195 
L 297.654929 131.213681 
L 307.566233 130.364223 
L 316.770954 129.368096 
L 325.751947 128.16983 
L 344.95297 125.200532 
L 352.703476 123.835519 
L 358.961498 122.516333 
L 364.380312 121.136574 
L 368.957134 119.73345 
L 370.23007 119.294626 
L 403.046317 207.323608 
L 403.046317 207.323608 
" clip-path="url(#p9d252c684f)" style="fill: none; stroke-dasharray: 7.5,6; stroke-dashoffset: 0; stroke: #a8321f; stroke-width: 1.5"/>
   </g>
   <g id="patch_6">
    <path d="M 367.350852 424.878332 
Q 367.350852 317.360878 367.350852 209.843425 
" style="fill: none; stroke: #14110e; stroke-width: 1.25; stroke-linecap: round"/>
    <path d="M 369.850852 419.878332 
L 367.350852 424.878332 
L 364.850852 419.878332 
z
" style="fill: #14110e; stroke: #14110e; stroke-width: 1.25; stroke-linecap: round"/>
    <path d="M 364.850852 214.843425 
L 367.350852 209.843425 
L 369.850852 214.843425 
z
" style="fill: #14110e; stroke: #14110e; stroke-width: 1.25; stroke-linecap: round"/>
   </g>
   <g id="text_1">
    <!-- Devant ×2 -->
    <g style="fill: #14110e" transform="translate(162.791352 553.826385) scale(0.148387 -0.148387)">
     <defs>
      <path id="SortsMillGoudy-Italic-27" d="M 1907 0 
L 915 19 
Q 691 19 496 -6 
Q 301 -32 256 -32 
Q 211 -32 169 3 
Q 128 38 128 86 
Q 128 134 179 156 
Q 230 179 297 188 
Q 365 198 441 265 
Q 518 333 556 461 
Q 595 589 621 742 
L 1056 3942 
Q 1069 4045 1069 4058 
Q 1069 4154 979 4234 
Q 890 4314 781 4320 
Q 486 4339 486 4457 
Q 486 4576 685 4576 
Q 794 4576 982 4541 
Q 1171 4506 1331 4506 
Q 1491 4506 1776 4538 
Q 2061 4570 2330 4570 
Q 3546 4570 4118 4061 
Q 4691 3552 4691 2755 
Q 4691 1958 4192 1190 
Q 4051 966 3785 713 
Q 3520 461 3354 365 
Q 2752 0 1907 0 
z
M 1309 2105 
Q 1101 467 1101 403 
Q 1101 339 1165 278 
Q 1229 218 1408 218 
L 1971 218 
Q 2253 218 2637 352 
Q 3315 595 3712 1267 
Q 3981 1722 4070 2387 
Q 4102 2592 4102 2777 
Q 4102 2963 4057 3158 
Q 4013 3354 3885 3568 
Q 3757 3782 3558 3939 
Q 3360 4096 3024 4198 
Q 2688 4301 2275 4301 
Q 1862 4301 1747 4249 
Q 1632 4198 1562 3949 
Q 1517 3744 1309 2105 
z
" transform="scale(0.015625)"/>
      <path id="SortsMillGoudy-Italic-48" d="M 1216 -77 
Q 646 -77 425 192 
Q 205 461 205 902 
Q 205 1344 397 1741 
Q 589 2138 937 2464 
Q 1286 2790 1818 2790 
Q 2048 2790 2211 2656 
Q 2374 2522 2374 2339 
Q 2374 2157 2297 2013 
Q 2221 1869 2106 1773 
Q 1901 1600 1754 1542 
Q 1382 1376 749 1370 
Q 640 1370 640 1053 
Q 640 736 870 521 
Q 1101 307 1562 307 
Q 1830 307 2138 512 
Q 2234 582 2253 582 
Q 2330 582 2330 518 
Q 2330 384 1962 153 
Q 1594 -77 1216 -77 
z
M 1069 2298 
Q 941 2163 835 1926 
Q 730 1690 730 1584 
Q 730 1478 787 1478 
Q 1242 1478 1587 1734 
Q 1933 1990 1933 2298 
Q 1933 2458 1821 2528 
Q 1709 2598 1594 2598 
Q 1357 2598 1069 2298 
z
" transform="scale(0.015625)"/>
      <path id="SortsMillGoudy-Italic-59" d="M 64 1619 
Q 64 2074 342 2413 
Q 621 2752 851 2752 
Q 992 2752 1065 2598 
Q 1139 2445 1139 2262 
Q 1139 2080 1075 1597 
Q 1011 1114 1011 736 
Q 1011 582 1104 464 
Q 1197 346 1331 346 
Q 1670 346 1987 922 
Q 2304 1498 2304 2061 
Q 2304 2176 2237 2326 
Q 2170 2477 2170 2557 
Q 2170 2637 2256 2697 
Q 2342 2758 2400 2758 
Q 2605 2758 2605 2413 
Q 2605 2189 2499 1747 
Q 2394 1306 2259 1050 
Q 1933 416 1552 166 
Q 1171 -83 1043 -83 
Q 627 -83 627 909 
Q 627 947 537 963 
Q 448 979 345 1001 
Q 243 1024 153 1181 
Q 64 1338 64 1619 
z
M 640 2246 
Q 550 2246 390 2000 
Q 230 1754 230 1568 
Q 230 1382 301 1280 
Q 403 1126 492 1126 
Q 582 1126 602 1158 
Q 640 1222 640 1331 
Q 730 1997 730 2121 
Q 730 2246 640 2246 
z
" transform="scale(0.015625)"/>
      <path id="SortsMillGoudy-Italic-44" d="M 851 -96 
Q 480 -96 342 125 
Q 205 346 205 771 
Q 205 1197 576 1785 
Q 947 2374 1427 2605 
Q 1664 2720 1827 2720 
Q 1990 2720 2160 2685 
Q 2330 2650 2416 2650 
Q 2502 2650 2604 2806 
Q 2707 2963 2774 2963 
Q 2842 2963 2842 2886 
Q 2842 2810 2787 2656 
Q 2733 2502 2720 2451 
Q 2707 2400 2579 1686 
Q 2451 973 2451 813 
Q 2451 653 2515 531 
Q 2579 410 2681 410 
Q 2784 410 2934 618 
Q 3085 826 3139 826 
Q 3194 826 3194 733 
Q 3194 640 3069 461 
Q 2944 282 2761 118 
Q 2579 -45 2428 -45 
Q 2278 -45 2188 134 
Q 2099 314 2083 493 
Q 2067 672 2060 672 
Q 2054 672 1987 592 
Q 1920 512 1808 400 
Q 1696 288 1562 179 
Q 1222 -96 851 -96 
z
M 685 1114 
Q 653 922 653 730 
Q 653 538 797 397 
Q 941 256 1193 256 
Q 1446 256 1667 457 
Q 1888 659 1965 812 
Q 2042 966 2125 1344 
Q 2298 2176 2298 2313 
Q 2298 2451 2157 2505 
Q 2016 2560 1843 2560 
Q 1670 2560 1446 2419 
Q 1222 2278 1082 2042 
Q 749 1491 685 1114 
z
" transform="scale(0.015625)"/>
      <path id="SortsMillGoudy-Italic-51" d="M 621 2291 
Q 512 2291 393 2112 
Q 275 1933 214 1933 
Q 154 1933 154 2089 
Q 154 2246 378 2515 
Q 602 2784 774 2784 
Q 947 2784 1004 2614 
Q 1062 2445 1062 2278 
Q 1062 2112 1075 2112 
Q 1088 2112 1114 2150 
Q 1242 2317 1395 2432 
Q 1862 2797 2176 2797 
Q 2714 2797 2714 1997 
Q 2714 1741 2659 1235 
Q 2605 730 2605 653 
Q 2605 422 2726 422 
Q 2842 422 2982 563 
Q 3002 582 3030 627 
Q 3059 672 3072 691 
Q 3123 736 3180 736 
Q 3238 736 3238 659 
Q 3238 474 2921 218 
Q 2605 -38 2394 -38 
Q 2298 -38 2227 80 
Q 2157 198 2157 419 
Q 2157 640 2224 1248 
Q 2291 1856 2291 1945 
Q 2291 2035 2272 2134 
Q 2253 2234 2141 2352 
Q 2029 2470 1827 2470 
Q 1626 2470 1427 2189 
Q 1338 2061 1299 2003 
Q 1261 1946 1229 1846 
Q 1197 1747 1190 1690 
Q 1139 1402 1078 1066 
Q 1018 730 989 541 
Q 960 352 957 297 
Q 954 243 950 208 
Q 947 173 941 115 
Q 928 -13 749 -13 
Q 570 -13 528 19 
Q 486 51 486 172 
Q 486 294 627 979 
Q 768 1664 768 1878 
Q 768 2093 720 2192 
Q 672 2291 621 2291 
z
" transform="scale(0.015625)"/>
      <path id="SortsMillGoudy-Italic-57" d="M 1638 2362 
L 1120 2394 
Q 1037 2394 1011 2368 
Q 986 2342 973 2326 
Q 960 2310 953 2272 
Q 947 2234 940 2208 
Q 934 2182 928 2118 
Q 922 2054 909 1958 
Q 896 1862 845 1536 
Q 710 749 710 640 
Q 710 531 777 444 
Q 845 358 889 345 
Q 934 333 1030 333 
Q 1126 333 1254 403 
Q 1382 474 1459 544 
Q 1536 614 1574 614 
Q 1645 614 1645 525 
Q 1645 384 1312 153 
Q 979 -77 704 -77 
Q 538 -77 416 57 
Q 294 192 294 531 
Q 294 870 428 1580 
Q 563 2291 563 2323 
Q 563 2387 374 2393 
Q 186 2400 186 2496 
Q 186 2547 253 2588 
Q 320 2630 457 2710 
Q 595 2790 691 2892 
Q 787 2995 857 3078 
Q 928 3162 960 3194 
Q 1018 3264 1082 3264 
Q 1146 3264 1146 3187 
Q 1146 3149 1088 2953 
Q 1030 2758 1030 2716 
Q 1030 2675 1065 2668 
Q 1101 2662 1254 2662 
L 1626 2669 
Q 1792 2669 1792 2553 
Q 1792 2438 1760 2400 
Q 1728 2362 1638 2362 
z
" transform="scale(0.015625)"/>
      <path id="SortsMillGoudy-Italic-3" transform="scale(0.015625)"/>
      <path id="SortsMillGoudy-Italic-99" d="M 675 224 
Q 640 224 573 288 
Q 506 352 506 387 
Q 506 422 557 474 
L 1325 1248 
Q 1382 1306 1382 1344 
Q 1382 1382 1338 1427 
L 544 2221 
Q 506 2259 506 2294 
Q 506 2330 573 2394 
Q 640 2458 678 2458 
Q 717 2458 768 2406 
L 1510 1670 
Q 1587 1594 1632 1594 
Q 1677 1594 1709 1626 
L 2509 2426 
Q 2547 2464 2579 2464 
Q 2611 2464 2678 2400 
Q 2746 2336 2746 2301 
Q 2746 2266 2682 2202 
L 1907 1427 
Q 1862 1382 1862 1347 
Q 1862 1312 1907 1267 
L 2701 474 
Q 2746 429 2746 393 
Q 2746 358 2675 291 
Q 2605 224 2573 224 
Q 2541 224 2496 269 
L 1709 1062 
Q 1664 1107 1625 1107 
Q 1587 1107 1517 1037 
L 755 269 
Q 710 224 675 224 
z
" transform="scale(0.015625)"/>
      <path id="SortsMillGoudy-Italic-15" d="M 1293 0 
L 275 -13 
Q 128 -13 128 70 
Q 128 109 269 186 
Q 915 550 1242 819 
Q 2176 1581 2176 2022 
Q 2176 2285 1939 2422 
Q 1702 2560 1504 2560 
Q 915 2560 915 2266 
Q 915 2195 963 2067 
Q 1011 1939 1011 1901 
Q 1011 1818 922 1818 
Q 486 1818 486 2042 
Q 486 2214 742 2470 
Q 870 2598 1113 2684 
Q 1357 2771 1715 2771 
Q 2074 2771 2381 2598 
Q 2688 2426 2688 2080 
Q 2688 1850 2438 1562 
Q 2189 1274 1894 1062 
Q 1600 851 1350 665 
Q 1101 480 1101 432 
Q 1101 384 1389 384 
L 1811 384 
Q 2202 384 2387 570 
Q 2490 672 2515 723 
Q 2579 800 2618 800 
Q 2694 800 2694 730 
Q 2694 710 2669 672 
Q 2541 480 2441 240 
Q 2342 0 2240 0 
L 1293 0 
z
" transform="scale(0.015625)"/>
     </defs>
     <use xlink:href="#SortsMillGoudy-Italic-27"/>
     <use xlink:href="#SortsMillGoudy-Italic-48" transform="translate(73.296875 0)"/>
     <use xlink:href="#SortsMillGoudy-Italic-59" transform="translate(113.5 0)"/>
     <use xlink:href="#SortsMillGoudy-Italic-44" transform="translate(156.203125 0)"/>
     <use xlink:href="#SortsMillGoudy-Italic-51" transform="translate(207 0)"/>
     <use xlink:href="#SortsMillGoudy-Italic-57" transform="translate(259.59375 0)"/>
     <use xlink:href="#SortsMillGoudy-Italic-3" transform="translate(289.5 0)"/>
     <use xlink:href="#SortsMillGoudy-Italic-99" transform="translate(310.796875 0)"/>
     <use xlink:href="#SortsMillGoudy-Italic-15" transform="translate(361.59375 0)"/>
    </g>
   </g>
   <g id="text_2">
    <!-- Dos ×2 -->
    <g style="fill: #14110e" transform="translate(347.835208 553.848411) scale(0.148387 -0.148387)">
     <defs>
      <path id="SortsMillGoudy-Italic-52" d="M 1197 -64 
Q 762 -64 483 230 
Q 205 525 205 1129 
Q 205 1734 617 2259 
Q 1030 2784 1715 2784 
Q 2170 2784 2410 2461 
Q 2650 2138 2650 1686 
Q 2650 1235 2486 851 
Q 2323 467 1977 201 
Q 1632 -64 1197 -64 
z
M 1622 2592 
Q 1382 2592 1158 2377 
Q 934 2163 816 1753 
Q 698 1344 698 979 
Q 698 614 854 371 
Q 1011 128 1254 128 
Q 1498 128 1686 301 
Q 1875 474 1971 730 
Q 2176 1261 2176 1709 
Q 2176 2157 2019 2374 
Q 1862 2592 1622 2592 
z
" transform="scale(0.015625)"/>
      <path id="SortsMillGoudy-Italic-56" d="M 822 -77 
Q 550 -77 323 22 
Q 96 122 96 349 
Q 96 576 301 576 
Q 410 576 480 505 
Q 550 435 582 355 
Q 614 275 697 204 
Q 781 134 925 134 
Q 1069 134 1184 185 
Q 1299 237 1344 314 
Q 1421 448 1421 550 
Q 1421 653 1395 739 
Q 1370 826 1277 941 
Q 1184 1056 1152 1088 
Q 947 1293 822 1417 
Q 698 1542 637 1619 
Q 576 1696 550 1754 
Q 480 1914 480 2074 
Q 480 2394 726 2595 
Q 973 2797 1350 2797 
Q 1946 2797 1946 2464 
Q 1946 2374 1888 2317 
Q 1811 2246 1699 2246 
Q 1587 2246 1456 2425 
Q 1325 2605 1197 2605 
Q 858 2605 858 2266 
Q 858 2067 1184 1766 
Q 1357 1606 1373 1587 
Q 1389 1568 1481 1469 
Q 1574 1370 1609 1322 
Q 1645 1274 1702 1178 
Q 1805 1018 1805 838 
Q 1805 659 1760 531 
Q 1715 403 1616 259 
Q 1517 115 1305 19 
Q 1094 -77 822 -77 
z
" transform="scale(0.015625)"/>
     </defs>
     <use xlink:href="#SortsMillGoudy-Italic-27"/>
     <use xlink:href="#SortsMillGoudy-Italic-52" transform="translate(73.296875 0)"/>
     <use xlink:href="#SortsMillGoudy-Italic-56" transform="translate(116.390625 0)"/>
     <use xlink:href="#SortsMillGoudy-Italic-3" transform="translate(149.6875 0)"/>
     <use xlink:href="#SortsMillGoudy-Italic-99" transform="translate(170.984375 0)"/>
     <use xlink:href="#SortsMillGoudy-Italic-15" transform="translate(221.78125 0)"/>
    </g>
   </g>
   <g id="text_3">
    <!-- Le patron -->
    <g style="fill: #14110e" transform="translate(209.889205 53.910256) scale(0.363636 -0.363636)">
     <defs>
      <path id="IM_FELL_English_SC-2f" d="M 122 156 
Q 122 206 145 262 
Q 169 319 219 319 
L 478 341 
Q 556 356 631 368 
Q 706 381 776 401 
Q 847 422 909 456 
Q 972 491 1025 556 
Q 1038 578 1045 598 
Q 1053 619 1053 644 
Q 1053 694 1078 734 
Q 1078 813 1076 877 
Q 1075 941 1063 1022 
Q 1056 1059 1056 1084 
Q 1056 1109 1056 1125 
Q 1056 1175 1059 1195 
Q 1063 1216 1078 1266 
Q 1078 1356 1075 1417 
Q 1072 1478 1072 1534 
Q 1072 1641 1106 1753 
L 1078 2216 
Q 1072 2228 1067 2265 
Q 1063 2303 1063 2319 
Q 1078 2356 1092 2400 
Q 1106 2444 1106 2497 
Q 1097 2588 1095 2672 
Q 1094 2756 1078 2850 
Q 1072 2875 1056 2890 
Q 1041 2906 1041 2934 
Q 1041 2969 1056 2983 
Q 1072 2997 1078 3013 
L 1078 3163 
Q 1078 3228 1076 3311 
Q 1075 3394 1067 3481 
Q 1059 3569 1040 3658 
Q 1022 3747 988 3828 
Q 972 3841 944 3861 
Q 916 3881 889 3903 
Q 863 3925 842 3940 
Q 822 3956 819 3956 
Q 791 3978 739 3995 
Q 688 4013 625 4030 
Q 563 4047 498 4065 
Q 434 4084 381 4111 
Q 328 4138 295 4173 
Q 263 4209 263 4259 
Q 263 4278 284 4290 
Q 306 4303 337 4311 
Q 369 4319 397 4322 
Q 425 4325 441 4325 
Q 478 4319 497 4319 
Q 516 4319 528 4319 
Q 553 4319 559 4325 
Q 666 4331 778 4336 
Q 891 4341 1003 4341 
Q 1109 4341 1207 4336 
Q 1306 4331 1425 4325 
Q 1438 4309 1455 4303 
Q 1472 4297 1484 4297 
Q 1625 4309 1726 4325 
Q 1828 4341 1912 4358 
Q 1997 4375 2075 4394 
Q 2153 4413 2247 4428 
L 2322 4428 
Q 2381 4428 2467 4425 
Q 2553 4422 2629 4406 
Q 2706 4391 2761 4361 
Q 2816 4331 2816 4275 
Q 2816 4247 2812 4208 
Q 2809 4169 2794 4141 
Q 2778 4116 2701 4100 
Q 2625 4084 2534 4075 
Q 2444 4066 2356 4062 
Q 2269 4059 2231 4059 
Q 2216 4053 2200 4050 
Q 2184 4047 2170 4045 
Q 2156 4044 2144 4044 
L 2091 4028 
Q 1978 4016 1918 4006 
Q 1859 3997 1828 3978 
Q 1797 3959 1789 3929 
Q 1781 3900 1772 3844 
Q 1766 3791 1764 3736 
Q 1763 3681 1750 3613 
L 1706 3513 
Q 1706 3472 1722 3425 
Q 1738 3378 1758 3329 
Q 1778 3281 1793 3231 
Q 1809 3181 1809 3134 
L 1788 2894 
L 1831 2694 
Q 1831 2622 1817 2567 
Q 1803 2513 1788 2450 
Q 1772 2359 1769 2250 
Q 1766 2141 1766 2053 
L 1759 1956 
Q 1759 1878 1788 1853 
L 1788 1222 
Q 1772 1194 1769 1180 
Q 1766 1166 1766 1150 
Q 1766 1103 1787 1064 
Q 1809 1025 1809 991 
Q 1809 925 1795 848 
Q 1781 772 1766 719 
Q 1766 713 1762 700 
Q 1759 688 1756 672 
Q 1753 656 1750 638 
Q 1759 588 1809 538 
Q 1859 488 1925 447 
Q 1991 406 2059 381 
Q 2128 356 2175 356 
L 2313 384 
Q 2325 384 2345 370 
Q 2366 356 2416 356 
Q 2456 356 2489 378 
Q 2522 400 2572 400 
L 2669 356 
L 2869 341 
L 2956 319 
L 3009 319 
Q 3097 331 3183 342 
Q 3269 353 3351 370 
Q 3434 388 3512 417 
Q 3591 447 3656 503 
L 3666 513 
Q 3678 525 3678 541 
Q 3694 591 3719 623 
Q 3744 656 3773 682 
Q 3803 709 3836 732 
Q 3869 756 3900 791 
Q 3944 825 3978 889 
Q 4013 953 4056 1006 
Q 4088 1038 4131 1073 
Q 4175 1109 4222 1139 
Q 4269 1169 4314 1187 
Q 4359 1206 4397 1206 
Q 4413 1206 4438 1203 
Q 4463 1200 4486 1194 
Q 4509 1188 4526 1177 
Q 4544 1166 4544 1150 
Q 4544 1081 4531 1036 
Q 4519 991 4495 953 
Q 4472 916 4442 881 
Q 4413 847 4381 806 
Q 4369 791 4362 762 
Q 4356 734 4356 713 
Q 4356 694 4361 664 
Q 4366 634 4366 622 
Q 4356 581 4336 547 
Q 4316 513 4289 484 
Q 4263 456 4238 431 
Q 4213 406 4197 384 
L 4181 288 
Q 4147 128 4042 50 
Q 3938 -28 3781 -28 
L 3534 22 
L 3434 -28 
L 3094 -28 
Q 3031 9 2982 15 
Q 2934 22 2869 22 
Q 2797 22 2734 -3 
Q 2672 -28 2616 -28 
L 2572 -28 
L 2091 38 
L 2031 59 
L 1750 59 
Q 1716 94 1692 98 
Q 1669 103 1625 103 
Q 1591 103 1573 100 
Q 1556 97 1528 75 
L 1025 75 
Q 978 38 878 14 
Q 778 -9 667 -21 
Q 556 -34 453 -39 
Q 350 -44 294 -44 
Q 253 -44 222 -25 
Q 191 -6 169 23 
Q 147 53 134 87 
Q 122 122 122 156 
z
" transform="scale(0.015625)"/>
      <path id="IM_FELL_English_SC-48" d="M 278 134 
Q 278 200 309 239 
Q 341 278 386 303 
Q 431 328 484 351 
Q 538 375 583 409 
Q 628 444 659 500 
Q 691 556 691 650 
Q 691 675 691 698 
Q 691 722 684 747 
Q 675 803 675 866 
Q 675 916 684 969 
Q 691 994 691 1014 
Q 691 1034 691 1059 
Q 691 1094 687 1122 
Q 684 1150 678 1184 
Q 675 1219 672 1256 
Q 669 1294 669 1331 
Q 669 1366 672 1398 
Q 675 1431 678 1466 
Q 684 1500 690 1533 
Q 697 1566 697 1600 
Q 697 1656 686 1714 
Q 675 1772 663 1828 
Q 650 1875 642 1926 
Q 634 1978 634 2028 
Q 634 2047 637 2064 
Q 641 2081 647 2097 
Q 656 2128 656 2163 
Q 656 2166 654 2167 
Q 653 2169 653 2175 
L 653 2184 
Q 650 2194 642 2211 
Q 634 2228 625 2245 
Q 616 2263 608 2278 
Q 600 2294 597 2297 
Q 584 2309 553 2342 
Q 522 2375 487 2411 
Q 453 2447 420 2478 
Q 388 2509 375 2519 
Q 372 2525 364 2537 
Q 356 2550 356 2556 
Q 356 2619 403 2672 
Q 450 2725 500 2741 
Q 522 2750 558 2762 
Q 594 2775 630 2786 
Q 666 2797 694 2806 
Q 722 2816 728 2816 
Q 734 2816 759 2819 
Q 784 2822 797 2822 
Q 841 2822 880 2812 
Q 919 2803 959 2794 
Q 984 2791 1012 2784 
Q 1041 2778 1069 2778 
Q 1097 2778 1119 2781 
Q 1141 2784 1166 2791 
Q 1188 2794 1209 2797 
Q 1231 2800 1256 2800 
Q 1316 2800 1366 2781 
Q 1416 2763 1469 2763 
Q 1472 2763 1490 2761 
Q 1509 2759 1532 2759 
Q 1556 2759 1579 2757 
Q 1603 2756 1619 2756 
Q 1769 2756 1917 2775 
Q 2066 2794 2216 2800 
Q 2231 2813 2242 2814 
Q 2253 2816 2275 2816 
Q 2356 2781 2397 2725 
Q 2438 2669 2456 2594 
Q 2456 2588 2457 2569 
Q 2459 2550 2462 2528 
Q 2466 2506 2469 2487 
Q 2472 2469 2475 2466 
Q 2475 2463 2478 2455 
Q 2481 2447 2484 2420 
Q 2488 2394 2491 2347 
Q 2494 2300 2497 2222 
Q 2497 2181 2455 2156 
Q 2413 2131 2378 2131 
Q 2344 2131 2322 2137 
Q 2300 2144 2281 2156 
Q 2263 2169 2244 2186 
Q 2225 2203 2197 2222 
Q 2194 2222 2180 2230 
Q 2166 2238 2159 2244 
Q 2156 2244 2131 2248 
Q 2106 2253 2100 2259 
Q 2038 2284 2002 2329 
Q 1966 2375 1916 2428 
Q 1900 2428 1867 2429 
Q 1834 2431 1795 2434 
Q 1756 2438 1722 2441 
Q 1688 2444 1675 2450 
Q 1669 2450 1637 2465 
Q 1606 2481 1597 2481 
Q 1594 2488 1561 2488 
Q 1528 2488 1513 2488 
Q 1450 2488 1406 2466 
Q 1363 2444 1331 2406 
Q 1300 2369 1279 2320 
Q 1259 2272 1247 2222 
Q 1247 2216 1239 2184 
Q 1231 2153 1225 2141 
Q 1225 2134 1229 2123 
Q 1234 2113 1247 2053 
Q 1247 1956 1220 1861 
Q 1194 1766 1194 1666 
Q 1194 1638 1212 1622 
Q 1231 1606 1257 1600 
Q 1284 1594 1314 1592 
Q 1344 1591 1366 1591 
L 1438 1591 
Q 1453 1591 1479 1594 
Q 1506 1597 1531 1600 
Q 1556 1603 1576 1606 
Q 1597 1609 1597 1613 
Q 1600 1613 1615 1623 
Q 1631 1634 1648 1648 
Q 1666 1663 1684 1678 
Q 1703 1694 1713 1703 
Q 1722 1713 1736 1725 
Q 1750 1738 1764 1752 
Q 1778 1766 1789 1778 
Q 1800 1791 1803 1794 
Q 1831 1831 1832 1875 
Q 1834 1919 1839 1955 
Q 1844 1991 1866 2014 
Q 1888 2038 1956 2038 
Q 2047 2038 2084 1981 
Q 2122 1925 2122 1838 
Q 2122 1784 2109 1753 
Q 2097 1722 2083 1697 
Q 2069 1672 2058 1644 
Q 2047 1616 2047 1572 
Q 2047 1531 2062 1504 
Q 2078 1478 2084 1444 
L 2100 1238 
Q 2103 1234 2108 1218 
Q 2113 1203 2119 1183 
Q 2125 1163 2131 1142 
Q 2138 1122 2138 1109 
Q 2134 1094 2132 1072 
Q 2131 1050 2128 1028 
Q 2125 1003 2122 978 
Q 2119 969 2106 955 
Q 2094 941 2076 927 
Q 2059 913 2040 900 
Q 2022 888 2009 888 
Q 1997 888 1978 889 
Q 1959 891 1956 903 
Q 1950 909 1944 940 
Q 1938 972 1938 978 
Q 1922 1006 1897 1047 
Q 1872 1088 1840 1133 
Q 1809 1178 1771 1222 
Q 1734 1266 1697 1297 
Q 1663 1322 1623 1326 
Q 1584 1331 1559 1331 
L 1438 1291 
Q 1431 1291 1407 1300 
Q 1384 1309 1375 1309 
L 1363 1309 
Q 1356 1309 1353 1311 
Q 1350 1313 1344 1313 
Q 1328 1313 1303 1294 
Q 1278 1275 1254 1248 
Q 1231 1222 1212 1194 
Q 1194 1166 1194 1147 
Q 1194 1141 1191 1108 
Q 1188 1075 1188 1053 
Q 1188 1047 1188 1034 
Q 1188 1022 1191 1009 
Q 1191 997 1194 978 
Q 1194 953 1203 889 
Q 1213 825 1225 754 
Q 1238 684 1248 620 
Q 1259 556 1263 531 
Q 1306 484 1325 445 
Q 1344 406 1361 375 
Q 1378 344 1411 326 
Q 1444 309 1516 309 
Q 1594 309 1670 325 
Q 1747 341 1825 347 
L 1900 347 
Q 1906 347 1936 362 
Q 1966 378 1972 384 
L 2047 400 
Q 2059 406 2079 411 
Q 2100 416 2100 422 
Q 2109 428 2146 458 
Q 2184 488 2197 491 
Q 2228 516 2262 520 
Q 2297 525 2322 550 
Q 2359 581 2395 620 
Q 2431 659 2468 693 
Q 2506 728 2551 750 
Q 2597 772 2653 772 
L 2719 772 
Q 2744 756 2750 728 
Q 2756 700 2756 672 
Q 2756 528 2678 400 
Q 2678 397 2667 381 
Q 2656 366 2642 347 
Q 2628 328 2617 311 
Q 2606 294 2603 288 
Q 2600 284 2597 268 
Q 2594 253 2592 234 
Q 2591 216 2587 198 
Q 2584 181 2581 178 
Q 2581 172 2576 159 
Q 2572 147 2566 141 
Q 2559 131 2542 112 
Q 2525 94 2503 73 
Q 2481 53 2462 34 
Q 2444 16 2438 9 
L 2409 9 
Q 2353 9 2297 0 
Q 2231 -9 2166 -9 
Q 2100 -9 2047 11 
Q 1994 31 1916 31 
Q 1900 31 1865 29 
Q 1831 28 1825 28 
L 1678 6 
Q 1609 -6 1537 -7 
Q 1466 -9 1394 -9 
L 1166 -9 
Q 1116 -9 1078 0 
Q 1041 9 997 9 
Q 966 9 936 -9 
Q 906 -28 878 -28 
L 706 9 
Q 703 9 681 4 
Q 659 0 631 -6 
Q 603 -13 572 -19 
Q 541 -25 522 -28 
Q 484 -28 442 -18 
Q 400 -9 364 11 
Q 328 31 303 61 
Q 278 91 278 134 
z
" transform="scale(0.015625)"/>
      <path id="IM_FELL_English_SC-3" transform="scale(0.015625)"/>
      <path id="IM_FELL_English_SC-53" d="M 263 103 
Q 263 159 292 187 
Q 322 216 364 230 
Q 406 244 451 250 
Q 497 256 531 269 
Q 631 400 662 569 
Q 694 738 694 913 
Q 694 1028 689 1137 
Q 684 1247 684 1347 
L 684 1413 
Q 684 1425 687 1473 
Q 691 1522 695 1576 
Q 700 1631 704 1679 
Q 709 1728 709 1741 
Q 709 1750 704 1781 
Q 700 1813 695 1847 
Q 691 1881 687 1912 
Q 684 1944 684 1953 
Q 681 1975 678 2039 
Q 675 2103 670 2176 
Q 666 2250 659 2314 
Q 653 2378 650 2406 
Q 616 2466 561 2508 
Q 506 2550 453 2587 
Q 400 2625 361 2664 
Q 322 2703 322 2756 
L 322 2794 
Q 322 2816 326 2833 
Q 331 2850 353 2853 
Q 438 2881 538 2900 
Q 638 2919 741 2930 
Q 844 2941 942 2944 
Q 1041 2947 1125 2947 
L 1191 2947 
Q 1203 2941 1240 2927 
Q 1278 2913 1284 2913 
L 1463 2913 
Q 1469 2913 1489 2909 
Q 1509 2906 1532 2901 
Q 1556 2897 1578 2890 
Q 1600 2884 1613 2881 
Q 1784 2841 1967 2803 
Q 2150 2766 2309 2675 
Q 2322 2659 2351 2617 
Q 2381 2575 2415 2526 
Q 2450 2478 2479 2434 
Q 2509 2391 2522 2372 
Q 2525 2366 2536 2342 
Q 2547 2319 2547 2313 
Q 2550 2303 2558 2261 
Q 2566 2219 2575 2167 
Q 2584 2116 2592 2064 
Q 2600 2013 2603 1984 
Q 2603 1981 2606 1978 
Q 2613 1972 2613 1963 
Q 2613 1925 2592 1861 
Q 2572 1797 2542 1731 
Q 2513 1666 2475 1609 
Q 2438 1553 2403 1531 
Q 2394 1525 2361 1506 
Q 2328 1488 2292 1469 
Q 2256 1450 2226 1433 
Q 2197 1416 2191 1413 
Q 2184 1409 2165 1396 
Q 2147 1384 2126 1368 
Q 2106 1353 2087 1340 
Q 2069 1328 2063 1325 
Q 2059 1322 2046 1317 
Q 2034 1313 2020 1306 
Q 2006 1300 1993 1295 
Q 1981 1291 1981 1291 
Q 1969 1288 1947 1277 
Q 1925 1266 1922 1259 
L 1753 1259 
Q 1688 1259 1638 1259 
Q 1588 1259 1538 1262 
Q 1488 1266 1434 1272 
Q 1381 1278 1309 1291 
Q 1284 1281 1269 1269 
Q 1228 1247 1228 1231 
L 1228 719 
Q 1253 678 1258 647 
Q 1263 616 1263 572 
Q 1263 519 1245 472 
Q 1228 425 1228 372 
L 1228 363 
Q 1238 347 1270 312 
Q 1303 278 1309 269 
Q 1347 269 1398 275 
Q 1450 281 1503 281 
Q 1584 281 1646 256 
Q 1709 231 1709 147 
Q 1709 103 1676 51 
Q 1644 0 1591 0 
L 441 0 
Q 428 0 398 8 
Q 369 16 339 30 
Q 309 44 286 62 
Q 263 81 263 103 
z
M 1228 1503 
Q 1234 1494 1254 1472 
Q 1275 1450 1284 1444 
L 1300 1444 
L 1309 1444 
Q 1316 1444 1334 1448 
Q 1353 1453 1375 1458 
Q 1397 1463 1415 1467 
Q 1434 1472 1441 1472 
L 1494 1472 
L 1672 1472 
L 1709 1472 
Q 1719 1472 1744 1487 
Q 1769 1503 1797 1522 
Q 1825 1541 1851 1561 
Q 1878 1581 1888 1594 
Q 1891 1597 1894 1614 
Q 1897 1631 1901 1651 
Q 1906 1672 1911 1690 
Q 1916 1709 1922 1713 
Q 1928 1741 1942 1762 
Q 1956 1784 1972 1804 
Q 1988 1825 2000 1848 
Q 2013 1872 2013 1903 
Q 2013 1916 2006 1934 
Q 2003 1944 2003 1953 
Q 2000 1991 1992 2052 
Q 1984 2113 1975 2175 
Q 1966 2238 1956 2284 
Q 1947 2331 1944 2341 
Q 1928 2406 1892 2454 
Q 1856 2503 1807 2539 
Q 1759 2575 1703 2600 
Q 1647 2625 1591 2644 
L 1569 2644 
Q 1500 2644 1414 2633 
Q 1328 2622 1250 2584 
Q 1256 2544 1256 2506 
Q 1256 2469 1256 2428 
Q 1256 2244 1242 2064 
Q 1228 1884 1228 1691 
L 1228 1503 
z
" transform="scale(0.015625)"/>
      <path id="IM_FELL_English_SC-44" d="M 1853 409 
Q 1850 413 1844 430 
Q 1838 447 1831 465 
Q 1825 484 1820 500 
Q 1816 516 1816 519 
Q 1809 528 1809 545 
Q 1809 563 1809 584 
Q 1809 603 1809 622 
Q 1809 641 1816 650 
Q 1772 691 1764 723 
Q 1756 756 1756 800 
L 1756 866 
Q 1756 872 1750 884 
Q 1744 897 1741 903 
Q 1731 909 1704 937 
Q 1678 966 1663 972 
Q 1638 994 1600 1000 
Q 1563 1006 1534 1028 
Q 1528 1028 1504 1028 
Q 1481 1028 1475 1031 
Q 1453 1025 1423 1011 
Q 1394 997 1388 991 
L 1356 972 
L 1203 991 
L 1128 991 
Q 1088 991 1044 975 
Q 1000 959 958 934 
Q 916 909 880 876 
Q 844 844 822 809 
Q 816 803 809 772 
Q 803 741 803 734 
Q 797 716 784 695 
Q 772 675 772 650 
L 766 572 
L 744 491 
L 772 347 
Q 772 341 781 331 
Q 791 322 803 309 
Q 838 275 838 269 
Q 838 266 848 262 
Q 859 259 871 256 
Q 884 253 896 251 
Q 909 250 913 250 
Q 931 250 962 247 
Q 994 244 1023 231 
Q 1053 219 1075 198 
Q 1097 178 1097 141 
Q 1097 103 1069 68 
Q 1041 34 1000 22 
Q 984 19 950 12 
Q 916 6 875 -3 
Q 834 -13 796 -20 
Q 759 -28 744 -31 
L 669 0 
L 216 -31 
Q 175 -25 145 -19 
Q 116 -13 92 0 
Q 69 13 51 34 
Q 34 56 16 97 
Q 16 153 48 189 
Q 81 225 128 250 
Q 175 275 225 295 
Q 275 316 306 334 
Q 306 341 314 345 
Q 322 350 328 356 
Q 356 384 389 421 
Q 422 459 438 503 
Q 441 506 447 522 
Q 453 538 459 556 
Q 466 575 470 590 
Q 475 606 475 609 
Q 509 700 556 773 
Q 603 847 638 919 
Q 641 922 647 937 
Q 653 953 659 972 
Q 666 991 670 1006 
Q 675 1022 675 1028 
L 728 1250 
Q 731 1253 737 1267 
Q 744 1281 750 1297 
Q 756 1313 761 1325 
Q 766 1338 766 1341 
L 822 1525 
Q 841 1594 870 1639 
Q 900 1684 928 1747 
L 944 1838 
Q 950 1850 956 1879 
Q 963 1909 966 1913 
L 1000 2022 
Q 1000 2034 1004 2056 
Q 1009 2078 1012 2103 
Q 1016 2128 1019 2151 
Q 1022 2175 1022 2184 
L 1022 2422 
Q 1022 2431 1030 2450 
Q 1038 2469 1047 2489 
Q 1056 2509 1068 2526 
Q 1081 2544 1097 2553 
L 1203 2591 
Q 1213 2591 1233 2614 
Q 1253 2638 1259 2644 
L 1366 2694 
L 1447 2772 
Q 1500 2772 1536 2730 
Q 1572 2688 1594 2644 
Q 1597 2628 1608 2593 
Q 1619 2559 1630 2520 
Q 1641 2481 1652 2447 
Q 1663 2413 1663 2400 
L 1663 2309 
Q 1669 2303 1675 2290 
Q 1681 2278 1684 2272 
Q 1728 2200 1759 2111 
Q 1791 2022 1816 1931 
Q 1822 1869 1823 1859 
Q 1825 1850 1831 1850 
Q 1859 1850 1873 1823 
Q 1888 1797 1903 1763 
L 1941 1659 
Q 1941 1650 1950 1629 
Q 1959 1609 1971 1584 
Q 1984 1559 1995 1536 
Q 2006 1513 2009 1503 
Q 2013 1500 2031 1475 
Q 2041 1463 2047 1453 
Q 2050 1447 2059 1420 
Q 2069 1394 2078 1362 
Q 2088 1331 2095 1304 
Q 2103 1278 2103 1272 
Q 2119 1209 2139 1145 
Q 2159 1081 2194 1028 
Q 2194 1019 2219 989 
Q 2244 959 2247 950 
L 2266 866 
Q 2278 813 2290 778 
Q 2303 744 2306 709 
Q 2306 700 2314 672 
Q 2322 644 2331 611 
Q 2341 578 2348 551 
Q 2356 525 2356 519 
Q 2363 484 2388 443 
Q 2413 403 2438 394 
Q 2441 391 2461 381 
Q 2481 372 2504 361 
Q 2528 350 2548 340 
Q 2569 331 2572 331 
Q 2609 306 2642 295 
Q 2675 284 2697 270 
Q 2719 256 2731 231 
Q 2744 206 2744 156 
Q 2744 109 2694 76 
Q 2644 44 2576 23 
Q 2509 3 2442 -6 
Q 2375 -16 2344 -16 
Q 2263 -16 2195 6 
Q 2128 28 2038 28 
L 1794 0 
Q 1763 0 1716 4 
Q 1669 9 1623 23 
Q 1578 38 1545 63 
Q 1513 88 1513 131 
Q 1513 191 1566 214 
Q 1619 238 1683 256 
Q 1747 275 1800 301 
Q 1853 328 1853 394 
L 1853 409 
z
M 1259 1216 
Q 1263 1216 1283 1211 
Q 1303 1206 1329 1200 
Q 1356 1194 1382 1187 
Q 1409 1181 1425 1178 
L 1497 1163 
Q 1500 1166 1522 1169 
Q 1544 1172 1569 1178 
L 1631 1191 
L 1572 1428 
Q 1566 1456 1561 1504 
Q 1556 1553 1556 1569 
Q 1556 1609 1548 1639 
Q 1541 1669 1528 1697 
Q 1516 1725 1500 1754 
Q 1484 1784 1469 1822 
Q 1463 1844 1427 1872 
Q 1391 1900 1366 1925 
Q 1356 1934 1334 1934 
Q 1306 1934 1278 1912 
Q 1250 1891 1216 1891 
Q 1188 1891 1158 1844 
Q 1128 1797 1101 1736 
Q 1075 1675 1058 1614 
Q 1041 1553 1038 1525 
L 1038 1288 
Q 1044 1278 1056 1250 
Q 1069 1222 1075 1216 
Q 1081 1209 1087 1201 
Q 1094 1194 1106 1194 
Q 1113 1194 1136 1197 
Q 1159 1200 1184 1204 
Q 1209 1209 1231 1212 
Q 1253 1216 1259 1216 
z
" transform="scale(0.015625)"/>
      <path id="IM_FELL_English_SC-57" d="M 1644 38 
Q 1609 38 1587 28 
Q 1566 19 1545 8 
Q 1525 -3 1503 -12 
Q 1481 -22 1450 -22 
Q 1416 -22 1383 -11 
Q 1350 0 1313 0 
Q 1241 -13 1181 -25 
Q 1122 -38 1059 -38 
L 994 -38 
Q 981 -22 979 -11 
Q 978 0 978 16 
Q 978 44 987 76 
Q 997 109 1013 131 
Q 1016 134 1027 145 
Q 1038 156 1050 167 
Q 1063 178 1075 189 
Q 1088 200 1094 206 
Q 1131 238 1165 247 
Q 1200 256 1236 262 
Q 1272 269 1309 287 
Q 1347 306 1391 356 
Q 1394 363 1403 377 
Q 1413 391 1413 394 
L 1413 675 
Q 1388 738 1372 809 
Q 1356 881 1356 947 
L 1356 978 
L 1391 1097 
Q 1391 1100 1386 1112 
Q 1381 1125 1373 1140 
Q 1366 1156 1361 1170 
Q 1356 1184 1356 1191 
L 1356 1250 
L 1378 1416 
Q 1378 1444 1367 1464 
Q 1356 1484 1356 1509 
L 1413 1622 
Q 1413 1628 1394 1659 
Q 1375 1691 1363 1697 
L 1363 2038 
L 1334 2097 
L 1334 2438 
Q 1334 2469 1301 2480 
Q 1269 2491 1223 2495 
Q 1178 2500 1129 2500 
Q 1081 2500 1053 2509 
Q 1047 2513 1003 2533 
Q 959 2553 925 2553 
Q 888 2553 864 2537 
Q 841 2522 819 2501 
Q 797 2481 772 2462 
Q 747 2444 713 2438 
Q 706 2434 681 2431 
Q 656 2428 628 2426 
Q 600 2425 575 2422 
Q 550 2419 547 2416 
Q 541 2416 531 2412 
Q 522 2409 513 2406 
L 488 2400 
Q 475 2388 445 2359 
Q 416 2331 413 2325 
Q 406 2316 400 2284 
Q 394 2253 394 2250 
L 353 2206 
L 328 2200 
Q 319 2197 309 2194 
Q 300 2191 297 2191 
Q 288 2184 269 2165 
Q 250 2147 226 2126 
Q 203 2106 184 2087 
Q 166 2069 156 2059 
Q 128 2059 108 2078 
Q 88 2097 72 2113 
L 72 2250 
Q 72 2303 76 2389 
Q 81 2475 101 2558 
Q 122 2641 167 2702 
Q 213 2763 297 2763 
L 503 2734 
Q 525 2734 559 2737 
Q 594 2741 600 2741 
Q 606 2741 637 2748 
Q 669 2756 769 2756 
Q 847 2766 925 2780 
Q 1003 2794 1081 2794 
Q 1125 2794 1165 2783 
Q 1206 2772 1253 2772 
L 1444 2794 
L 1488 2794 
Q 1509 2794 1528 2787 
Q 1547 2781 1563 2756 
L 1791 2756 
Q 1794 2756 1826 2764 
Q 1859 2772 1866 2778 
L 1903 2778 
Q 1922 2775 1959 2770 
Q 1997 2766 2033 2762 
Q 2069 2759 2097 2757 
Q 2125 2756 2131 2756 
L 2169 2741 
Q 2175 2738 2181 2738 
Q 2188 2734 2194 2734 
Q 2244 2734 2280 2767 
Q 2316 2800 2353 2816 
Q 2378 2822 2422 2837 
Q 2466 2853 2472 2853 
L 2753 2853 
Q 2759 2847 2781 2840 
Q 2803 2834 2813 2834 
L 2947 2834 
Q 2950 2834 2961 2823 
Q 2972 2813 2986 2797 
Q 3000 2781 3014 2765 
Q 3028 2750 3034 2741 
Q 3088 2675 3109 2622 
Q 3131 2569 3131 2475 
Q 3131 2469 3123 2447 
Q 3116 2425 3109 2416 
L 3109 2113 
Q 3109 2100 3096 2098 
Q 3084 2097 3075 2097 
Q 3056 2097 3047 2098 
Q 3038 2100 3016 2113 
L 2866 2206 
Q 2856 2216 2826 2241 
Q 2797 2266 2762 2294 
Q 2728 2322 2697 2347 
Q 2666 2372 2656 2378 
Q 2656 2384 2631 2400 
Q 2606 2416 2600 2416 
L 2525 2475 
Q 2516 2481 2494 2490 
Q 2472 2500 2451 2509 
Q 2431 2519 2414 2525 
Q 2397 2531 2394 2531 
L 2094 2531 
Q 2088 2528 2078 2522 
Q 2059 2509 2056 2509 
Q 2041 2500 2011 2484 
Q 1981 2469 1951 2451 
Q 1922 2434 1897 2418 
Q 1872 2403 1866 2400 
Q 1850 2394 1847 2384 
Q 1844 2375 1844 2369 
L 1844 2325 
Q 1844 2316 1853 2303 
Q 1859 2294 1866 2288 
Q 1891 2172 1908 2067 
Q 1925 1963 1941 1850 
Q 1956 1734 1975 1625 
Q 1994 1516 1994 1400 
L 1994 1097 
Q 1997 1088 2000 1055 
Q 2003 1022 2006 983 
Q 2009 944 2012 909 
Q 2016 875 2016 866 
L 1994 600 
Q 1994 575 1995 533 
Q 1997 491 2005 448 
Q 2013 406 2028 368 
Q 2044 331 2072 319 
Q 2084 316 2117 306 
Q 2150 297 2186 284 
Q 2222 272 2253 261 
Q 2284 250 2297 244 
Q 2359 222 2387 195 
Q 2416 169 2416 103 
Q 2416 56 2394 25 
Q 2372 -6 2337 -25 
Q 2303 -44 2261 -51 
Q 2219 -59 2178 -59 
L 2131 -59 
L 2072 -22 
L 1925 -22 
Q 1916 -19 1884 -11 
Q 1853 -3 1817 8 
Q 1781 19 1751 26 
Q 1722 34 1716 38 
L 1644 38 
z
" transform="scale(0.015625)"/>
      <path id="IM_FELL_English_SC-55" d="M 209 134 
Q 209 141 225 169 
Q 241 197 247 206 
Q 291 263 366 286 
Q 441 309 513 309 
Q 534 309 551 309 
Q 569 309 588 303 
Q 622 328 645 362 
Q 669 397 684 438 
Q 681 450 678 479 
Q 675 509 675 547 
Q 675 581 678 614 
Q 681 647 684 659 
Q 691 709 716 750 
Q 741 791 741 844 
L 741 872 
L 703 947 
L 703 1038 
Q 694 1122 678 1208 
Q 663 1294 663 1384 
L 703 1613 
L 697 1731 
Q 697 1744 697 1758 
Q 697 1772 703 1784 
Q 709 1834 714 1884 
Q 719 1934 719 1984 
Q 719 2034 714 2082 
Q 709 2131 703 2184 
Q 697 2219 698 2258 
Q 700 2297 684 2331 
Q 659 2378 625 2420 
Q 591 2463 550 2494 
Q 513 2525 469 2533 
Q 425 2541 379 2545 
Q 334 2550 295 2565 
Q 256 2581 231 2628 
Q 228 2631 228 2638 
Q 225 2641 225 2650 
Q 225 2678 242 2695 
Q 259 2713 282 2722 
Q 306 2731 334 2734 
Q 363 2738 381 2741 
L 513 2741 
Q 556 2747 604 2765 
Q 653 2784 703 2784 
Q 709 2784 725 2784 
Q 741 2784 741 2778 
Q 744 2778 775 2759 
Q 806 2741 816 2741 
L 944 2741 
L 1150 2725 
Q 1156 2719 1176 2719 
Q 1197 2719 1203 2719 
Q 1253 2719 1286 2730 
Q 1319 2741 1372 2741 
Q 1484 2741 1603 2731 
Q 1722 2722 1838 2688 
Q 1913 2666 1981 2652 
Q 2050 2638 2111 2617 
Q 2172 2597 2226 2561 
Q 2281 2525 2328 2459 
Q 2366 2403 2389 2367 
Q 2413 2331 2425 2295 
Q 2438 2259 2441 2214 
Q 2444 2169 2444 2097 
Q 2444 2034 2426 1976 
Q 2409 1919 2363 1872 
Q 2353 1863 2328 1834 
Q 2303 1806 2272 1776 
Q 2241 1747 2214 1719 
Q 2188 1691 2178 1681 
Q 2166 1681 2136 1675 
Q 2106 1669 2103 1659 
Q 2097 1656 2073 1645 
Q 2050 1634 2023 1623 
Q 1997 1613 1975 1602 
Q 1953 1591 1950 1591 
Q 1934 1584 1914 1581 
Q 1894 1578 1875 1573 
Q 1856 1569 1843 1558 
Q 1831 1547 1831 1525 
Q 1831 1484 1843 1439 
Q 1856 1394 1876 1351 
Q 1897 1309 1925 1271 
Q 1953 1234 1984 1213 
Q 1991 1206 2014 1189 
Q 2038 1172 2044 1172 
L 2063 1150 
Q 2069 1147 2092 1114 
Q 2116 1081 2125 1075 
Q 2125 1075 2137 1061 
Q 2150 1047 2165 1031 
Q 2181 1016 2195 1000 
Q 2209 984 2216 978 
Q 2219 972 2234 939 
Q 2250 906 2269 868 
Q 2288 831 2305 798 
Q 2322 766 2328 756 
Q 2331 750 2347 728 
Q 2363 706 2383 678 
Q 2403 650 2425 623 
Q 2447 597 2459 584 
Q 2494 544 2531 516 
Q 2569 488 2609 453 
L 2763 341 
L 2956 319 
Q 2969 316 2997 303 
Q 3025 291 3051 270 
Q 3078 250 3098 226 
Q 3119 203 3119 178 
Q 3119 166 3103 136 
Q 3088 106 3064 76 
Q 3041 47 3014 23 
Q 2988 0 2966 0 
L 2706 0 
Q 2672 28 2606 40 
Q 2541 53 2497 59 
L 2269 59 
Q 2144 103 2084 189 
Q 2025 275 1984 394 
Q 1984 400 1973 423 
Q 1963 447 1928 491 
L 1906 584 
Q 1906 591 1901 603 
Q 1897 616 1891 622 
Q 1872 650 1839 698 
Q 1806 747 1773 797 
Q 1741 847 1714 883 
Q 1688 919 1684 925 
L 1459 1172 
Q 1416 1216 1359 1244 
Q 1303 1272 1247 1272 
Q 1234 1272 1225 1269 
Q 1216 1266 1209 1250 
Q 1209 1241 1212 1223 
Q 1216 1206 1216 1184 
Q 1216 1163 1212 1144 
Q 1209 1125 1209 1119 
L 1194 1038 
L 1194 816 
Q 1194 809 1186 775 
Q 1178 741 1172 725 
Q 1172 659 1189 617 
Q 1206 575 1231 513 
L 1209 416 
Q 1209 359 1251 346 
Q 1294 334 1342 328 
Q 1391 322 1433 297 
Q 1475 272 1475 194 
Q 1475 147 1448 123 
Q 1422 100 1384 90 
Q 1347 81 1305 79 
Q 1263 78 1231 75 
L 869 75 
Q 853 72 811 67 
Q 769 63 720 58 
Q 672 53 628 47 
Q 584 41 566 38 
Q 531 13 514 6 
Q 497 0 469 0 
Q 419 0 389 19 
Q 359 38 322 59 
Q 319 59 294 64 
Q 269 69 263 75 
Q 250 84 229 107 
Q 209 131 209 134 
z
M 1134 1872 
Q 1141 1863 1145 1831 
Q 1150 1800 1150 1794 
Q 1159 1766 1162 1731 
Q 1166 1697 1172 1662 
Q 1178 1628 1190 1600 
Q 1203 1572 1231 1553 
Q 1288 1509 1333 1492 
Q 1378 1475 1459 1475 
Q 1466 1475 1486 1483 
Q 1506 1491 1513 1491 
L 1684 1606 
Q 1703 1619 1731 1630 
Q 1759 1641 1784 1656 
Q 1809 1672 1829 1690 
Q 1850 1709 1853 1734 
Q 1853 1741 1856 1766 
Q 1859 1791 1862 1820 
Q 1866 1850 1869 1881 
Q 1872 1913 1875 1931 
L 1875 1953 
Q 1875 2094 1823 2228 
Q 1772 2363 1663 2459 
Q 1628 2494 1592 2523 
Q 1556 2553 1503 2553 
L 1459 2553 
L 1269 2534 
Q 1188 2478 1169 2404 
Q 1150 2331 1150 2238 
L 1150 2006 
Q 1150 1997 1145 1955 
Q 1141 1913 1134 1891 
L 1134 1872 
z
" transform="scale(0.015625)"/>
      <path id="IM_FELL_English_SC-52" d="M 444 675 
Q 444 697 437 731 
Q 431 766 428 778 
Q 422 788 397 808 
Q 372 828 369 831 
Q 353 856 345 890 
Q 338 925 331 950 
Q 325 972 311 1014 
Q 297 1056 291 1066 
Q 291 1072 275 1095 
Q 259 1119 253 1125 
L 238 1156 
Q 238 1166 245 1197 
Q 253 1228 253 1231 
Q 253 1247 256 1294 
Q 259 1341 259 1394 
Q 259 1447 256 1492 
Q 253 1538 253 1556 
L 275 1616 
Q 275 1619 276 1639 
Q 278 1659 281 1682 
Q 284 1706 287 1726 
Q 291 1747 291 1753 
Q 297 1766 325 1800 
Q 353 1834 369 1850 
Q 369 1853 359 1873 
Q 350 1894 350 1903 
Q 347 1903 347 1906 
L 347 1913 
L 350 1925 
Q 375 1969 409 2023 
Q 444 2078 488 2113 
Q 522 2144 555 2167 
Q 588 2191 616 2228 
Q 644 2263 664 2308 
Q 684 2353 713 2394 
Q 713 2400 719 2406 
Q 725 2413 731 2416 
Q 800 2466 872 2523 
Q 944 2581 1016 2622 
Q 1019 2625 1036 2634 
Q 1053 2644 1073 2653 
Q 1094 2663 1109 2670 
Q 1125 2678 1131 2681 
L 1206 2741 
Q 1216 2744 1244 2745 
Q 1272 2747 1303 2750 
Q 1334 2753 1362 2754 
Q 1391 2756 1400 2756 
Q 1403 2759 1415 2765 
Q 1428 2772 1443 2778 
Q 1459 2784 1473 2789 
Q 1488 2794 1491 2794 
Q 1544 2809 1611 2823 
Q 1678 2838 1734 2838 
Q 1813 2838 1889 2808 
Q 1966 2778 2044 2763 
Q 2128 2744 2212 2726 
Q 2297 2709 2380 2687 
Q 2463 2666 2541 2633 
Q 2619 2600 2694 2547 
Q 2697 2544 2709 2530 
Q 2722 2516 2737 2500 
Q 2753 2484 2768 2470 
Q 2784 2456 2791 2453 
Q 2794 2450 2826 2444 
Q 2859 2438 2866 2438 
Q 2878 2428 2884 2411 
Q 2891 2394 2895 2373 
Q 2900 2353 2904 2334 
Q 2909 2316 2919 2303 
Q 2922 2300 2930 2287 
Q 2938 2275 2948 2262 
Q 2959 2250 2967 2239 
Q 2975 2228 2978 2228 
L 2994 2131 
Q 3003 2116 3033 2087 
Q 3063 2059 3072 2053 
L 3072 1881 
Q 3072 1859 3086 1828 
Q 3100 1797 3115 1762 
Q 3131 1728 3147 1693 
Q 3163 1659 3169 1631 
Q 3178 1584 3181 1550 
Q 3184 1516 3187 1483 
Q 3191 1450 3191 1415 
Q 3191 1381 3191 1334 
L 3191 1216 
Q 3191 1209 3181 1167 
Q 3172 1125 3169 1103 
Q 3163 1084 3156 1056 
Q 3150 1028 3145 1000 
Q 3141 972 3136 951 
Q 3131 931 3131 931 
Q 3125 922 3106 894 
Q 3088 866 3064 833 
Q 3041 800 3020 773 
Q 3000 747 2994 741 
Q 2994 738 2983 719 
Q 2972 700 2959 676 
Q 2947 653 2934 633 
Q 2922 613 2919 606 
Q 2878 550 2826 501 
Q 2775 453 2731 400 
Q 2703 363 2693 347 
Q 2684 331 2653 303 
Q 2609 269 2571 250 
Q 2534 231 2497 191 
Q 2497 184 2484 159 
Q 2472 134 2466 134 
Q 2459 131 2443 128 
Q 2428 125 2408 122 
Q 2388 119 2370 117 
Q 2353 116 2347 113 
Q 2328 103 2279 83 
Q 2231 63 2176 39 
Q 2122 16 2073 -7 
Q 2025 -31 2006 -44 
L 1822 -44 
Q 1547 -44 1281 53 
L 1244 75 
Q 1238 84 1228 94 
Q 1209 113 1206 113 
Q 1203 116 1189 119 
Q 1175 122 1159 125 
Q 1144 128 1128 131 
Q 1113 134 1109 134 
Q 997 159 908 218 
Q 819 278 744 353 
Q 669 428 597 511 
Q 525 594 444 666 
L 444 675 
z
M 1169 491 
Q 1163 481 1163 466 
Q 1163 441 1180 422 
Q 1197 403 1219 389 
Q 1241 375 1264 362 
Q 1288 350 1303 341 
Q 1334 316 1367 286 
Q 1400 256 1436 229 
Q 1472 203 1509 186 
Q 1547 169 1594 169 
Q 1628 163 1659 159 
Q 1691 156 1725 156 
Q 1753 156 1779 159 
Q 1806 163 1831 169 
L 1891 191 
L 1978 194 
L 2066 191 
Q 2072 194 2081 197 
Q 2094 200 2103 209 
Q 2113 216 2128 223 
Q 2144 231 2159 241 
Q 2175 253 2194 266 
Q 2200 269 2217 286 
Q 2234 303 2253 322 
Q 2272 341 2287 358 
Q 2303 375 2309 378 
L 2369 416 
Q 2391 438 2425 477 
Q 2459 516 2490 561 
Q 2522 606 2545 650 
Q 2569 694 2572 725 
Q 2575 734 2579 753 
Q 2584 772 2587 794 
Q 2591 816 2592 833 
Q 2594 850 2594 853 
Q 2613 1031 2613 1200 
Q 2613 1334 2594 1466 
Q 2581 1484 2579 1506 
Q 2578 1528 2578 1553 
L 2578 1628 
Q 2578 1659 2572 1675 
Q 2569 1713 2541 1742 
Q 2513 1772 2497 1806 
Q 2472 1863 2458 1911 
Q 2444 1959 2422 2016 
Q 2419 2022 2416 2031 
Q 2413 2041 2406 2053 
L 2347 2153 
Q 2347 2156 2340 2187 
Q 2334 2219 2331 2228 
Q 2266 2319 2167 2364 
Q 2069 2409 1969 2453 
Q 1959 2459 1936 2465 
Q 1913 2472 1909 2472 
L 1778 2472 
L 1681 2494 
L 1491 2494 
L 1378 2438 
Q 1344 2422 1319 2419 
Q 1294 2416 1266 2394 
Q 1213 2359 1163 2320 
Q 1113 2281 1053 2244 
Q 1050 2244 1048 2241 
Q 1047 2238 1041 2234 
Q 1034 2231 1031 2228 
Q 1031 2222 1029 2208 
Q 1028 2194 1025 2178 
Q 1022 2163 1020 2148 
Q 1019 2134 1016 2131 
L 978 2094 
Q 969 2081 958 2057 
Q 947 2034 934 2011 
Q 922 1988 914 1967 
Q 906 1947 903 1941 
L 903 1850 
Q 900 1844 894 1825 
Q 888 1806 881 1787 
Q 875 1769 870 1751 
Q 866 1734 866 1731 
L 866 1703 
L 903 1519 
Q 903 1484 884 1461 
Q 866 1438 866 1400 
Q 866 1300 897 1226 
Q 928 1153 941 1066 
L 978 725 
L 1016 666 
Q 1019 663 1025 644 
Q 1028 634 1031 628 
L 1169 491 
z
" transform="scale(0.015625)"/>
      <path id="IM_FELL_English_SC-51" d="M 525 6 
Q 469 6 428 9 
Q 388 13 325 28 
Q 291 34 286 43 
Q 281 53 281 81 
Q 281 163 343 197 
Q 406 231 478 238 
L 628 238 
Q 634 238 662 267 
Q 691 297 703 313 
Q 713 319 727 341 
Q 741 363 741 369 
Q 744 381 747 414 
Q 750 447 753 483 
Q 756 519 759 550 
Q 763 581 763 594 
L 741 838 
L 741 881 
Q 741 897 744 912 
Q 747 928 763 941 
L 763 1075 
L 741 1466 
L 741 1644 
Q 750 1656 764 1697 
Q 778 1738 778 1772 
Q 778 1881 750 1970 
Q 722 2059 688 2156 
Q 688 2163 680 2188 
Q 672 2213 666 2216 
Q 653 2244 645 2258 
Q 638 2272 613 2294 
Q 603 2300 579 2317 
Q 556 2334 529 2356 
Q 503 2378 476 2398 
Q 450 2419 438 2428 
Q 400 2456 351 2476 
Q 303 2497 258 2522 
Q 213 2547 178 2581 
Q 144 2616 138 2675 
Q 138 2681 142 2701 
Q 147 2722 153 2731 
Q 156 2738 170 2750 
Q 184 2763 191 2769 
L 266 2769 
Q 300 2772 326 2789 
Q 353 2806 391 2806 
Q 456 2806 520 2790 
Q 584 2775 650 2769 
Q 656 2766 684 2762 
Q 713 2759 744 2757 
Q 775 2756 803 2754 
Q 831 2753 838 2753 
Q 844 2747 881 2726 
Q 919 2706 931 2694 
L 1028 2578 
Q 1094 2528 1155 2475 
Q 1216 2422 1278 2369 
Q 1278 2363 1293 2358 
Q 1309 2353 1316 2353 
Q 1319 2347 1325 2340 
Q 1331 2334 1331 2331 
L 1375 2253 
L 1503 2119 
Q 1509 2113 1523 2081 
Q 1538 2050 1541 2044 
Q 1575 1988 1615 1953 
Q 1656 1919 1698 1891 
Q 1741 1863 1783 1833 
Q 1825 1803 1866 1756 
Q 1938 1678 1984 1603 
Q 2031 1528 2094 1438 
Q 2094 1431 2101 1426 
Q 2109 1422 2116 1416 
L 2169 1378 
Q 2178 1372 2201 1347 
Q 2225 1322 2253 1294 
Q 2281 1266 2306 1241 
Q 2331 1216 2341 1213 
Q 2347 1203 2369 1187 
Q 2391 1172 2397 1169 
Q 2416 1153 2437 1123 
Q 2459 1094 2481 1066 
Q 2503 1038 2525 1016 
Q 2547 994 2569 994 
Q 2603 994 2629 1014 
Q 2656 1034 2681 1053 
Q 2716 1078 2720 1089 
Q 2725 1100 2725 1131 
L 2681 1413 
L 2703 1681 
Q 2703 1684 2697 1696 
Q 2691 1709 2683 1721 
Q 2675 1734 2670 1745 
Q 2666 1756 2666 1756 
L 2666 1831 
Q 2666 1841 2658 1862 
Q 2650 1884 2644 1891 
L 2644 2178 
Q 2644 2188 2642 2213 
Q 2641 2238 2637 2266 
Q 2634 2294 2632 2319 
Q 2631 2344 2628 2353 
Q 2622 2381 2598 2404 
Q 2575 2428 2541 2428 
Q 2506 2428 2468 2417 
Q 2431 2406 2391 2406 
Q 2369 2406 2317 2409 
Q 2266 2413 2212 2423 
Q 2159 2434 2118 2456 
Q 2078 2478 2078 2519 
L 2078 2616 
Q 2078 2653 2079 2689 
Q 2081 2725 2093 2750 
Q 2106 2775 2132 2790 
Q 2159 2806 2206 2806 
Q 2291 2806 2377 2787 
Q 2463 2769 2541 2769 
Q 2584 2769 2640 2776 
Q 2697 2784 2741 2806 
L 3119 2806 
Q 3144 2791 3175 2787 
Q 3206 2784 3241 2784 
L 3316 2784 
Q 3356 2763 3362 2720 
Q 3369 2678 3369 2634 
L 3369 2616 
Q 3369 2531 3294 2481 
L 3119 2369 
Q 3119 2366 3106 2362 
Q 3094 2359 3078 2357 
Q 3063 2356 3047 2354 
Q 3031 2353 3028 2353 
Q 3016 2347 3000 2319 
Q 2984 2291 2968 2255 
Q 2953 2219 2942 2189 
Q 2931 2159 2931 2153 
L 2953 2053 
Q 2953 2050 2953 2039 
Q 2953 2028 2947 2028 
Q 2947 2022 2939 2006 
Q 2931 1991 2931 1984 
Q 2922 1950 2922 1906 
Q 2922 1863 2920 1817 
Q 2919 1772 2914 1731 
Q 2909 1691 2894 1666 
L 2878 1178 
Q 2881 1094 2911 1020 
Q 2941 947 2947 866 
L 2969 519 
Q 2975 491 2988 459 
Q 3003 400 3028 331 
L 3028 44 
Q 3028 9 2993 -11 
Q 2959 -31 2931 -31 
Q 2897 -31 2859 -12 
Q 2822 6 2784 32 
Q 2747 59 2715 89 
Q 2684 119 2666 141 
Q 2656 150 2639 170 
Q 2622 191 2603 212 
Q 2584 234 2568 251 
Q 2553 269 2547 275 
Q 2547 281 2533 314 
Q 2519 347 2516 350 
Q 2509 353 2489 373 
Q 2469 394 2445 417 
Q 2422 441 2401 461 
Q 2381 481 2378 488 
Q 2281 584 2206 691 
Q 2172 744 2131 772 
Q 2091 800 2056 844 
Q 2056 850 2040 872 
Q 2025 894 2019 903 
Q 2016 906 2008 920 
Q 2000 934 1990 950 
Q 1981 966 1973 980 
Q 1966 994 1963 994 
Q 1919 1053 1850 1089 
Q 1781 1125 1731 1169 
L 1678 1228 
Q 1672 1231 1655 1254 
Q 1638 1278 1638 1288 
L 1525 1378 
L 1278 1644 
Q 1266 1656 1239 1682 
Q 1213 1709 1184 1737 
Q 1156 1766 1132 1787 
Q 1109 1809 1103 1816 
Q 1088 1828 1073 1833 
Q 1059 1838 1034 1838 
Q 997 1838 983 1814 
Q 969 1791 969 1756 
Q 969 1750 969 1726 
Q 969 1703 975 1703 
L 991 1553 
L 991 1288 
L 1006 994 
Q 1009 994 1012 978 
Q 1016 963 1019 944 
Q 1022 925 1025 908 
Q 1028 891 1028 888 
L 1028 691 
Q 1028 688 1036 655 
Q 1044 622 1050 616 
Q 1056 544 1072 470 
Q 1088 397 1088 325 
Q 1088 309 1088 289 
Q 1088 269 1081 253 
L 1103 238 
Q 1122 234 1165 229 
Q 1209 225 1257 219 
Q 1306 213 1348 205 
Q 1391 197 1406 194 
Q 1463 191 1475 172 
Q 1488 153 1488 103 
Q 1488 19 1425 -6 
Q 1363 -31 1294 -31 
Q 1259 -31 1236 -28 
Q 1213 -25 1194 -19 
Q 1175 -13 1154 -5 
Q 1134 3 1103 9 
Q 1088 9 1052 18 
Q 1016 28 1006 28 
L 850 28 
L 525 6 
z
" transform="scale(0.015625)"/>
     </defs>
     <use xlink:href="#IM_FELL_English_SC-2f"/>
     <use xlink:href="#IM_FELL_English_SC-48" transform="translate(71.140625 0)"/>
     <use xlink:href="#IM_FELL_English_SC-3" transform="translate(116.984375 0)"/>
     <use xlink:href="#IM_FELL_English_SC-53" transform="translate(138.421875 0)"/>
     <use xlink:href="#IM_FELL_English_SC-44" transform="translate(179.390625 0)"/>
     <use xlink:href="#IM_FELL_English_SC-57" transform="translate(220.953125 0)"/>
     <use xlink:href="#IM_FELL_English_SC-55" transform="translate(272.171875 0)"/>
     <use xlink:href="#IM_FELL_English_SC-52" transform="translate(320.03125 0)"/>
     <use xlink:href="#IM_FELL_English_SC-51" transform="translate(373.453125 0)"/>
    </g>
   </g>
  </g>
 </g>
 <defs>
  <clipPath id="p9d252c684f">
   <rect x="0" y="0" width="576" height="576"/>
  </clipPath>
 </defs>
</svg>
